%TF.GenerationSoftware,KiCad,Pcbnew,6.0.11+dfsg-1~bpo11+1*%
%TF.CreationDate,2023-10-01T20:30:49+02:00*%
%TF.ProjectId,ICE40UP-Development-Board,49434534-3055-4502-9d44-6576656c6f70,v0.1*%
%TF.SameCoordinates,Original*%
%TF.FileFunction,Soldermask,Bot*%
%TF.FilePolarity,Negative*%
%FSLAX46Y46*%
G04 Gerber Fmt 4.6, Leading zero omitted, Abs format (unit mm)*
G04 Created by KiCad (PCBNEW 6.0.11+dfsg-1~bpo11+1) date 2023-10-01 20:30:49*
%MOMM*%
%LPD*%
G01*
G04 APERTURE LIST*
G04 Aperture macros list*
%AMFreePoly0*
4,1,22,0.500000,-0.750000,0.000000,-0.750000,0.000000,-0.745033,-0.079941,-0.743568,-0.215256,-0.701293,-0.333266,-0.622738,-0.424486,-0.514219,-0.481581,-0.384460,-0.499164,-0.250000,-0.500000,-0.250000,-0.500000,0.250000,-0.499164,0.250000,-0.499963,0.256109,-0.478152,0.396186,-0.417904,0.524511,-0.324060,0.630769,-0.204165,0.706417,-0.067858,0.745374,0.000000,0.744959,0.000000,0.750000,
0.500000,0.750000,0.500000,-0.750000,0.500000,-0.750000,$1*%
%AMFreePoly1*
4,1,20,0.000000,0.744959,0.073905,0.744508,0.209726,0.703889,0.328688,0.626782,0.421226,0.519385,0.479903,0.390333,0.500000,0.250000,0.500000,-0.250000,0.499851,-0.262216,0.476331,-0.402017,0.414519,-0.529596,0.319384,-0.634700,0.198574,-0.708877,0.061801,-0.746166,0.000000,-0.745033,0.000000,-0.750000,-0.500000,-0.750000,-0.500000,0.750000,0.000000,0.750000,0.000000,0.744959,
0.000000,0.744959,$1*%
G04 Aperture macros list end*
%ADD10C,0.990600*%
%ADD11C,0.650000*%
%ADD12O,1.800000X1.000000*%
%ADD13O,2.100000X1.000000*%
%ADD14FreePoly0,180.000000*%
%ADD15FreePoly1,180.000000*%
%ADD16C,1.700000*%
%ADD17O,1.700000X1.700000*%
G04 APERTURE END LIST*
D10*
%TO.C,X4*%
X85090000Y-85471000D03*
X84074000Y-93091000D03*
X83058000Y-85471000D03*
%TD*%
D11*
%TO.C,X1*%
X50865000Y-84740000D03*
X50865000Y-90520000D03*
D12*
X47185000Y-83310000D03*
X47185000Y-91950000D03*
D13*
X51385000Y-83310000D03*
X51385000Y-91950000D03*
%TD*%
D14*
%TO.C,JP1*%
X53355000Y-87630000D03*
D15*
X52055000Y-87630000D03*
%TD*%
D14*
%TO.C,JP2*%
X57165000Y-87630000D03*
D15*
X55865000Y-87630000D03*
%TD*%
D16*
%TO.C,X3*%
X47117000Y-96520000D03*
D17*
X49657000Y-96520000D03*
X52197000Y-96520000D03*
X54737000Y-96520000D03*
X57277000Y-96520000D03*
X59817000Y-96520000D03*
X62357000Y-96520000D03*
X64897000Y-96520000D03*
X67437000Y-96520000D03*
X69977000Y-96520000D03*
X72517000Y-96520000D03*
X75057000Y-96520000D03*
X77597000Y-96520000D03*
X80137000Y-96520000D03*
X82677000Y-96520000D03*
X85217000Y-96520000D03*
%TD*%
D16*
%TO.C,X2*%
X47117000Y-78740000D03*
D17*
X49657000Y-78740000D03*
X52197000Y-78740000D03*
X54737000Y-78740000D03*
X57277000Y-78740000D03*
X59817000Y-78740000D03*
X62357000Y-78740000D03*
X64897000Y-78740000D03*
X67437000Y-78740000D03*
X69977000Y-78740000D03*
X72517000Y-78740000D03*
X75057000Y-78740000D03*
X77597000Y-78740000D03*
X80137000Y-78740000D03*
X82677000Y-78740000D03*
X85217000Y-78740000D03*
%TD*%
M02*
