%TF.GenerationSoftware,KiCad,Pcbnew,6.0.11+dfsg-1~bpo11+1*%
%TF.CreationDate,2023-10-01T20:30:49+02:00*%
%TF.ProjectId,ICE40UP-Development-Board,49434534-3055-4502-9d44-6576656c6f70,v0.1*%
%TF.SameCoordinates,Original*%
%TF.FileFunction,Legend,Bot*%
%TF.FilePolarity,Positive*%
%FSLAX46Y46*%
G04 Gerber Fmt 4.6, Leading zero omitted, Abs format (unit mm)*
G04 Created by KiCad (PCBNEW 6.0.11+dfsg-1~bpo11+1) date 2023-10-01 20:30:49*
%MOMM*%
%LPD*%
G01*
G04 APERTURE LIST*
%ADD10C,0.150000*%
%ADD11C,0.120000*%
G04 APERTURE END LIST*
D10*
%TO.C,JP1*%
X54300238Y-89987380D02*
X54871666Y-89987380D01*
X54585952Y-89987380D02*
X54585952Y-88987380D01*
X54681190Y-89130238D01*
X54776428Y-89225476D01*
X54871666Y-89273095D01*
X54014523Y-88987380D02*
X53681190Y-89987380D01*
X53347857Y-88987380D01*
X53062142Y-89082619D02*
X53014523Y-89035000D01*
X52919285Y-88987380D01*
X52681190Y-88987380D01*
X52585952Y-89035000D01*
X52538333Y-89082619D01*
X52490714Y-89177857D01*
X52490714Y-89273095D01*
X52538333Y-89415952D01*
X53109761Y-89987380D01*
X52490714Y-89987380D01*
X52062142Y-89463571D02*
X51728809Y-89463571D01*
X51585952Y-89987380D02*
X52062142Y-89987380D01*
X52062142Y-88987380D01*
X51585952Y-88987380D01*
X51157380Y-89987380D02*
X51157380Y-88987380D01*
X50585952Y-89987380D01*
X50585952Y-88987380D01*
%TO.C,JP2*%
X58729285Y-85304380D02*
X58110238Y-85304380D01*
X58443571Y-85685333D01*
X58300714Y-85685333D01*
X58205476Y-85732952D01*
X58157857Y-85780571D01*
X58110238Y-85875809D01*
X58110238Y-86113904D01*
X58157857Y-86209142D01*
X58205476Y-86256761D01*
X58300714Y-86304380D01*
X58586428Y-86304380D01*
X58681666Y-86256761D01*
X58729285Y-86209142D01*
X57824523Y-85304380D02*
X57491190Y-86304380D01*
X57157857Y-85304380D01*
X56919761Y-85304380D02*
X56300714Y-85304380D01*
X56634047Y-85685333D01*
X56491190Y-85685333D01*
X56395952Y-85732952D01*
X56348333Y-85780571D01*
X56300714Y-85875809D01*
X56300714Y-86113904D01*
X56348333Y-86209142D01*
X56395952Y-86256761D01*
X56491190Y-86304380D01*
X56776904Y-86304380D01*
X56872142Y-86256761D01*
X56919761Y-86209142D01*
X55872142Y-85780571D02*
X55538809Y-85780571D01*
X55395952Y-86304380D02*
X55872142Y-86304380D01*
X55872142Y-85304380D01*
X55395952Y-85304380D01*
X54967380Y-86304380D02*
X54967380Y-85304380D01*
X54395952Y-86304380D01*
X54395952Y-85304380D01*
D11*
%TO.C,JP1*%
X52005000Y-88630000D02*
X53405000Y-88630000D01*
X53405000Y-86630000D02*
X52005000Y-86630000D01*
X51305000Y-87330000D02*
X51305000Y-87930000D01*
X54105000Y-87930000D02*
X54105000Y-87330000D01*
X54105000Y-87330000D02*
G75*
G03*
X53405000Y-86630000I-699999J1D01*
G01*
X52005000Y-86630000D02*
G75*
G03*
X51305000Y-87330000I0J-700000D01*
G01*
X53405000Y-88630000D02*
G75*
G03*
X54105000Y-87930000I1J699999D01*
G01*
X51305000Y-87930000D02*
G75*
G03*
X52005000Y-88630000I700000J0D01*
G01*
%TO.C,JP2*%
X55115000Y-87330000D02*
X55115000Y-87930000D01*
X57915000Y-87930000D02*
X57915000Y-87330000D01*
X55815000Y-88630000D02*
X57215000Y-88630000D01*
X57215000Y-86630000D02*
X55815000Y-86630000D01*
X55115000Y-87930000D02*
G75*
G03*
X55815000Y-88630000I700000J0D01*
G01*
X55815000Y-86630000D02*
G75*
G03*
X55115000Y-87330000I0J-700000D01*
G01*
X57915000Y-87330000D02*
G75*
G03*
X57215000Y-86630000I-699999J1D01*
G01*
X57215000Y-88630000D02*
G75*
G03*
X57915000Y-87930000I1J699999D01*
G01*
%TD*%
M02*
