%TF.GenerationSoftware,KiCad,Pcbnew,6.0.11+dfsg-1~bpo11+1*%
%TF.CreationDate,2023-10-01T20:30:48+02:00*%
%TF.ProjectId,ICE40UP-Development-Board,49434534-3055-4502-9d44-6576656c6f70,v0.1*%
%TF.SameCoordinates,Original*%
%TF.FileFunction,Copper,L2,Inr*%
%TF.FilePolarity,Positive*%
%FSLAX46Y46*%
G04 Gerber Fmt 4.6, Leading zero omitted, Abs format (unit mm)*
G04 Created by KiCad (PCBNEW 6.0.11+dfsg-1~bpo11+1) date 2023-10-01 20:30:48*
%MOMM*%
%LPD*%
G01*
G04 APERTURE LIST*
%TA.AperFunction,ComponentPad*%
%ADD10O,1.800000X1.000000*%
%TD*%
%TA.AperFunction,ComponentPad*%
%ADD11O,2.100000X1.000000*%
%TD*%
%TA.AperFunction,ComponentPad*%
%ADD12C,1.700000*%
%TD*%
%TA.AperFunction,ComponentPad*%
%ADD13O,1.700000X1.700000*%
%TD*%
%TA.AperFunction,ViaPad*%
%ADD14C,0.600000*%
%TD*%
%TA.AperFunction,ViaPad*%
%ADD15C,0.500000*%
%TD*%
G04 APERTURE END LIST*
D10*
%TO.N,GND*%
%TO.C,X1*%
X47185000Y-83310000D03*
X47185000Y-91950000D03*
D11*
X51385000Y-83310000D03*
X51385000Y-91950000D03*
%TD*%
D12*
%TO.N,VBUS*%
%TO.C,X3*%
X47117000Y-96520000D03*
D13*
%TO.N,IOB_0a*%
X49657000Y-96520000D03*
%TO.N,IOB_2a*%
X52197000Y-96520000D03*
%TO.N,IOB_3b*%
X54737000Y-96520000D03*
%TO.N,IOB_4a*%
X57277000Y-96520000D03*
%TO.N,IOB_6a*%
X59817000Y-96520000D03*
%TO.N,IOB_8a*%
X62357000Y-96520000D03*
%TO.N,IOB_13b*%
X64897000Y-96520000D03*
%TO.N,IOB_16a*%
X67437000Y-96520000D03*
%TO.N,IOB_18a*%
X69977000Y-96520000D03*
%TO.N,IOB_20a*%
X72517000Y-96520000D03*
%TO.N,IOB_24a*%
X75057000Y-96520000D03*
%TO.N,IOB_25b*%
X77597000Y-96520000D03*
%TO.N,SPI_SO*%
X80137000Y-96520000D03*
%TO.N,SPI_SCK*%
X82677000Y-96520000D03*
%TO.N,SPI_~{HOLD}*%
X85217000Y-96520000D03*
%TD*%
D12*
%TO.N,+3V3*%
%TO.C,X2*%
X47117000Y-78740000D03*
D13*
%TO.N,+1V2*%
X49657000Y-78740000D03*
%TO.N,IOT_48b*%
X52197000Y-78740000D03*
%TO.N,IOT_46b*%
X54737000Y-78740000D03*
%TO.N,IOT_45a*%
X57277000Y-78740000D03*
%TO.N,IOT_44b*%
X59817000Y-78740000D03*
%TO.N,IOT_43a*%
X62357000Y-78740000D03*
%TO.N,IOT_42b*%
X64897000Y-78740000D03*
%TO.N,IOT_41a*%
X67437000Y-78740000D03*
%TO.N,IOT_39a*%
X69977000Y-78740000D03*
%TO.N,IOT_38b*%
X72517000Y-78740000D03*
%TO.N,IOT_37b*%
X75057000Y-78740000D03*
%TO.N,IOT_36b*%
X77597000Y-78740000D03*
%TO.N,SPI_~{WP}*%
X80137000Y-78740000D03*
%TO.N,SPI_SI*%
X82677000Y-78740000D03*
%TO.N,GND*%
X85217000Y-78740000D03*
%TD*%
D14*
%TO.N,GND*%
X65405000Y-87630000D03*
X78740000Y-93980000D03*
X57279000Y-81151000D03*
X71882000Y-87355500D03*
X55181500Y-83439000D03*
X67267574Y-92738000D03*
X60960000Y-87630000D03*
X69300167Y-91313000D03*
X68552000Y-84725500D03*
X67507248Y-81460400D03*
X85598000Y-89281000D03*
X65405000Y-89789000D03*
X61197500Y-94234000D03*
X56973181Y-90859385D03*
X73787000Y-90551000D03*
X76835000Y-88265000D03*
X61468000Y-81153000D03*
X65405000Y-81661000D03*
X60960000Y-89789000D03*
X76696000Y-81800000D03*
X72644000Y-81788000D03*
X63119000Y-85344000D03*
X63119000Y-87630000D03*
X80645000Y-91821000D03*
X55118000Y-86223326D03*
X65405000Y-85344000D03*
X63119000Y-89789000D03*
X60960000Y-85344000D03*
X59690000Y-94234000D03*
X57912000Y-94234000D03*
X80784000Y-81800000D03*
%TO.N,+3V3*%
X46609000Y-93091000D03*
X76454000Y-92964000D03*
X67351166Y-93513166D03*
X79601000Y-90833000D03*
X61451500Y-82931000D03*
X67045878Y-83555878D03*
X68546108Y-85775000D03*
X69213000Y-81913000D03*
X59725399Y-92113572D03*
X69112333Y-93345000D03*
X55880000Y-89027000D03*
X80906250Y-89041500D03*
X77343000Y-87122000D03*
X83312000Y-81661000D03*
%TO.N,VBUS*%
X52959000Y-91948000D03*
%TO.N,+1V2*%
X62434000Y-92306574D03*
X56642000Y-82575550D03*
X63162041Y-83121285D03*
X55181500Y-84724500D03*
D15*
%TO.N,Net-(R3-Pad1)*%
X55626000Y-82677000D03*
X52832000Y-82677000D03*
%TO.N,Net-(R4-Pad1)*%
X57913736Y-82583500D03*
X52835187Y-89403479D03*
%TO.N,FLASH_~{SS}*%
X74168000Y-88900000D03*
D14*
X85598000Y-90551000D03*
D15*
X75692000Y-87376000D03*
%TO.N,~{CONF}_I*%
X70485000Y-84836000D03*
X61445727Y-91807227D03*
%TO.N,RAM_~{SS}*%
X80137000Y-87503000D03*
X70993000Y-86360000D03*
%TO.N,CDONE*%
X55199523Y-94188523D03*
X64897000Y-93980000D03*
%TO.N,~{RST}*%
X78486000Y-83312000D03*
X80772000Y-83312000D03*
X64863500Y-92964000D03*
%TO.N,SPI_SO*%
X75311000Y-89916000D03*
X71882000Y-89916000D03*
%TO.N,SPI_SI*%
X81661000Y-86106000D03*
%TO.N,SPI_~{HOLD}*%
X69977000Y-87342500D03*
X74422000Y-91948000D03*
%TO.N,IOB_25b*%
X82550000Y-91839023D03*
X70993000Y-87362500D03*
%TO.N,IOT_37b*%
X68199000Y-83566000D03*
%TO.N,IOT_36b*%
X66167000Y-84201000D03*
%TO.N,IOT_39a*%
X65958477Y-83103477D03*
%TO.N,IOT_38b*%
X65210974Y-83116498D03*
%TO.N,IOT_41a*%
X64561684Y-83099900D03*
%TO.N,IOT_44b*%
X60706000Y-82931000D03*
%TO.N,IOT_45a*%
X59817000Y-84647190D03*
%TO.N,CONF_O*%
X58953757Y-85139822D03*
X69469000Y-84836000D03*
%TO.N,IOB_3b*%
X58896250Y-88405500D03*
X58900899Y-90777899D03*
%TO.N,IOT_48b*%
X58946118Y-84083985D03*
%TO.N,IOB_0a*%
X58160936Y-90084019D03*
%TO.N,IOB_2a*%
X58166180Y-90733500D03*
D14*
%TO.N,/1V2EN*%
X53407000Y-83499000D03*
%TO.N,/3V3EN*%
X54324413Y-82760619D03*
D15*
%TO.N,IOT_46b*%
X59563000Y-83566000D03*
%TD*%
%TA.AperFunction,Conductor*%
%TO.N,GND*%
G36*
X49041288Y-77837813D02*
G01*
X49066598Y-77881650D01*
X49057808Y-77931500D01*
X49040090Y-77952171D01*
X48956424Y-78019440D01*
X48956421Y-78019443D01*
X48953600Y-78021711D01*
X48827480Y-78172016D01*
X48732956Y-78343954D01*
X48731864Y-78347397D01*
X48731863Y-78347399D01*
X48680667Y-78508790D01*
X48673628Y-78530978D01*
X48673225Y-78534574D01*
X48673224Y-78534577D01*
X48668092Y-78580331D01*
X48651757Y-78725963D01*
X48652060Y-78729572D01*
X48652060Y-78729574D01*
X48655252Y-78767584D01*
X48668175Y-78921483D01*
X48722258Y-79110091D01*
X48723911Y-79113307D01*
X48810288Y-79281380D01*
X48810291Y-79281385D01*
X48811944Y-79284601D01*
X48933818Y-79438369D01*
X49083238Y-79565535D01*
X49086400Y-79567302D01*
X49251354Y-79659492D01*
X49251358Y-79659494D01*
X49254513Y-79661257D01*
X49257949Y-79662374D01*
X49257955Y-79662376D01*
X49376467Y-79700882D01*
X49441118Y-79721889D01*
X49501541Y-79729094D01*
X49632346Y-79744692D01*
X49632349Y-79744692D01*
X49635946Y-79745121D01*
X49700365Y-79740164D01*
X49827965Y-79730346D01*
X49827966Y-79730346D01*
X49831576Y-79730068D01*
X50020556Y-79677303D01*
X50023783Y-79675673D01*
X50192455Y-79590471D01*
X50192458Y-79590469D01*
X50195689Y-79588837D01*
X50350303Y-79468040D01*
X50478509Y-79319511D01*
X50480292Y-79316372D01*
X50480295Y-79316368D01*
X50566461Y-79164688D01*
X50575425Y-79148909D01*
X50587269Y-79113307D01*
X50636215Y-78966168D01*
X50637358Y-78962732D01*
X50642130Y-78924962D01*
X50661691Y-78770115D01*
X50661691Y-78770111D01*
X50661949Y-78768071D01*
X50662341Y-78740000D01*
X50662082Y-78737352D01*
X50643547Y-78548331D01*
X50643194Y-78544728D01*
X50586484Y-78356894D01*
X50494370Y-78183653D01*
X50397682Y-78065101D01*
X50372648Y-78034406D01*
X50372647Y-78034405D01*
X50370361Y-78031602D01*
X50273555Y-77951517D01*
X50247940Y-77907859D01*
X50256381Y-77857949D01*
X50294929Y-77825141D01*
X50320724Y-77820500D01*
X51533722Y-77820500D01*
X51581288Y-77837813D01*
X51606598Y-77881650D01*
X51597808Y-77931500D01*
X51580090Y-77952171D01*
X51496424Y-78019440D01*
X51496421Y-78019443D01*
X51493600Y-78021711D01*
X51367480Y-78172016D01*
X51272956Y-78343954D01*
X51271864Y-78347397D01*
X51271863Y-78347399D01*
X51220667Y-78508790D01*
X51213628Y-78530978D01*
X51213225Y-78534574D01*
X51213224Y-78534577D01*
X51208092Y-78580331D01*
X51191757Y-78725963D01*
X51192060Y-78729572D01*
X51192060Y-78729574D01*
X51195252Y-78767584D01*
X51208175Y-78921483D01*
X51262258Y-79110091D01*
X51263911Y-79113307D01*
X51350288Y-79281380D01*
X51350291Y-79281385D01*
X51351944Y-79284601D01*
X51473818Y-79438369D01*
X51623238Y-79565535D01*
X51626400Y-79567302D01*
X51791354Y-79659492D01*
X51791358Y-79659494D01*
X51794513Y-79661257D01*
X51797949Y-79662374D01*
X51797955Y-79662376D01*
X51916467Y-79700882D01*
X51981118Y-79721889D01*
X52041541Y-79729094D01*
X52172346Y-79744692D01*
X52172349Y-79744692D01*
X52175946Y-79745121D01*
X52240365Y-79740164D01*
X52367965Y-79730346D01*
X52367966Y-79730346D01*
X52371576Y-79730068D01*
X52560556Y-79677303D01*
X52563783Y-79675673D01*
X52732455Y-79590471D01*
X52732458Y-79590469D01*
X52735689Y-79588837D01*
X52890303Y-79468040D01*
X53018509Y-79319511D01*
X53020292Y-79316372D01*
X53020295Y-79316368D01*
X53106461Y-79164688D01*
X53115425Y-79148909D01*
X53127269Y-79113307D01*
X53176215Y-78966168D01*
X53177358Y-78962732D01*
X53182130Y-78924962D01*
X53201691Y-78770115D01*
X53201691Y-78770111D01*
X53201949Y-78768071D01*
X53202341Y-78740000D01*
X53202082Y-78737352D01*
X53183547Y-78548331D01*
X53183194Y-78544728D01*
X53126484Y-78356894D01*
X53034370Y-78183653D01*
X52937682Y-78065101D01*
X52912648Y-78034406D01*
X52912647Y-78034405D01*
X52910361Y-78031602D01*
X52813555Y-77951517D01*
X52787940Y-77907859D01*
X52796381Y-77857949D01*
X52834929Y-77825141D01*
X52860724Y-77820500D01*
X54073722Y-77820500D01*
X54121288Y-77837813D01*
X54146598Y-77881650D01*
X54137808Y-77931500D01*
X54120090Y-77952171D01*
X54036424Y-78019440D01*
X54036421Y-78019443D01*
X54033600Y-78021711D01*
X53907480Y-78172016D01*
X53812956Y-78343954D01*
X53811864Y-78347397D01*
X53811863Y-78347399D01*
X53760667Y-78508790D01*
X53753628Y-78530978D01*
X53753225Y-78534574D01*
X53753224Y-78534577D01*
X53748092Y-78580331D01*
X53731757Y-78725963D01*
X53732060Y-78729572D01*
X53732060Y-78729574D01*
X53735252Y-78767584D01*
X53748175Y-78921483D01*
X53802258Y-79110091D01*
X53803911Y-79113307D01*
X53890288Y-79281380D01*
X53890291Y-79281385D01*
X53891944Y-79284601D01*
X54013818Y-79438369D01*
X54163238Y-79565535D01*
X54166400Y-79567302D01*
X54331354Y-79659492D01*
X54331358Y-79659494D01*
X54334513Y-79661257D01*
X54337949Y-79662374D01*
X54337955Y-79662376D01*
X54456467Y-79700882D01*
X54521118Y-79721889D01*
X54581541Y-79729094D01*
X54712346Y-79744692D01*
X54712349Y-79744692D01*
X54715946Y-79745121D01*
X54780365Y-79740164D01*
X54907965Y-79730346D01*
X54907966Y-79730346D01*
X54911576Y-79730068D01*
X55100556Y-79677303D01*
X55103783Y-79675673D01*
X55272455Y-79590471D01*
X55272458Y-79590469D01*
X55275689Y-79588837D01*
X55430303Y-79468040D01*
X55558509Y-79319511D01*
X55560292Y-79316372D01*
X55560295Y-79316368D01*
X55646461Y-79164688D01*
X55655425Y-79148909D01*
X55667269Y-79113307D01*
X55716215Y-78966168D01*
X55717358Y-78962732D01*
X55722130Y-78924962D01*
X55741691Y-78770115D01*
X55741691Y-78770111D01*
X55741949Y-78768071D01*
X55742341Y-78740000D01*
X55742082Y-78737352D01*
X55723547Y-78548331D01*
X55723194Y-78544728D01*
X55666484Y-78356894D01*
X55574370Y-78183653D01*
X55477682Y-78065101D01*
X55452648Y-78034406D01*
X55452647Y-78034405D01*
X55450361Y-78031602D01*
X55353555Y-77951517D01*
X55327940Y-77907859D01*
X55336381Y-77857949D01*
X55374929Y-77825141D01*
X55400724Y-77820500D01*
X56613722Y-77820500D01*
X56661288Y-77837813D01*
X56686598Y-77881650D01*
X56677808Y-77931500D01*
X56660090Y-77952171D01*
X56576424Y-78019440D01*
X56576421Y-78019443D01*
X56573600Y-78021711D01*
X56447480Y-78172016D01*
X56352956Y-78343954D01*
X56351864Y-78347397D01*
X56351863Y-78347399D01*
X56300667Y-78508790D01*
X56293628Y-78530978D01*
X56293225Y-78534574D01*
X56293224Y-78534577D01*
X56288092Y-78580331D01*
X56271757Y-78725963D01*
X56272060Y-78729572D01*
X56272060Y-78729574D01*
X56275252Y-78767584D01*
X56288175Y-78921483D01*
X56342258Y-79110091D01*
X56343911Y-79113307D01*
X56430288Y-79281380D01*
X56430291Y-79281385D01*
X56431944Y-79284601D01*
X56553818Y-79438369D01*
X56703238Y-79565535D01*
X56706400Y-79567302D01*
X56871354Y-79659492D01*
X56871358Y-79659494D01*
X56874513Y-79661257D01*
X56877949Y-79662374D01*
X56877955Y-79662376D01*
X56996467Y-79700882D01*
X57061118Y-79721889D01*
X57121541Y-79729094D01*
X57252346Y-79744692D01*
X57252349Y-79744692D01*
X57255946Y-79745121D01*
X57320365Y-79740164D01*
X57447965Y-79730346D01*
X57447966Y-79730346D01*
X57451576Y-79730068D01*
X57640556Y-79677303D01*
X57643783Y-79675673D01*
X57812455Y-79590471D01*
X57812458Y-79590469D01*
X57815689Y-79588837D01*
X57970303Y-79468040D01*
X58098509Y-79319511D01*
X58100292Y-79316372D01*
X58100295Y-79316368D01*
X58186461Y-79164688D01*
X58195425Y-79148909D01*
X58207269Y-79113307D01*
X58256215Y-78966168D01*
X58257358Y-78962732D01*
X58262130Y-78924962D01*
X58281691Y-78770115D01*
X58281691Y-78770111D01*
X58281949Y-78768071D01*
X58282341Y-78740000D01*
X58282082Y-78737352D01*
X58263547Y-78548331D01*
X58263194Y-78544728D01*
X58206484Y-78356894D01*
X58114370Y-78183653D01*
X58017682Y-78065101D01*
X57992648Y-78034406D01*
X57992647Y-78034405D01*
X57990361Y-78031602D01*
X57893555Y-77951517D01*
X57867940Y-77907859D01*
X57876381Y-77857949D01*
X57914929Y-77825141D01*
X57940724Y-77820500D01*
X59153722Y-77820500D01*
X59201288Y-77837813D01*
X59226598Y-77881650D01*
X59217808Y-77931500D01*
X59200090Y-77952171D01*
X59116424Y-78019440D01*
X59116421Y-78019443D01*
X59113600Y-78021711D01*
X58987480Y-78172016D01*
X58892956Y-78343954D01*
X58891864Y-78347397D01*
X58891863Y-78347399D01*
X58840667Y-78508790D01*
X58833628Y-78530978D01*
X58833225Y-78534574D01*
X58833224Y-78534577D01*
X58828092Y-78580331D01*
X58811757Y-78725963D01*
X58812060Y-78729572D01*
X58812060Y-78729574D01*
X58815252Y-78767584D01*
X58828175Y-78921483D01*
X58882258Y-79110091D01*
X58883911Y-79113307D01*
X58970288Y-79281380D01*
X58970291Y-79281385D01*
X58971944Y-79284601D01*
X59093818Y-79438369D01*
X59243238Y-79565535D01*
X59246400Y-79567302D01*
X59411354Y-79659492D01*
X59411358Y-79659494D01*
X59414513Y-79661257D01*
X59417949Y-79662374D01*
X59417955Y-79662376D01*
X59536467Y-79700882D01*
X59601118Y-79721889D01*
X59661541Y-79729094D01*
X59792346Y-79744692D01*
X59792349Y-79744692D01*
X59795946Y-79745121D01*
X59860365Y-79740164D01*
X59987965Y-79730346D01*
X59987966Y-79730346D01*
X59991576Y-79730068D01*
X60180556Y-79677303D01*
X60183783Y-79675673D01*
X60352455Y-79590471D01*
X60352458Y-79590469D01*
X60355689Y-79588837D01*
X60510303Y-79468040D01*
X60638509Y-79319511D01*
X60640292Y-79316372D01*
X60640295Y-79316368D01*
X60726461Y-79164688D01*
X60735425Y-79148909D01*
X60747269Y-79113307D01*
X60796215Y-78966168D01*
X60797358Y-78962732D01*
X60802130Y-78924962D01*
X60821691Y-78770115D01*
X60821691Y-78770111D01*
X60821949Y-78768071D01*
X60822341Y-78740000D01*
X60822082Y-78737352D01*
X60803547Y-78548331D01*
X60803194Y-78544728D01*
X60746484Y-78356894D01*
X60654370Y-78183653D01*
X60557682Y-78065101D01*
X60532648Y-78034406D01*
X60532647Y-78034405D01*
X60530361Y-78031602D01*
X60433555Y-77951517D01*
X60407940Y-77907859D01*
X60416381Y-77857949D01*
X60454929Y-77825141D01*
X60480724Y-77820500D01*
X61693722Y-77820500D01*
X61741288Y-77837813D01*
X61766598Y-77881650D01*
X61757808Y-77931500D01*
X61740090Y-77952171D01*
X61656424Y-78019440D01*
X61656421Y-78019443D01*
X61653600Y-78021711D01*
X61527480Y-78172016D01*
X61432956Y-78343954D01*
X61431864Y-78347397D01*
X61431863Y-78347399D01*
X61380667Y-78508790D01*
X61373628Y-78530978D01*
X61373225Y-78534574D01*
X61373224Y-78534577D01*
X61368092Y-78580331D01*
X61351757Y-78725963D01*
X61352060Y-78729572D01*
X61352060Y-78729574D01*
X61355252Y-78767584D01*
X61368175Y-78921483D01*
X61422258Y-79110091D01*
X61423911Y-79113307D01*
X61510288Y-79281380D01*
X61510291Y-79281385D01*
X61511944Y-79284601D01*
X61633818Y-79438369D01*
X61783238Y-79565535D01*
X61786400Y-79567302D01*
X61951354Y-79659492D01*
X61951358Y-79659494D01*
X61954513Y-79661257D01*
X61957949Y-79662374D01*
X61957955Y-79662376D01*
X62076467Y-79700882D01*
X62141118Y-79721889D01*
X62201541Y-79729094D01*
X62332346Y-79744692D01*
X62332349Y-79744692D01*
X62335946Y-79745121D01*
X62400365Y-79740164D01*
X62527965Y-79730346D01*
X62527966Y-79730346D01*
X62531576Y-79730068D01*
X62720556Y-79677303D01*
X62723783Y-79675673D01*
X62892455Y-79590471D01*
X62892458Y-79590469D01*
X62895689Y-79588837D01*
X63050303Y-79468040D01*
X63178509Y-79319511D01*
X63180292Y-79316372D01*
X63180295Y-79316368D01*
X63266461Y-79164688D01*
X63275425Y-79148909D01*
X63287269Y-79113307D01*
X63336215Y-78966168D01*
X63337358Y-78962732D01*
X63342130Y-78924962D01*
X63361691Y-78770115D01*
X63361691Y-78770111D01*
X63361949Y-78768071D01*
X63362341Y-78740000D01*
X63362082Y-78737352D01*
X63343547Y-78548331D01*
X63343194Y-78544728D01*
X63286484Y-78356894D01*
X63194370Y-78183653D01*
X63097682Y-78065101D01*
X63072648Y-78034406D01*
X63072647Y-78034405D01*
X63070361Y-78031602D01*
X62973555Y-77951517D01*
X62947940Y-77907859D01*
X62956381Y-77857949D01*
X62994929Y-77825141D01*
X63020724Y-77820500D01*
X64233722Y-77820500D01*
X64281288Y-77837813D01*
X64306598Y-77881650D01*
X64297808Y-77931500D01*
X64280090Y-77952171D01*
X64196424Y-78019440D01*
X64196421Y-78019443D01*
X64193600Y-78021711D01*
X64067480Y-78172016D01*
X63972956Y-78343954D01*
X63971864Y-78347397D01*
X63971863Y-78347399D01*
X63920667Y-78508790D01*
X63913628Y-78530978D01*
X63913225Y-78534574D01*
X63913224Y-78534577D01*
X63908092Y-78580331D01*
X63891757Y-78725963D01*
X63892060Y-78729572D01*
X63892060Y-78729574D01*
X63895252Y-78767584D01*
X63908175Y-78921483D01*
X63962258Y-79110091D01*
X63963911Y-79113307D01*
X64050288Y-79281380D01*
X64050291Y-79281385D01*
X64051944Y-79284601D01*
X64173818Y-79438369D01*
X64323238Y-79565535D01*
X64326400Y-79567302D01*
X64491354Y-79659492D01*
X64491358Y-79659494D01*
X64494513Y-79661257D01*
X64497949Y-79662374D01*
X64497955Y-79662376D01*
X64616467Y-79700882D01*
X64681118Y-79721889D01*
X64741541Y-79729094D01*
X64872346Y-79744692D01*
X64872349Y-79744692D01*
X64875946Y-79745121D01*
X64940365Y-79740164D01*
X65067965Y-79730346D01*
X65067966Y-79730346D01*
X65071576Y-79730068D01*
X65260556Y-79677303D01*
X65263783Y-79675673D01*
X65432455Y-79590471D01*
X65432458Y-79590469D01*
X65435689Y-79588837D01*
X65590303Y-79468040D01*
X65718509Y-79319511D01*
X65720292Y-79316372D01*
X65720295Y-79316368D01*
X65806461Y-79164688D01*
X65815425Y-79148909D01*
X65827269Y-79113307D01*
X65876215Y-78966168D01*
X65877358Y-78962732D01*
X65882130Y-78924962D01*
X65901691Y-78770115D01*
X65901691Y-78770111D01*
X65901949Y-78768071D01*
X65902341Y-78740000D01*
X65902082Y-78737352D01*
X65883547Y-78548331D01*
X65883194Y-78544728D01*
X65826484Y-78356894D01*
X65734370Y-78183653D01*
X65637682Y-78065101D01*
X65612648Y-78034406D01*
X65612647Y-78034405D01*
X65610361Y-78031602D01*
X65513555Y-77951517D01*
X65487940Y-77907859D01*
X65496381Y-77857949D01*
X65534929Y-77825141D01*
X65560724Y-77820500D01*
X66773722Y-77820500D01*
X66821288Y-77837813D01*
X66846598Y-77881650D01*
X66837808Y-77931500D01*
X66820090Y-77952171D01*
X66736424Y-78019440D01*
X66736421Y-78019443D01*
X66733600Y-78021711D01*
X66607480Y-78172016D01*
X66512956Y-78343954D01*
X66511864Y-78347397D01*
X66511863Y-78347399D01*
X66460667Y-78508790D01*
X66453628Y-78530978D01*
X66453225Y-78534574D01*
X66453224Y-78534577D01*
X66448092Y-78580331D01*
X66431757Y-78725963D01*
X66432060Y-78729572D01*
X66432060Y-78729574D01*
X66435252Y-78767584D01*
X66448175Y-78921483D01*
X66502258Y-79110091D01*
X66503911Y-79113307D01*
X66590288Y-79281380D01*
X66590291Y-79281385D01*
X66591944Y-79284601D01*
X66713818Y-79438369D01*
X66863238Y-79565535D01*
X66866400Y-79567302D01*
X67031354Y-79659492D01*
X67031358Y-79659494D01*
X67034513Y-79661257D01*
X67037949Y-79662374D01*
X67037955Y-79662376D01*
X67156467Y-79700882D01*
X67221118Y-79721889D01*
X67281541Y-79729094D01*
X67412346Y-79744692D01*
X67412349Y-79744692D01*
X67415946Y-79745121D01*
X67480365Y-79740164D01*
X67607965Y-79730346D01*
X67607966Y-79730346D01*
X67611576Y-79730068D01*
X67800556Y-79677303D01*
X67803783Y-79675673D01*
X67972455Y-79590471D01*
X67972458Y-79590469D01*
X67975689Y-79588837D01*
X68130303Y-79468040D01*
X68258509Y-79319511D01*
X68260292Y-79316372D01*
X68260295Y-79316368D01*
X68346461Y-79164688D01*
X68355425Y-79148909D01*
X68367269Y-79113307D01*
X68416215Y-78966168D01*
X68417358Y-78962732D01*
X68422130Y-78924962D01*
X68441691Y-78770115D01*
X68441691Y-78770111D01*
X68441949Y-78768071D01*
X68442341Y-78740000D01*
X68442082Y-78737352D01*
X68423547Y-78548331D01*
X68423194Y-78544728D01*
X68366484Y-78356894D01*
X68274370Y-78183653D01*
X68177682Y-78065101D01*
X68152648Y-78034406D01*
X68152647Y-78034405D01*
X68150361Y-78031602D01*
X68053555Y-77951517D01*
X68027940Y-77907859D01*
X68036381Y-77857949D01*
X68074929Y-77825141D01*
X68100724Y-77820500D01*
X69313722Y-77820500D01*
X69361288Y-77837813D01*
X69386598Y-77881650D01*
X69377808Y-77931500D01*
X69360090Y-77952171D01*
X69276424Y-78019440D01*
X69276421Y-78019443D01*
X69273600Y-78021711D01*
X69147480Y-78172016D01*
X69052956Y-78343954D01*
X69051864Y-78347397D01*
X69051863Y-78347399D01*
X69000667Y-78508790D01*
X68993628Y-78530978D01*
X68993225Y-78534574D01*
X68993224Y-78534577D01*
X68988092Y-78580331D01*
X68971757Y-78725963D01*
X68972060Y-78729572D01*
X68972060Y-78729574D01*
X68975252Y-78767584D01*
X68988175Y-78921483D01*
X69042258Y-79110091D01*
X69043911Y-79113307D01*
X69130288Y-79281380D01*
X69130291Y-79281385D01*
X69131944Y-79284601D01*
X69253818Y-79438369D01*
X69403238Y-79565535D01*
X69406400Y-79567302D01*
X69571354Y-79659492D01*
X69571358Y-79659494D01*
X69574513Y-79661257D01*
X69577949Y-79662374D01*
X69577955Y-79662376D01*
X69696467Y-79700882D01*
X69761118Y-79721889D01*
X69821541Y-79729094D01*
X69952346Y-79744692D01*
X69952349Y-79744692D01*
X69955946Y-79745121D01*
X70020365Y-79740164D01*
X70147965Y-79730346D01*
X70147966Y-79730346D01*
X70151576Y-79730068D01*
X70340556Y-79677303D01*
X70343783Y-79675673D01*
X70512455Y-79590471D01*
X70512458Y-79590469D01*
X70515689Y-79588837D01*
X70670303Y-79468040D01*
X70798509Y-79319511D01*
X70800292Y-79316372D01*
X70800295Y-79316368D01*
X70886461Y-79164688D01*
X70895425Y-79148909D01*
X70907269Y-79113307D01*
X70956215Y-78966168D01*
X70957358Y-78962732D01*
X70962130Y-78924962D01*
X70981691Y-78770115D01*
X70981691Y-78770111D01*
X70981949Y-78768071D01*
X70982341Y-78740000D01*
X70982082Y-78737352D01*
X70963547Y-78548331D01*
X70963194Y-78544728D01*
X70906484Y-78356894D01*
X70814370Y-78183653D01*
X70717682Y-78065101D01*
X70692648Y-78034406D01*
X70692647Y-78034405D01*
X70690361Y-78031602D01*
X70593555Y-77951517D01*
X70567940Y-77907859D01*
X70576381Y-77857949D01*
X70614929Y-77825141D01*
X70640724Y-77820500D01*
X71853722Y-77820500D01*
X71901288Y-77837813D01*
X71926598Y-77881650D01*
X71917808Y-77931500D01*
X71900090Y-77952171D01*
X71816424Y-78019440D01*
X71816421Y-78019443D01*
X71813600Y-78021711D01*
X71687480Y-78172016D01*
X71592956Y-78343954D01*
X71591864Y-78347397D01*
X71591863Y-78347399D01*
X71540667Y-78508790D01*
X71533628Y-78530978D01*
X71533225Y-78534574D01*
X71533224Y-78534577D01*
X71528092Y-78580331D01*
X71511757Y-78725963D01*
X71512060Y-78729572D01*
X71512060Y-78729574D01*
X71515252Y-78767584D01*
X71528175Y-78921483D01*
X71582258Y-79110091D01*
X71583911Y-79113307D01*
X71670288Y-79281380D01*
X71670291Y-79281385D01*
X71671944Y-79284601D01*
X71793818Y-79438369D01*
X71943238Y-79565535D01*
X71946400Y-79567302D01*
X72111354Y-79659492D01*
X72111358Y-79659494D01*
X72114513Y-79661257D01*
X72117949Y-79662374D01*
X72117955Y-79662376D01*
X72236467Y-79700882D01*
X72301118Y-79721889D01*
X72361541Y-79729094D01*
X72492346Y-79744692D01*
X72492349Y-79744692D01*
X72495946Y-79745121D01*
X72560365Y-79740164D01*
X72687965Y-79730346D01*
X72687966Y-79730346D01*
X72691576Y-79730068D01*
X72880556Y-79677303D01*
X72883783Y-79675673D01*
X73052455Y-79590471D01*
X73052458Y-79590469D01*
X73055689Y-79588837D01*
X73210303Y-79468040D01*
X73338509Y-79319511D01*
X73340292Y-79316372D01*
X73340295Y-79316368D01*
X73426461Y-79164688D01*
X73435425Y-79148909D01*
X73447269Y-79113307D01*
X73496215Y-78966168D01*
X73497358Y-78962732D01*
X73502130Y-78924962D01*
X73521691Y-78770115D01*
X73521691Y-78770111D01*
X73521949Y-78768071D01*
X73522341Y-78740000D01*
X73522082Y-78737352D01*
X73503547Y-78548331D01*
X73503194Y-78544728D01*
X73446484Y-78356894D01*
X73354370Y-78183653D01*
X73257682Y-78065101D01*
X73232648Y-78034406D01*
X73232647Y-78034405D01*
X73230361Y-78031602D01*
X73133555Y-77951517D01*
X73107940Y-77907859D01*
X73116381Y-77857949D01*
X73154929Y-77825141D01*
X73180724Y-77820500D01*
X74393722Y-77820500D01*
X74441288Y-77837813D01*
X74466598Y-77881650D01*
X74457808Y-77931500D01*
X74440090Y-77952171D01*
X74356424Y-78019440D01*
X74356421Y-78019443D01*
X74353600Y-78021711D01*
X74227480Y-78172016D01*
X74132956Y-78343954D01*
X74131864Y-78347397D01*
X74131863Y-78347399D01*
X74080667Y-78508790D01*
X74073628Y-78530978D01*
X74073225Y-78534574D01*
X74073224Y-78534577D01*
X74068092Y-78580331D01*
X74051757Y-78725963D01*
X74052060Y-78729572D01*
X74052060Y-78729574D01*
X74055252Y-78767584D01*
X74068175Y-78921483D01*
X74122258Y-79110091D01*
X74123911Y-79113307D01*
X74210288Y-79281380D01*
X74210291Y-79281385D01*
X74211944Y-79284601D01*
X74333818Y-79438369D01*
X74483238Y-79565535D01*
X74486400Y-79567302D01*
X74651354Y-79659492D01*
X74651358Y-79659494D01*
X74654513Y-79661257D01*
X74657949Y-79662374D01*
X74657955Y-79662376D01*
X74776467Y-79700882D01*
X74841118Y-79721889D01*
X74901541Y-79729094D01*
X75032346Y-79744692D01*
X75032349Y-79744692D01*
X75035946Y-79745121D01*
X75100365Y-79740164D01*
X75227965Y-79730346D01*
X75227966Y-79730346D01*
X75231576Y-79730068D01*
X75420556Y-79677303D01*
X75423783Y-79675673D01*
X75592455Y-79590471D01*
X75592458Y-79590469D01*
X75595689Y-79588837D01*
X75750303Y-79468040D01*
X75878509Y-79319511D01*
X75880292Y-79316372D01*
X75880295Y-79316368D01*
X75966461Y-79164688D01*
X75975425Y-79148909D01*
X75987269Y-79113307D01*
X76036215Y-78966168D01*
X76037358Y-78962732D01*
X76042130Y-78924962D01*
X76061691Y-78770115D01*
X76061691Y-78770111D01*
X76061949Y-78768071D01*
X76062341Y-78740000D01*
X76062082Y-78737352D01*
X76043547Y-78548331D01*
X76043194Y-78544728D01*
X75986484Y-78356894D01*
X75894370Y-78183653D01*
X75797682Y-78065101D01*
X75772648Y-78034406D01*
X75772647Y-78034405D01*
X75770361Y-78031602D01*
X75673555Y-77951517D01*
X75647940Y-77907859D01*
X75656381Y-77857949D01*
X75694929Y-77825141D01*
X75720724Y-77820500D01*
X76933722Y-77820500D01*
X76981288Y-77837813D01*
X77006598Y-77881650D01*
X76997808Y-77931500D01*
X76980090Y-77952171D01*
X76896424Y-78019440D01*
X76896421Y-78019443D01*
X76893600Y-78021711D01*
X76767480Y-78172016D01*
X76672956Y-78343954D01*
X76671864Y-78347397D01*
X76671863Y-78347399D01*
X76620667Y-78508790D01*
X76613628Y-78530978D01*
X76613225Y-78534574D01*
X76613224Y-78534577D01*
X76608092Y-78580331D01*
X76591757Y-78725963D01*
X76592060Y-78729572D01*
X76592060Y-78729574D01*
X76595252Y-78767584D01*
X76608175Y-78921483D01*
X76662258Y-79110091D01*
X76663911Y-79113307D01*
X76750288Y-79281380D01*
X76750291Y-79281385D01*
X76751944Y-79284601D01*
X76873818Y-79438369D01*
X77023238Y-79565535D01*
X77026400Y-79567302D01*
X77191354Y-79659492D01*
X77191358Y-79659494D01*
X77194513Y-79661257D01*
X77197949Y-79662374D01*
X77197955Y-79662376D01*
X77316467Y-79700882D01*
X77381118Y-79721889D01*
X77441541Y-79729094D01*
X77572346Y-79744692D01*
X77572349Y-79744692D01*
X77575946Y-79745121D01*
X77640365Y-79740164D01*
X77767965Y-79730346D01*
X77767966Y-79730346D01*
X77771576Y-79730068D01*
X77960556Y-79677303D01*
X77963783Y-79675673D01*
X78132455Y-79590471D01*
X78132458Y-79590469D01*
X78135689Y-79588837D01*
X78290303Y-79468040D01*
X78418509Y-79319511D01*
X78420292Y-79316372D01*
X78420295Y-79316368D01*
X78506461Y-79164688D01*
X78515425Y-79148909D01*
X78527269Y-79113307D01*
X78576215Y-78966168D01*
X78577358Y-78962732D01*
X78582130Y-78924962D01*
X78601691Y-78770115D01*
X78601691Y-78770111D01*
X78601949Y-78768071D01*
X78602341Y-78740000D01*
X78602082Y-78737352D01*
X78583547Y-78548331D01*
X78583194Y-78544728D01*
X78526484Y-78356894D01*
X78434370Y-78183653D01*
X78337682Y-78065101D01*
X78312648Y-78034406D01*
X78312647Y-78034405D01*
X78310361Y-78031602D01*
X78213555Y-77951517D01*
X78187940Y-77907859D01*
X78196381Y-77857949D01*
X78234929Y-77825141D01*
X78260724Y-77820500D01*
X79473722Y-77820500D01*
X79521288Y-77837813D01*
X79546598Y-77881650D01*
X79537808Y-77931500D01*
X79520090Y-77952171D01*
X79436424Y-78019440D01*
X79436421Y-78019443D01*
X79433600Y-78021711D01*
X79307480Y-78172016D01*
X79212956Y-78343954D01*
X79211864Y-78347397D01*
X79211863Y-78347399D01*
X79160667Y-78508790D01*
X79153628Y-78530978D01*
X79153225Y-78534574D01*
X79153224Y-78534577D01*
X79148092Y-78580331D01*
X79131757Y-78725963D01*
X79132060Y-78729572D01*
X79132060Y-78729574D01*
X79135252Y-78767584D01*
X79148175Y-78921483D01*
X79202258Y-79110091D01*
X79203911Y-79113307D01*
X79290288Y-79281380D01*
X79290291Y-79281385D01*
X79291944Y-79284601D01*
X79413818Y-79438369D01*
X79563238Y-79565535D01*
X79566400Y-79567302D01*
X79731354Y-79659492D01*
X79731358Y-79659494D01*
X79734513Y-79661257D01*
X79737949Y-79662374D01*
X79737955Y-79662376D01*
X79856467Y-79700882D01*
X79921118Y-79721889D01*
X79981541Y-79729094D01*
X80112346Y-79744692D01*
X80112349Y-79744692D01*
X80115946Y-79745121D01*
X80180365Y-79740164D01*
X80307965Y-79730346D01*
X80307966Y-79730346D01*
X80311576Y-79730068D01*
X80500556Y-79677303D01*
X80503783Y-79675673D01*
X80672455Y-79590471D01*
X80672458Y-79590469D01*
X80675689Y-79588837D01*
X80830303Y-79468040D01*
X80958509Y-79319511D01*
X80960292Y-79316372D01*
X80960295Y-79316368D01*
X81046461Y-79164688D01*
X81055425Y-79148909D01*
X81067269Y-79113307D01*
X81116215Y-78966168D01*
X81117358Y-78962732D01*
X81122130Y-78924962D01*
X81141691Y-78770115D01*
X81141691Y-78770111D01*
X81141949Y-78768071D01*
X81142341Y-78740000D01*
X81142082Y-78737352D01*
X81123547Y-78548331D01*
X81123194Y-78544728D01*
X81066484Y-78356894D01*
X80974370Y-78183653D01*
X80877682Y-78065101D01*
X80852648Y-78034406D01*
X80852647Y-78034405D01*
X80850361Y-78031602D01*
X80753555Y-77951517D01*
X80727940Y-77907859D01*
X80736381Y-77857949D01*
X80774929Y-77825141D01*
X80800724Y-77820500D01*
X82013722Y-77820500D01*
X82061288Y-77837813D01*
X82086598Y-77881650D01*
X82077808Y-77931500D01*
X82060090Y-77952171D01*
X81976424Y-78019440D01*
X81976421Y-78019443D01*
X81973600Y-78021711D01*
X81847480Y-78172016D01*
X81752956Y-78343954D01*
X81751864Y-78347397D01*
X81751863Y-78347399D01*
X81700667Y-78508790D01*
X81693628Y-78530978D01*
X81693225Y-78534574D01*
X81693224Y-78534577D01*
X81688092Y-78580331D01*
X81671757Y-78725963D01*
X81672060Y-78729572D01*
X81672060Y-78729574D01*
X81675252Y-78767584D01*
X81688175Y-78921483D01*
X81742258Y-79110091D01*
X81743911Y-79113307D01*
X81830288Y-79281380D01*
X81830291Y-79281385D01*
X81831944Y-79284601D01*
X81953818Y-79438369D01*
X82103238Y-79565535D01*
X82106400Y-79567302D01*
X82271354Y-79659492D01*
X82271358Y-79659494D01*
X82274513Y-79661257D01*
X82277949Y-79662374D01*
X82277955Y-79662376D01*
X82396467Y-79700882D01*
X82461118Y-79721889D01*
X82521541Y-79729094D01*
X82652346Y-79744692D01*
X82652349Y-79744692D01*
X82655946Y-79745121D01*
X82720365Y-79740164D01*
X82847965Y-79730346D01*
X82847966Y-79730346D01*
X82851576Y-79730068D01*
X83040556Y-79677303D01*
X83043783Y-79675673D01*
X83212455Y-79590471D01*
X83212458Y-79590469D01*
X83215689Y-79588837D01*
X83370303Y-79468040D01*
X83498509Y-79319511D01*
X83500292Y-79316372D01*
X83500295Y-79316368D01*
X83586461Y-79164688D01*
X83595425Y-79148909D01*
X83607269Y-79113307D01*
X83656215Y-78966168D01*
X83657358Y-78962732D01*
X83662130Y-78924962D01*
X83681691Y-78770115D01*
X83681691Y-78770111D01*
X83681949Y-78768071D01*
X83682341Y-78740000D01*
X83682082Y-78737352D01*
X83663547Y-78548331D01*
X83663194Y-78544728D01*
X83606484Y-78356894D01*
X83514370Y-78183653D01*
X83417682Y-78065101D01*
X83392648Y-78034406D01*
X83392647Y-78034405D01*
X83390361Y-78031602D01*
X83293555Y-77951517D01*
X83267940Y-77907859D01*
X83276381Y-77857949D01*
X83314929Y-77825141D01*
X83340724Y-77820500D01*
X85310592Y-77820500D01*
X85322166Y-77821411D01*
X85344000Y-77824869D01*
X85349753Y-77823958D01*
X85349754Y-77823958D01*
X85352798Y-77823476D01*
X85370821Y-77822847D01*
X85497219Y-77833905D01*
X85509917Y-77836143D01*
X85652242Y-77874279D01*
X85664348Y-77878685D01*
X85736697Y-77912423D01*
X85797884Y-77940955D01*
X85809054Y-77947405D01*
X85929738Y-78031908D01*
X85939620Y-78040199D01*
X86043801Y-78144380D01*
X86052092Y-78154262D01*
X86136595Y-78274946D01*
X86143045Y-78286116D01*
X86205313Y-78419648D01*
X86209721Y-78431758D01*
X86247857Y-78574083D01*
X86250095Y-78586781D01*
X86261153Y-78713179D01*
X86260524Y-78731202D01*
X86259131Y-78740000D01*
X86260042Y-78745751D01*
X86262589Y-78761831D01*
X86263500Y-78773408D01*
X86263500Y-96060171D01*
X86246187Y-96107737D01*
X86202350Y-96133047D01*
X86152500Y-96124257D01*
X86124162Y-96094912D01*
X86056069Y-95966848D01*
X86056068Y-95966847D01*
X86054370Y-95963653D01*
X85930361Y-95811602D01*
X85779180Y-95686535D01*
X85764814Y-95678767D01*
X85609768Y-95594934D01*
X85606585Y-95593213D01*
X85603135Y-95592145D01*
X85603130Y-95592143D01*
X85484841Y-95555527D01*
X85419152Y-95535193D01*
X85224019Y-95514683D01*
X85028618Y-95532466D01*
X85025145Y-95533488D01*
X85025146Y-95533488D01*
X84843864Y-95586842D01*
X84843860Y-95586844D01*
X84840393Y-95587864D01*
X84749115Y-95635583D01*
X84669719Y-95677090D01*
X84669716Y-95677092D01*
X84666512Y-95678767D01*
X84663694Y-95681033D01*
X84663692Y-95681034D01*
X84516419Y-95799444D01*
X84516416Y-95799447D01*
X84513600Y-95801711D01*
X84387480Y-95952016D01*
X84292956Y-96123954D01*
X84291864Y-96127397D01*
X84291863Y-96127399D01*
X84287753Y-96140357D01*
X84233628Y-96310978D01*
X84233225Y-96314574D01*
X84233224Y-96314577D01*
X84224311Y-96394039D01*
X84211757Y-96505963D01*
X84212060Y-96509572D01*
X84212060Y-96509574D01*
X84215293Y-96548071D01*
X84228175Y-96701483D01*
X84282258Y-96890091D01*
X84283911Y-96893307D01*
X84370288Y-97061380D01*
X84370291Y-97061385D01*
X84371944Y-97064601D01*
X84493818Y-97218369D01*
X84496571Y-97220712D01*
X84496572Y-97220713D01*
X84509798Y-97231969D01*
X84598175Y-97307183D01*
X84600466Y-97309133D01*
X84625469Y-97353146D01*
X84616331Y-97402933D01*
X84577329Y-97435199D01*
X84552505Y-97439487D01*
X83952719Y-97439487D01*
X83340172Y-97439488D01*
X83292606Y-97422175D01*
X83267296Y-97378338D01*
X83276086Y-97328488D01*
X83294613Y-97307175D01*
X83367450Y-97250269D01*
X83370303Y-97248040D01*
X83498509Y-97099511D01*
X83500292Y-97096372D01*
X83500295Y-97096368D01*
X83567707Y-96977701D01*
X83595425Y-96928909D01*
X83607269Y-96893307D01*
X83656215Y-96746168D01*
X83657358Y-96742732D01*
X83662130Y-96704962D01*
X83681691Y-96550115D01*
X83681691Y-96550111D01*
X83681949Y-96548071D01*
X83682341Y-96520000D01*
X83663194Y-96324728D01*
X83606484Y-96136894D01*
X83514370Y-95963653D01*
X83390361Y-95811602D01*
X83239180Y-95686535D01*
X83224814Y-95678767D01*
X83069768Y-95594934D01*
X83066585Y-95593213D01*
X83063135Y-95592145D01*
X83063130Y-95592143D01*
X82944841Y-95555527D01*
X82879152Y-95535193D01*
X82684019Y-95514683D01*
X82488618Y-95532466D01*
X82485145Y-95533488D01*
X82485146Y-95533488D01*
X82303864Y-95586842D01*
X82303860Y-95586844D01*
X82300393Y-95587864D01*
X82209115Y-95635583D01*
X82129719Y-95677090D01*
X82129716Y-95677092D01*
X82126512Y-95678767D01*
X82123694Y-95681033D01*
X82123692Y-95681034D01*
X81976419Y-95799444D01*
X81976416Y-95799447D01*
X81973600Y-95801711D01*
X81847480Y-95952016D01*
X81752956Y-96123954D01*
X81751864Y-96127397D01*
X81751863Y-96127399D01*
X81747753Y-96140357D01*
X81693628Y-96310978D01*
X81693225Y-96314574D01*
X81693224Y-96314577D01*
X81684311Y-96394039D01*
X81671757Y-96505963D01*
X81672060Y-96509572D01*
X81672060Y-96509574D01*
X81675293Y-96548071D01*
X81688175Y-96701483D01*
X81742258Y-96890091D01*
X81743911Y-96893307D01*
X81830288Y-97061380D01*
X81830291Y-97061385D01*
X81831944Y-97064601D01*
X81953818Y-97218369D01*
X81956571Y-97220712D01*
X81956572Y-97220713D01*
X81969798Y-97231969D01*
X82058175Y-97307183D01*
X82060467Y-97309134D01*
X82085470Y-97353147D01*
X82076332Y-97402934D01*
X82037330Y-97435200D01*
X82012506Y-97439488D01*
X81412719Y-97439488D01*
X80800171Y-97439489D01*
X80752605Y-97422176D01*
X80727295Y-97378339D01*
X80736085Y-97328489D01*
X80754612Y-97307176D01*
X80827450Y-97250269D01*
X80830303Y-97248040D01*
X80958509Y-97099511D01*
X80960292Y-97096372D01*
X80960295Y-97096368D01*
X81027707Y-96977701D01*
X81055425Y-96928909D01*
X81067269Y-96893307D01*
X81116215Y-96746168D01*
X81117358Y-96742732D01*
X81122130Y-96704962D01*
X81141691Y-96550115D01*
X81141691Y-96550111D01*
X81141949Y-96548071D01*
X81142341Y-96520000D01*
X81123194Y-96324728D01*
X81066484Y-96136894D01*
X80974370Y-95963653D01*
X80850361Y-95811602D01*
X80699180Y-95686535D01*
X80684814Y-95678767D01*
X80529768Y-95594934D01*
X80526585Y-95593213D01*
X80523135Y-95592145D01*
X80523130Y-95592143D01*
X80404841Y-95555527D01*
X80339152Y-95535193D01*
X80144019Y-95514683D01*
X79948618Y-95532466D01*
X79945145Y-95533488D01*
X79945146Y-95533488D01*
X79763864Y-95586842D01*
X79763860Y-95586844D01*
X79760393Y-95587864D01*
X79669115Y-95635583D01*
X79589719Y-95677090D01*
X79589716Y-95677092D01*
X79586512Y-95678767D01*
X79583694Y-95681033D01*
X79583692Y-95681034D01*
X79436419Y-95799444D01*
X79436416Y-95799447D01*
X79433600Y-95801711D01*
X79307480Y-95952016D01*
X79212956Y-96123954D01*
X79211864Y-96127397D01*
X79211863Y-96127399D01*
X79207753Y-96140357D01*
X79153628Y-96310978D01*
X79153225Y-96314574D01*
X79153224Y-96314577D01*
X79144311Y-96394039D01*
X79131757Y-96505963D01*
X79132060Y-96509572D01*
X79132060Y-96509574D01*
X79135293Y-96548071D01*
X79148175Y-96701483D01*
X79202258Y-96890091D01*
X79203911Y-96893307D01*
X79290288Y-97061380D01*
X79290291Y-97061385D01*
X79291944Y-97064601D01*
X79413818Y-97218369D01*
X79416571Y-97220712D01*
X79416572Y-97220713D01*
X79520468Y-97309135D01*
X79545471Y-97353148D01*
X79536333Y-97402935D01*
X79497331Y-97435201D01*
X79472507Y-97439489D01*
X78872719Y-97439489D01*
X78260170Y-97439490D01*
X78212604Y-97422177D01*
X78187294Y-97378340D01*
X78196084Y-97328490D01*
X78214611Y-97307177D01*
X78287450Y-97250269D01*
X78290303Y-97248040D01*
X78418509Y-97099511D01*
X78420292Y-97096372D01*
X78420295Y-97096368D01*
X78487707Y-96977701D01*
X78515425Y-96928909D01*
X78527269Y-96893307D01*
X78576215Y-96746168D01*
X78577358Y-96742732D01*
X78582130Y-96704962D01*
X78601691Y-96550115D01*
X78601691Y-96550111D01*
X78601949Y-96548071D01*
X78602341Y-96520000D01*
X78583194Y-96324728D01*
X78526484Y-96136894D01*
X78434370Y-95963653D01*
X78310361Y-95811602D01*
X78159180Y-95686535D01*
X78144814Y-95678767D01*
X77989768Y-95594934D01*
X77986585Y-95593213D01*
X77983135Y-95592145D01*
X77983130Y-95592143D01*
X77864841Y-95555527D01*
X77799152Y-95535193D01*
X77604019Y-95514683D01*
X77408618Y-95532466D01*
X77405145Y-95533488D01*
X77405146Y-95533488D01*
X77223864Y-95586842D01*
X77223860Y-95586844D01*
X77220393Y-95587864D01*
X77129115Y-95635583D01*
X77049719Y-95677090D01*
X77049716Y-95677092D01*
X77046512Y-95678767D01*
X77043694Y-95681033D01*
X77043692Y-95681034D01*
X76896419Y-95799444D01*
X76896416Y-95799447D01*
X76893600Y-95801711D01*
X76767480Y-95952016D01*
X76672956Y-96123954D01*
X76671864Y-96127397D01*
X76671863Y-96127399D01*
X76667753Y-96140357D01*
X76613628Y-96310978D01*
X76613225Y-96314574D01*
X76613224Y-96314577D01*
X76604311Y-96394039D01*
X76591757Y-96505963D01*
X76592060Y-96509572D01*
X76592060Y-96509574D01*
X76595293Y-96548071D01*
X76608175Y-96701483D01*
X76662258Y-96890091D01*
X76663911Y-96893307D01*
X76750288Y-97061380D01*
X76750291Y-97061385D01*
X76751944Y-97064601D01*
X76873818Y-97218369D01*
X76876571Y-97220712D01*
X76876572Y-97220713D01*
X76980469Y-97309136D01*
X77005472Y-97353149D01*
X76996334Y-97402936D01*
X76957331Y-97435202D01*
X76932508Y-97439490D01*
X75720170Y-97439490D01*
X75672604Y-97422177D01*
X75647294Y-97378340D01*
X75656084Y-97328490D01*
X75674611Y-97307177D01*
X75747450Y-97250269D01*
X75750303Y-97248040D01*
X75878509Y-97099511D01*
X75880292Y-97096372D01*
X75880295Y-97096368D01*
X75947707Y-96977701D01*
X75975425Y-96928909D01*
X75987269Y-96893307D01*
X76036215Y-96746168D01*
X76037358Y-96742732D01*
X76042130Y-96704962D01*
X76061691Y-96550115D01*
X76061691Y-96550111D01*
X76061949Y-96548071D01*
X76062341Y-96520000D01*
X76043194Y-96324728D01*
X75986484Y-96136894D01*
X75894370Y-95963653D01*
X75770361Y-95811602D01*
X75619180Y-95686535D01*
X75604814Y-95678767D01*
X75449768Y-95594934D01*
X75446585Y-95593213D01*
X75443135Y-95592145D01*
X75443130Y-95592143D01*
X75324841Y-95555527D01*
X75259152Y-95535193D01*
X75064019Y-95514683D01*
X74868618Y-95532466D01*
X74865145Y-95533488D01*
X74865146Y-95533488D01*
X74683864Y-95586842D01*
X74683860Y-95586844D01*
X74680393Y-95587864D01*
X74589115Y-95635583D01*
X74509719Y-95677090D01*
X74509716Y-95677092D01*
X74506512Y-95678767D01*
X74503694Y-95681033D01*
X74503692Y-95681034D01*
X74356419Y-95799444D01*
X74356416Y-95799447D01*
X74353600Y-95801711D01*
X74227480Y-95952016D01*
X74132956Y-96123954D01*
X74131864Y-96127397D01*
X74131863Y-96127399D01*
X74127753Y-96140357D01*
X74073628Y-96310978D01*
X74073225Y-96314574D01*
X74073224Y-96314577D01*
X74064311Y-96394039D01*
X74051757Y-96505963D01*
X74052060Y-96509572D01*
X74052060Y-96509574D01*
X74055293Y-96548071D01*
X74068175Y-96701483D01*
X74122258Y-96890091D01*
X74123911Y-96893307D01*
X74210288Y-97061380D01*
X74210291Y-97061385D01*
X74211944Y-97064601D01*
X74333818Y-97218369D01*
X74336571Y-97220712D01*
X74336572Y-97220713D01*
X74440470Y-97309137D01*
X74465473Y-97353150D01*
X74456335Y-97402938D01*
X74417332Y-97435203D01*
X74392509Y-97439491D01*
X73180168Y-97439491D01*
X73132602Y-97422178D01*
X73107292Y-97378341D01*
X73116082Y-97328491D01*
X73134609Y-97307178D01*
X73134611Y-97307177D01*
X73210303Y-97248040D01*
X73338509Y-97099511D01*
X73340292Y-97096372D01*
X73340295Y-97096368D01*
X73407707Y-96977701D01*
X73435425Y-96928909D01*
X73447269Y-96893307D01*
X73496215Y-96746168D01*
X73497358Y-96742732D01*
X73502130Y-96704962D01*
X73521691Y-96550115D01*
X73521691Y-96550111D01*
X73521949Y-96548071D01*
X73522341Y-96520000D01*
X73503194Y-96324728D01*
X73446484Y-96136894D01*
X73354370Y-95963653D01*
X73230361Y-95811602D01*
X73079180Y-95686535D01*
X73064814Y-95678767D01*
X72909768Y-95594934D01*
X72906585Y-95593213D01*
X72903135Y-95592145D01*
X72903130Y-95592143D01*
X72784841Y-95555527D01*
X72719152Y-95535193D01*
X72524019Y-95514683D01*
X72328618Y-95532466D01*
X72325145Y-95533488D01*
X72325146Y-95533488D01*
X72143864Y-95586842D01*
X72143860Y-95586844D01*
X72140393Y-95587864D01*
X72049115Y-95635583D01*
X71969719Y-95677090D01*
X71969716Y-95677092D01*
X71966512Y-95678767D01*
X71963694Y-95681033D01*
X71963692Y-95681034D01*
X71816419Y-95799444D01*
X71816416Y-95799447D01*
X71813600Y-95801711D01*
X71687480Y-95952016D01*
X71592956Y-96123954D01*
X71591864Y-96127397D01*
X71591863Y-96127399D01*
X71587753Y-96140357D01*
X71533628Y-96310978D01*
X71533225Y-96314574D01*
X71533224Y-96314577D01*
X71524311Y-96394039D01*
X71511757Y-96505963D01*
X71512060Y-96509572D01*
X71512060Y-96509574D01*
X71515293Y-96548071D01*
X71528175Y-96701483D01*
X71582258Y-96890091D01*
X71583911Y-96893307D01*
X71670288Y-97061380D01*
X71670291Y-97061385D01*
X71671944Y-97064601D01*
X71793818Y-97218369D01*
X71796571Y-97220712D01*
X71796572Y-97220713D01*
X71809798Y-97231969D01*
X71900472Y-97309138D01*
X71925474Y-97353150D01*
X71916336Y-97402937D01*
X71877334Y-97435203D01*
X71852510Y-97439491D01*
X71252719Y-97439491D01*
X70640167Y-97439492D01*
X70592601Y-97422179D01*
X70567291Y-97378342D01*
X70576081Y-97328492D01*
X70594608Y-97307179D01*
X70667450Y-97250269D01*
X70670303Y-97248040D01*
X70798509Y-97099511D01*
X70800292Y-97096372D01*
X70800295Y-97096368D01*
X70867707Y-96977701D01*
X70895425Y-96928909D01*
X70907269Y-96893307D01*
X70956215Y-96746168D01*
X70957358Y-96742732D01*
X70962130Y-96704962D01*
X70981691Y-96550115D01*
X70981691Y-96550111D01*
X70981949Y-96548071D01*
X70982341Y-96520000D01*
X70963194Y-96324728D01*
X70906484Y-96136894D01*
X70814370Y-95963653D01*
X70690361Y-95811602D01*
X70539180Y-95686535D01*
X70524814Y-95678767D01*
X70369768Y-95594934D01*
X70366585Y-95593213D01*
X70363135Y-95592145D01*
X70363130Y-95592143D01*
X70244841Y-95555527D01*
X70179152Y-95535193D01*
X69984019Y-95514683D01*
X69788618Y-95532466D01*
X69785145Y-95533488D01*
X69785146Y-95533488D01*
X69603864Y-95586842D01*
X69603860Y-95586844D01*
X69600393Y-95587864D01*
X69509115Y-95635583D01*
X69429719Y-95677090D01*
X69429716Y-95677092D01*
X69426512Y-95678767D01*
X69423694Y-95681033D01*
X69423692Y-95681034D01*
X69276419Y-95799444D01*
X69276416Y-95799447D01*
X69273600Y-95801711D01*
X69147480Y-95952016D01*
X69052956Y-96123954D01*
X69051864Y-96127397D01*
X69051863Y-96127399D01*
X69047753Y-96140357D01*
X68993628Y-96310978D01*
X68993225Y-96314574D01*
X68993224Y-96314577D01*
X68984311Y-96394039D01*
X68971757Y-96505963D01*
X68972060Y-96509572D01*
X68972060Y-96509574D01*
X68975293Y-96548071D01*
X68988175Y-96701483D01*
X69042258Y-96890091D01*
X69043911Y-96893307D01*
X69130288Y-97061380D01*
X69130291Y-97061385D01*
X69131944Y-97064601D01*
X69253818Y-97218369D01*
X69256571Y-97220712D01*
X69256572Y-97220713D01*
X69269798Y-97231969D01*
X69360471Y-97309137D01*
X69360472Y-97309138D01*
X69385475Y-97353151D01*
X69376337Y-97402938D01*
X69337335Y-97435204D01*
X69312511Y-97439492D01*
X68712719Y-97439492D01*
X68100166Y-97439493D01*
X68052600Y-97422180D01*
X68027290Y-97378343D01*
X68036080Y-97328493D01*
X68054607Y-97307180D01*
X68127450Y-97250269D01*
X68130303Y-97248040D01*
X68258509Y-97099511D01*
X68260292Y-97096372D01*
X68260295Y-97096368D01*
X68327707Y-96977701D01*
X68355425Y-96928909D01*
X68367269Y-96893307D01*
X68416215Y-96746168D01*
X68417358Y-96742732D01*
X68422130Y-96704962D01*
X68441691Y-96550115D01*
X68441691Y-96550111D01*
X68441949Y-96548071D01*
X68442341Y-96520000D01*
X68423194Y-96324728D01*
X68366484Y-96136894D01*
X68274370Y-95963653D01*
X68150361Y-95811602D01*
X67999180Y-95686535D01*
X67984814Y-95678767D01*
X67829768Y-95594934D01*
X67826585Y-95593213D01*
X67823135Y-95592145D01*
X67823130Y-95592143D01*
X67704841Y-95555527D01*
X67639152Y-95535193D01*
X67444019Y-95514683D01*
X67248618Y-95532466D01*
X67245145Y-95533488D01*
X67245146Y-95533488D01*
X67063864Y-95586842D01*
X67063860Y-95586844D01*
X67060393Y-95587864D01*
X66969115Y-95635583D01*
X66889719Y-95677090D01*
X66889716Y-95677092D01*
X66886512Y-95678767D01*
X66883694Y-95681033D01*
X66883692Y-95681034D01*
X66736419Y-95799444D01*
X66736416Y-95799447D01*
X66733600Y-95801711D01*
X66607480Y-95952016D01*
X66512956Y-96123954D01*
X66511864Y-96127397D01*
X66511863Y-96127399D01*
X66507753Y-96140357D01*
X66453628Y-96310978D01*
X66453225Y-96314574D01*
X66453224Y-96314577D01*
X66444311Y-96394039D01*
X66431757Y-96505963D01*
X66432060Y-96509572D01*
X66432060Y-96509574D01*
X66435293Y-96548071D01*
X66448175Y-96701483D01*
X66502258Y-96890091D01*
X66503911Y-96893307D01*
X66590288Y-97061380D01*
X66590291Y-97061385D01*
X66591944Y-97064601D01*
X66713818Y-97218369D01*
X66716571Y-97220712D01*
X66716572Y-97220713D01*
X66729798Y-97231969D01*
X66820471Y-97309137D01*
X66820473Y-97309139D01*
X66845476Y-97353152D01*
X66836338Y-97402939D01*
X66797336Y-97435205D01*
X66772512Y-97439493D01*
X66172720Y-97439493D01*
X65560165Y-97439494D01*
X65512599Y-97422181D01*
X65487289Y-97378344D01*
X65496079Y-97328494D01*
X65514606Y-97307181D01*
X65587450Y-97250269D01*
X65590303Y-97248040D01*
X65718509Y-97099511D01*
X65720292Y-97096372D01*
X65720295Y-97096368D01*
X65787707Y-96977701D01*
X65815425Y-96928909D01*
X65827269Y-96893307D01*
X65876215Y-96746168D01*
X65877358Y-96742732D01*
X65882130Y-96704962D01*
X65901691Y-96550115D01*
X65901691Y-96550111D01*
X65901949Y-96548071D01*
X65902341Y-96520000D01*
X65883194Y-96324728D01*
X65826484Y-96136894D01*
X65734370Y-95963653D01*
X65610361Y-95811602D01*
X65459180Y-95686535D01*
X65444814Y-95678767D01*
X65289768Y-95594934D01*
X65286585Y-95593213D01*
X65283135Y-95592145D01*
X65283130Y-95592143D01*
X65164841Y-95555527D01*
X65099152Y-95535193D01*
X64904019Y-95514683D01*
X64708618Y-95532466D01*
X64705145Y-95533488D01*
X64705146Y-95533488D01*
X64523864Y-95586842D01*
X64523860Y-95586844D01*
X64520393Y-95587864D01*
X64429115Y-95635583D01*
X64349719Y-95677090D01*
X64349716Y-95677092D01*
X64346512Y-95678767D01*
X64343694Y-95681033D01*
X64343692Y-95681034D01*
X64196419Y-95799444D01*
X64196416Y-95799447D01*
X64193600Y-95801711D01*
X64067480Y-95952016D01*
X63972956Y-96123954D01*
X63971864Y-96127397D01*
X63971863Y-96127399D01*
X63967753Y-96140357D01*
X63913628Y-96310978D01*
X63913225Y-96314574D01*
X63913224Y-96314577D01*
X63904311Y-96394039D01*
X63891757Y-96505963D01*
X63892060Y-96509572D01*
X63892060Y-96509574D01*
X63895293Y-96548071D01*
X63908175Y-96701483D01*
X63962258Y-96890091D01*
X63963911Y-96893307D01*
X64050288Y-97061380D01*
X64050291Y-97061385D01*
X64051944Y-97064601D01*
X64173818Y-97218369D01*
X64176571Y-97220712D01*
X64176572Y-97220713D01*
X64189798Y-97231969D01*
X64278175Y-97307183D01*
X64280474Y-97309140D01*
X64305477Y-97353153D01*
X64296339Y-97402940D01*
X64257337Y-97435206D01*
X64232513Y-97439494D01*
X63632717Y-97439494D01*
X63020163Y-97439495D01*
X62972597Y-97422182D01*
X62947287Y-97378345D01*
X62956077Y-97328495D01*
X62974604Y-97307182D01*
X62974606Y-97307181D01*
X63050303Y-97248040D01*
X63178509Y-97099511D01*
X63180292Y-97096372D01*
X63180295Y-97096368D01*
X63247707Y-96977701D01*
X63275425Y-96928909D01*
X63287269Y-96893307D01*
X63336215Y-96746168D01*
X63337358Y-96742732D01*
X63342130Y-96704962D01*
X63361691Y-96550115D01*
X63361691Y-96550111D01*
X63361949Y-96548071D01*
X63362341Y-96520000D01*
X63343194Y-96324728D01*
X63286484Y-96136894D01*
X63194370Y-95963653D01*
X63070361Y-95811602D01*
X62919180Y-95686535D01*
X62904814Y-95678767D01*
X62749768Y-95594934D01*
X62746585Y-95593213D01*
X62743135Y-95592145D01*
X62743130Y-95592143D01*
X62624841Y-95555527D01*
X62559152Y-95535193D01*
X62364019Y-95514683D01*
X62168618Y-95532466D01*
X62165145Y-95533488D01*
X62165146Y-95533488D01*
X61983864Y-95586842D01*
X61983860Y-95586844D01*
X61980393Y-95587864D01*
X61889115Y-95635583D01*
X61809719Y-95677090D01*
X61809716Y-95677092D01*
X61806512Y-95678767D01*
X61803694Y-95681033D01*
X61803692Y-95681034D01*
X61656419Y-95799444D01*
X61656416Y-95799447D01*
X61653600Y-95801711D01*
X61527480Y-95952016D01*
X61432956Y-96123954D01*
X61431864Y-96127397D01*
X61431863Y-96127399D01*
X61427753Y-96140357D01*
X61373628Y-96310978D01*
X61373225Y-96314574D01*
X61373224Y-96314577D01*
X61364311Y-96394039D01*
X61351757Y-96505963D01*
X61352060Y-96509572D01*
X61352060Y-96509574D01*
X61355293Y-96548071D01*
X61368175Y-96701483D01*
X61422258Y-96890091D01*
X61423911Y-96893307D01*
X61510288Y-97061380D01*
X61510291Y-97061385D01*
X61511944Y-97064601D01*
X61633818Y-97218369D01*
X61636571Y-97220712D01*
X61636572Y-97220713D01*
X61740475Y-97309141D01*
X61765478Y-97353154D01*
X61756340Y-97402941D01*
X61717338Y-97435207D01*
X61692514Y-97439495D01*
X61092718Y-97439495D01*
X60480162Y-97439496D01*
X60432596Y-97422183D01*
X60407286Y-97378346D01*
X60416076Y-97328496D01*
X60434603Y-97307183D01*
X60507450Y-97250269D01*
X60510303Y-97248040D01*
X60638509Y-97099511D01*
X60640292Y-97096372D01*
X60640295Y-97096368D01*
X60707707Y-96977701D01*
X60735425Y-96928909D01*
X60747269Y-96893307D01*
X60796215Y-96746168D01*
X60797358Y-96742732D01*
X60802130Y-96704962D01*
X60821691Y-96550115D01*
X60821691Y-96550111D01*
X60821949Y-96548071D01*
X60822341Y-96520000D01*
X60803194Y-96324728D01*
X60746484Y-96136894D01*
X60654370Y-95963653D01*
X60530361Y-95811602D01*
X60379180Y-95686535D01*
X60364814Y-95678767D01*
X60209768Y-95594934D01*
X60206585Y-95593213D01*
X60203135Y-95592145D01*
X60203130Y-95592143D01*
X60084841Y-95555527D01*
X60019152Y-95535193D01*
X59824019Y-95514683D01*
X59628618Y-95532466D01*
X59625145Y-95533488D01*
X59625146Y-95533488D01*
X59443864Y-95586842D01*
X59443860Y-95586844D01*
X59440393Y-95587864D01*
X59349115Y-95635583D01*
X59269719Y-95677090D01*
X59269716Y-95677092D01*
X59266512Y-95678767D01*
X59263694Y-95681033D01*
X59263692Y-95681034D01*
X59116419Y-95799444D01*
X59116416Y-95799447D01*
X59113600Y-95801711D01*
X58987480Y-95952016D01*
X58892956Y-96123954D01*
X58891864Y-96127397D01*
X58891863Y-96127399D01*
X58887753Y-96140357D01*
X58833628Y-96310978D01*
X58833225Y-96314574D01*
X58833224Y-96314577D01*
X58824311Y-96394039D01*
X58811757Y-96505963D01*
X58812060Y-96509572D01*
X58812060Y-96509574D01*
X58815293Y-96548071D01*
X58828175Y-96701483D01*
X58882258Y-96890091D01*
X58883911Y-96893307D01*
X58970288Y-97061380D01*
X58970291Y-97061385D01*
X58971944Y-97064601D01*
X59093818Y-97218369D01*
X59096571Y-97220712D01*
X59096572Y-97220713D01*
X59200476Y-97309142D01*
X59225479Y-97353155D01*
X59216341Y-97402942D01*
X59177338Y-97435208D01*
X59152515Y-97439496D01*
X57940162Y-97439496D01*
X57892596Y-97422183D01*
X57867286Y-97378346D01*
X57876076Y-97328496D01*
X57894603Y-97307183D01*
X57967450Y-97250269D01*
X57970303Y-97248040D01*
X58098509Y-97099511D01*
X58100292Y-97096372D01*
X58100295Y-97096368D01*
X58167707Y-96977701D01*
X58195425Y-96928909D01*
X58207269Y-96893307D01*
X58256215Y-96746168D01*
X58257358Y-96742732D01*
X58262130Y-96704962D01*
X58281691Y-96550115D01*
X58281691Y-96550111D01*
X58281949Y-96548071D01*
X58282341Y-96520000D01*
X58263194Y-96324728D01*
X58206484Y-96136894D01*
X58114370Y-95963653D01*
X57990361Y-95811602D01*
X57839180Y-95686535D01*
X57824814Y-95678767D01*
X57669768Y-95594934D01*
X57666585Y-95593213D01*
X57663135Y-95592145D01*
X57663130Y-95592143D01*
X57544841Y-95555527D01*
X57479152Y-95535193D01*
X57284019Y-95514683D01*
X57088618Y-95532466D01*
X57085145Y-95533488D01*
X57085146Y-95533488D01*
X56903864Y-95586842D01*
X56903860Y-95586844D01*
X56900393Y-95587864D01*
X56809115Y-95635583D01*
X56729719Y-95677090D01*
X56729716Y-95677092D01*
X56726512Y-95678767D01*
X56723694Y-95681033D01*
X56723692Y-95681034D01*
X56576419Y-95799444D01*
X56576416Y-95799447D01*
X56573600Y-95801711D01*
X56447480Y-95952016D01*
X56352956Y-96123954D01*
X56351864Y-96127397D01*
X56351863Y-96127399D01*
X56347753Y-96140357D01*
X56293628Y-96310978D01*
X56293225Y-96314574D01*
X56293224Y-96314577D01*
X56284311Y-96394039D01*
X56271757Y-96505963D01*
X56272060Y-96509572D01*
X56272060Y-96509574D01*
X56275293Y-96548071D01*
X56288175Y-96701483D01*
X56342258Y-96890091D01*
X56343911Y-96893307D01*
X56430288Y-97061380D01*
X56430291Y-97061385D01*
X56431944Y-97064601D01*
X56553818Y-97218369D01*
X56556571Y-97220712D01*
X56556572Y-97220713D01*
X56660477Y-97309143D01*
X56685480Y-97353156D01*
X56676342Y-97402944D01*
X56637339Y-97435209D01*
X56612516Y-97439497D01*
X55400161Y-97439497D01*
X55352595Y-97422184D01*
X55327285Y-97378347D01*
X55336075Y-97328497D01*
X55354602Y-97307184D01*
X55427450Y-97250269D01*
X55430303Y-97248040D01*
X55558509Y-97099511D01*
X55560292Y-97096372D01*
X55560295Y-97096368D01*
X55627707Y-96977701D01*
X55655425Y-96928909D01*
X55667269Y-96893307D01*
X55716215Y-96746168D01*
X55717358Y-96742732D01*
X55722130Y-96704962D01*
X55741691Y-96550115D01*
X55741691Y-96550111D01*
X55741949Y-96548071D01*
X55742341Y-96520000D01*
X55723194Y-96324728D01*
X55666484Y-96136894D01*
X55574370Y-95963653D01*
X55450361Y-95811602D01*
X55299180Y-95686535D01*
X55284814Y-95678767D01*
X55129768Y-95594934D01*
X55126585Y-95593213D01*
X55123135Y-95592145D01*
X55123130Y-95592143D01*
X55004841Y-95555527D01*
X54939152Y-95535193D01*
X54744019Y-95514683D01*
X54548618Y-95532466D01*
X54545145Y-95533488D01*
X54545146Y-95533488D01*
X54363864Y-95586842D01*
X54363860Y-95586844D01*
X54360393Y-95587864D01*
X54269115Y-95635583D01*
X54189719Y-95677090D01*
X54189716Y-95677092D01*
X54186512Y-95678767D01*
X54183694Y-95681033D01*
X54183692Y-95681034D01*
X54036419Y-95799444D01*
X54036416Y-95799447D01*
X54033600Y-95801711D01*
X53907480Y-95952016D01*
X53812956Y-96123954D01*
X53811864Y-96127397D01*
X53811863Y-96127399D01*
X53807753Y-96140357D01*
X53753628Y-96310978D01*
X53753225Y-96314574D01*
X53753224Y-96314577D01*
X53744311Y-96394039D01*
X53731757Y-96505963D01*
X53732060Y-96509572D01*
X53732060Y-96509574D01*
X53735293Y-96548071D01*
X53748175Y-96701483D01*
X53802258Y-96890091D01*
X53803911Y-96893307D01*
X53890288Y-97061380D01*
X53890291Y-97061385D01*
X53891944Y-97064601D01*
X54013818Y-97218369D01*
X54016571Y-97220712D01*
X54016572Y-97220713D01*
X54029798Y-97231969D01*
X54120478Y-97309143D01*
X54120479Y-97309144D01*
X54145482Y-97353157D01*
X54136344Y-97402944D01*
X54097342Y-97435210D01*
X54072518Y-97439498D01*
X52860159Y-97439498D01*
X52812593Y-97422185D01*
X52787283Y-97378348D01*
X52796073Y-97328498D01*
X52814600Y-97307185D01*
X52814602Y-97307184D01*
X52890303Y-97248040D01*
X53018509Y-97099511D01*
X53020292Y-97096372D01*
X53020295Y-97096368D01*
X53087707Y-96977701D01*
X53115425Y-96928909D01*
X53127269Y-96893307D01*
X53176215Y-96746168D01*
X53177358Y-96742732D01*
X53182130Y-96704962D01*
X53201691Y-96550115D01*
X53201691Y-96550111D01*
X53201949Y-96548071D01*
X53202341Y-96520000D01*
X53183194Y-96324728D01*
X53126484Y-96136894D01*
X53034370Y-95963653D01*
X52910361Y-95811602D01*
X52759180Y-95686535D01*
X52744814Y-95678767D01*
X52589768Y-95594934D01*
X52586585Y-95593213D01*
X52583135Y-95592145D01*
X52583130Y-95592143D01*
X52464841Y-95555527D01*
X52399152Y-95535193D01*
X52204019Y-95514683D01*
X52008618Y-95532466D01*
X52005145Y-95533488D01*
X52005146Y-95533488D01*
X51823864Y-95586842D01*
X51823860Y-95586844D01*
X51820393Y-95587864D01*
X51729115Y-95635583D01*
X51649719Y-95677090D01*
X51649716Y-95677092D01*
X51646512Y-95678767D01*
X51643694Y-95681033D01*
X51643692Y-95681034D01*
X51496419Y-95799444D01*
X51496416Y-95799447D01*
X51493600Y-95801711D01*
X51367480Y-95952016D01*
X51272956Y-96123954D01*
X51271864Y-96127397D01*
X51271863Y-96127399D01*
X51267753Y-96140357D01*
X51213628Y-96310978D01*
X51213225Y-96314574D01*
X51213224Y-96314577D01*
X51204311Y-96394039D01*
X51191757Y-96505963D01*
X51192060Y-96509572D01*
X51192060Y-96509574D01*
X51195293Y-96548071D01*
X51208175Y-96701483D01*
X51262258Y-96890091D01*
X51263911Y-96893307D01*
X51350288Y-97061380D01*
X51350291Y-97061385D01*
X51351944Y-97064601D01*
X51473818Y-97218369D01*
X51476571Y-97220712D01*
X51476572Y-97220713D01*
X51489798Y-97231969D01*
X51580478Y-97309143D01*
X51580479Y-97309144D01*
X51605482Y-97353157D01*
X51596344Y-97402944D01*
X51557342Y-97435210D01*
X51532518Y-97439498D01*
X50932720Y-97439498D01*
X50320158Y-97439499D01*
X50272592Y-97422186D01*
X50247282Y-97378349D01*
X50256072Y-97328499D01*
X50274599Y-97307186D01*
X50274606Y-97307181D01*
X50350303Y-97248040D01*
X50478509Y-97099511D01*
X50480292Y-97096372D01*
X50480295Y-97096368D01*
X50547707Y-96977701D01*
X50575425Y-96928909D01*
X50587269Y-96893307D01*
X50636215Y-96746168D01*
X50637358Y-96742732D01*
X50642130Y-96704962D01*
X50661691Y-96550115D01*
X50661691Y-96550111D01*
X50661949Y-96548071D01*
X50662341Y-96520000D01*
X50643194Y-96324728D01*
X50586484Y-96136894D01*
X50494370Y-95963653D01*
X50370361Y-95811602D01*
X50219180Y-95686535D01*
X50204814Y-95678767D01*
X50049768Y-95594934D01*
X50046585Y-95593213D01*
X50043135Y-95592145D01*
X50043130Y-95592143D01*
X49924841Y-95555527D01*
X49859152Y-95535193D01*
X49664019Y-95514683D01*
X49468618Y-95532466D01*
X49465145Y-95533488D01*
X49465146Y-95533488D01*
X49283864Y-95586842D01*
X49283860Y-95586844D01*
X49280393Y-95587864D01*
X49189115Y-95635583D01*
X49109719Y-95677090D01*
X49109716Y-95677092D01*
X49106512Y-95678767D01*
X49103694Y-95681033D01*
X49103692Y-95681034D01*
X48956419Y-95799444D01*
X48956416Y-95799447D01*
X48953600Y-95801711D01*
X48827480Y-95952016D01*
X48732956Y-96123954D01*
X48731864Y-96127397D01*
X48731863Y-96127399D01*
X48727753Y-96140357D01*
X48673628Y-96310978D01*
X48673225Y-96314574D01*
X48673224Y-96314577D01*
X48664311Y-96394039D01*
X48651757Y-96505963D01*
X48652060Y-96509572D01*
X48652060Y-96509574D01*
X48655293Y-96548071D01*
X48668175Y-96701483D01*
X48722258Y-96890091D01*
X48723911Y-96893307D01*
X48810288Y-97061380D01*
X48810291Y-97061385D01*
X48811944Y-97064601D01*
X48933818Y-97218369D01*
X48936571Y-97220712D01*
X48936572Y-97220713D01*
X48949798Y-97231969D01*
X49040478Y-97309143D01*
X49040480Y-97309145D01*
X49065483Y-97353158D01*
X49056345Y-97402945D01*
X49017343Y-97435211D01*
X48992519Y-97439499D01*
X48392720Y-97439499D01*
X47780157Y-97439500D01*
X47732591Y-97422187D01*
X47707281Y-97378350D01*
X47716071Y-97328500D01*
X47734598Y-97307187D01*
X47807450Y-97250269D01*
X47810303Y-97248040D01*
X47938509Y-97099511D01*
X47940292Y-97096372D01*
X47940295Y-97096368D01*
X48007707Y-96977701D01*
X48035425Y-96928909D01*
X48047269Y-96893307D01*
X48096215Y-96746168D01*
X48097358Y-96742732D01*
X48102130Y-96704962D01*
X48121691Y-96550115D01*
X48121691Y-96550111D01*
X48121949Y-96548071D01*
X48122341Y-96520000D01*
X48103194Y-96324728D01*
X48046484Y-96136894D01*
X47954370Y-95963653D01*
X47830361Y-95811602D01*
X47679180Y-95686535D01*
X47664814Y-95678767D01*
X47509768Y-95594934D01*
X47506585Y-95593213D01*
X47503135Y-95592145D01*
X47503130Y-95592143D01*
X47384841Y-95555527D01*
X47319152Y-95535193D01*
X47124019Y-95514683D01*
X46928618Y-95532466D01*
X46925145Y-95533488D01*
X46925146Y-95533488D01*
X46743864Y-95586842D01*
X46743860Y-95586844D01*
X46740393Y-95587864D01*
X46649115Y-95635583D01*
X46569719Y-95677090D01*
X46569716Y-95677092D01*
X46566512Y-95678767D01*
X46563694Y-95681033D01*
X46563692Y-95681034D01*
X46416419Y-95799444D01*
X46416416Y-95799447D01*
X46413600Y-95801711D01*
X46287480Y-95952016D01*
X46285738Y-95955184D01*
X46285737Y-95955186D01*
X46209347Y-96094139D01*
X46171260Y-96127481D01*
X46120652Y-96128541D01*
X46081203Y-96096823D01*
X46070500Y-96058489D01*
X46070500Y-94188523D01*
X54794031Y-94188523D01*
X54794942Y-94194275D01*
X54812965Y-94308072D01*
X54812966Y-94308075D01*
X54813877Y-94313827D01*
X54816522Y-94319018D01*
X54816523Y-94319021D01*
X54868827Y-94421673D01*
X54868829Y-94421675D01*
X54871473Y-94426865D01*
X54961181Y-94516573D01*
X54966371Y-94519217D01*
X54966373Y-94519219D01*
X55069025Y-94571523D01*
X55069028Y-94571524D01*
X55074219Y-94574169D01*
X55079971Y-94575080D01*
X55079974Y-94575081D01*
X55193771Y-94593104D01*
X55199523Y-94594015D01*
X55205275Y-94593104D01*
X55319072Y-94575081D01*
X55319075Y-94575080D01*
X55324827Y-94574169D01*
X55330018Y-94571524D01*
X55330021Y-94571523D01*
X55432673Y-94519219D01*
X55432675Y-94519217D01*
X55437865Y-94516573D01*
X55527573Y-94426865D01*
X55530217Y-94421675D01*
X55530219Y-94421673D01*
X55582523Y-94319021D01*
X55582524Y-94319018D01*
X55585169Y-94313827D01*
X55586080Y-94308075D01*
X55586081Y-94308072D01*
X55604104Y-94194275D01*
X55605015Y-94188523D01*
X55604104Y-94182771D01*
X55586081Y-94068974D01*
X55586080Y-94068971D01*
X55585169Y-94063219D01*
X55582523Y-94058025D01*
X55542767Y-93980000D01*
X64491508Y-93980000D01*
X64492419Y-93985752D01*
X64510442Y-94099549D01*
X64510443Y-94099552D01*
X64511354Y-94105304D01*
X64513999Y-94110495D01*
X64514000Y-94110498D01*
X64566304Y-94213150D01*
X64566306Y-94213152D01*
X64568950Y-94218342D01*
X64658658Y-94308050D01*
X64663848Y-94310694D01*
X64663850Y-94310696D01*
X64766502Y-94363000D01*
X64766505Y-94363001D01*
X64771696Y-94365646D01*
X64777448Y-94366557D01*
X64777451Y-94366558D01*
X64891248Y-94384581D01*
X64897000Y-94385492D01*
X64902752Y-94384581D01*
X65016549Y-94366558D01*
X65016552Y-94366557D01*
X65022304Y-94365646D01*
X65027495Y-94363001D01*
X65027498Y-94363000D01*
X65130150Y-94310696D01*
X65130152Y-94310694D01*
X65135342Y-94308050D01*
X65225050Y-94218342D01*
X65227694Y-94213152D01*
X65227696Y-94213150D01*
X65280000Y-94110498D01*
X65280001Y-94110495D01*
X65282646Y-94105304D01*
X65283557Y-94099552D01*
X65283558Y-94099549D01*
X65301581Y-93985752D01*
X65302492Y-93980000D01*
X65300071Y-93964712D01*
X65283558Y-93860451D01*
X65283557Y-93860448D01*
X65282646Y-93854696D01*
X65280000Y-93849502D01*
X65227696Y-93746850D01*
X65227694Y-93746848D01*
X65225050Y-93741658D01*
X65135342Y-93651950D01*
X65130152Y-93649306D01*
X65130150Y-93649304D01*
X65027498Y-93597000D01*
X65027495Y-93596999D01*
X65022304Y-93594354D01*
X65016552Y-93593443D01*
X65016549Y-93593442D01*
X64902752Y-93575419D01*
X64897000Y-93574508D01*
X64891248Y-93575419D01*
X64777451Y-93593442D01*
X64777448Y-93593443D01*
X64771696Y-93594354D01*
X64766505Y-93596999D01*
X64766502Y-93597000D01*
X64663850Y-93649304D01*
X64663848Y-93649306D01*
X64658658Y-93651950D01*
X64568950Y-93741658D01*
X64566306Y-93746848D01*
X64566304Y-93746850D01*
X64514000Y-93849502D01*
X64511354Y-93854696D01*
X64510443Y-93860448D01*
X64510442Y-93860451D01*
X64493929Y-93964712D01*
X64491508Y-93980000D01*
X55542767Y-93980000D01*
X55530219Y-93955373D01*
X55530217Y-93955371D01*
X55527573Y-93950181D01*
X55437865Y-93860473D01*
X55432675Y-93857829D01*
X55432673Y-93857827D01*
X55330021Y-93805523D01*
X55330018Y-93805522D01*
X55324827Y-93802877D01*
X55319075Y-93801966D01*
X55319072Y-93801965D01*
X55205275Y-93783942D01*
X55199523Y-93783031D01*
X55193771Y-93783942D01*
X55079974Y-93801965D01*
X55079971Y-93801966D01*
X55074219Y-93802877D01*
X55069028Y-93805522D01*
X55069025Y-93805523D01*
X54966373Y-93857827D01*
X54966371Y-93857829D01*
X54961181Y-93860473D01*
X54871473Y-93950181D01*
X54868829Y-93955371D01*
X54868827Y-93955373D01*
X54816523Y-94058025D01*
X54813877Y-94063219D01*
X54812966Y-94068971D01*
X54812965Y-94068974D01*
X54794942Y-94182771D01*
X54794031Y-94188523D01*
X46070500Y-94188523D01*
X46070500Y-93337741D01*
X46087813Y-93290175D01*
X46131650Y-93264865D01*
X46181500Y-93273655D01*
X46212233Y-93307938D01*
X46222605Y-93331510D01*
X46305639Y-93430291D01*
X46413060Y-93501796D01*
X46418092Y-93503368D01*
X46418094Y-93503369D01*
X46440401Y-93510338D01*
X46536233Y-93540278D01*
X46541501Y-93540375D01*
X46541504Y-93540375D01*
X46595552Y-93541365D01*
X46665255Y-93542643D01*
X46670338Y-93541257D01*
X46670340Y-93541257D01*
X46784671Y-93510086D01*
X46789755Y-93508700D01*
X46791537Y-93507606D01*
X66896067Y-93507606D01*
X66896750Y-93512829D01*
X66896750Y-93512832D01*
X66908918Y-93605878D01*
X66912799Y-93635560D01*
X66914922Y-93640385D01*
X66961768Y-93746850D01*
X66964771Y-93753676D01*
X67047805Y-93852457D01*
X67155226Y-93923962D01*
X67160258Y-93925534D01*
X67160260Y-93925535D01*
X67195880Y-93936663D01*
X67278399Y-93962444D01*
X67283667Y-93962541D01*
X67283670Y-93962541D01*
X67337718Y-93963531D01*
X67407421Y-93964809D01*
X67412504Y-93963423D01*
X67412506Y-93963423D01*
X67526837Y-93932252D01*
X67531921Y-93930866D01*
X67641890Y-93863345D01*
X67728488Y-93767673D01*
X67784754Y-93651541D01*
X67806163Y-93524286D01*
X67806299Y-93513166D01*
X67799119Y-93463029D01*
X67788752Y-93390638D01*
X67788751Y-93390635D01*
X67788005Y-93385425D01*
X67785058Y-93378943D01*
X67767097Y-93339440D01*
X68657234Y-93339440D01*
X68657917Y-93344663D01*
X68657917Y-93344666D01*
X68670899Y-93443937D01*
X68673966Y-93467394D01*
X68676089Y-93472219D01*
X68706036Y-93540278D01*
X68725938Y-93585510D01*
X68808972Y-93684291D01*
X68916393Y-93755796D01*
X68921425Y-93757368D01*
X68921427Y-93757369D01*
X68954409Y-93767673D01*
X69039566Y-93794278D01*
X69044834Y-93794375D01*
X69044837Y-93794375D01*
X69098885Y-93795365D01*
X69168588Y-93796643D01*
X69173671Y-93795257D01*
X69173673Y-93795257D01*
X69288004Y-93764086D01*
X69293088Y-93762700D01*
X69403057Y-93695179D01*
X69489655Y-93599507D01*
X69545921Y-93483375D01*
X69562400Y-93385425D01*
X69566855Y-93358944D01*
X69566855Y-93358943D01*
X69567330Y-93356120D01*
X69567466Y-93345000D01*
X69559883Y-93292050D01*
X69549919Y-93222472D01*
X69549918Y-93222469D01*
X69549172Y-93217259D01*
X69544580Y-93207159D01*
X69497943Y-93104586D01*
X69497941Y-93104583D01*
X69495761Y-93099788D01*
X69488336Y-93091170D01*
X69414966Y-93006020D01*
X69414965Y-93006019D01*
X69411526Y-93002028D01*
X69407107Y-92999164D01*
X69407105Y-92999162D01*
X69344277Y-92958440D01*
X75998901Y-92958440D01*
X75999584Y-92963663D01*
X75999584Y-92963666D01*
X76012776Y-93064543D01*
X76015633Y-93086394D01*
X76017756Y-93091219D01*
X76064367Y-93197150D01*
X76067605Y-93204510D01*
X76150639Y-93303291D01*
X76258060Y-93374796D01*
X76263092Y-93376368D01*
X76263094Y-93376369D01*
X76298714Y-93387497D01*
X76381233Y-93413278D01*
X76386501Y-93413375D01*
X76386504Y-93413375D01*
X76440552Y-93414365D01*
X76510255Y-93415643D01*
X76515338Y-93414257D01*
X76515340Y-93414257D01*
X76629671Y-93383086D01*
X76634755Y-93381700D01*
X76744724Y-93314179D01*
X76831322Y-93218507D01*
X76873425Y-93131607D01*
X83324222Y-93131607D01*
X83330908Y-93170516D01*
X83351469Y-93290175D01*
X83353673Y-93303004D01*
X83355355Y-93306957D01*
X83412468Y-93441179D01*
X83421765Y-93463029D01*
X83424310Y-93466487D01*
X83518710Y-93594763D01*
X83524843Y-93603097D01*
X83528114Y-93605876D01*
X83528116Y-93605878D01*
X83582347Y-93651950D01*
X83657380Y-93715695D01*
X83812265Y-93794783D01*
X83981190Y-93836119D01*
X83992167Y-93836800D01*
X84117547Y-93836800D01*
X84119672Y-93836552D01*
X84119676Y-93836552D01*
X84242468Y-93822236D01*
X84242469Y-93822236D01*
X84246739Y-93821738D01*
X84250781Y-93820271D01*
X84406166Y-93763869D01*
X84406169Y-93763868D01*
X84410212Y-93762400D01*
X84555650Y-93667047D01*
X84675251Y-93540793D01*
X84694528Y-93507606D01*
X84760441Y-93394127D01*
X84762599Y-93390412D01*
X84813010Y-93223969D01*
X84814674Y-93197150D01*
X84823512Y-93054687D01*
X84823512Y-93054684D01*
X84823778Y-93050393D01*
X84797054Y-92894866D01*
X84795055Y-92883231D01*
X84795054Y-92883229D01*
X84794327Y-92878996D01*
X84773875Y-92830932D01*
X84727917Y-92722923D01*
X84727915Y-92722920D01*
X84726235Y-92718971D01*
X84680448Y-92656753D01*
X84625703Y-92582362D01*
X84625701Y-92582360D01*
X84623157Y-92578903D01*
X84607046Y-92565215D01*
X84493897Y-92469089D01*
X84490620Y-92466305D01*
X84335735Y-92387217D01*
X84166810Y-92345881D01*
X84155833Y-92345200D01*
X84030453Y-92345200D01*
X84028328Y-92345448D01*
X84028324Y-92345448D01*
X83905532Y-92359764D01*
X83905531Y-92359764D01*
X83901261Y-92360262D01*
X83897220Y-92361729D01*
X83897219Y-92361729D01*
X83741834Y-92418131D01*
X83741831Y-92418132D01*
X83737788Y-92419600D01*
X83592350Y-92514953D01*
X83472749Y-92641207D01*
X83470593Y-92644918D01*
X83470592Y-92644920D01*
X83449805Y-92680708D01*
X83385401Y-92791588D01*
X83334990Y-92958031D01*
X83334724Y-92962316D01*
X83334724Y-92962317D01*
X83326151Y-93100516D01*
X83324222Y-93131607D01*
X76873425Y-93131607D01*
X76887588Y-93102375D01*
X76901002Y-93022644D01*
X76908522Y-92977944D01*
X76908522Y-92977943D01*
X76908997Y-92975120D01*
X76909133Y-92964000D01*
X76904600Y-92932350D01*
X76891586Y-92841472D01*
X76891585Y-92841469D01*
X76890839Y-92836259D01*
X76872399Y-92795702D01*
X76839610Y-92723586D01*
X76839608Y-92723583D01*
X76837428Y-92718788D01*
X76833690Y-92714449D01*
X76756633Y-92625020D01*
X76756632Y-92625019D01*
X76753193Y-92621028D01*
X76748774Y-92618164D01*
X76748772Y-92618162D01*
X76664944Y-92563829D01*
X76644906Y-92550841D01*
X76639857Y-92549331D01*
X76639855Y-92549330D01*
X76526326Y-92515377D01*
X76526325Y-92515377D01*
X76521273Y-92513866D01*
X76455771Y-92513466D01*
X76397501Y-92513110D01*
X76397500Y-92513110D01*
X76392231Y-92513078D01*
X76268155Y-92548539D01*
X76159019Y-92617399D01*
X76155531Y-92621348D01*
X76155529Y-92621350D01*
X76131300Y-92648785D01*
X76073596Y-92714122D01*
X76071357Y-92718891D01*
X76071355Y-92718894D01*
X76038970Y-92787873D01*
X76018754Y-92830932D01*
X75998901Y-92958440D01*
X69344277Y-92958440D01*
X69307662Y-92934708D01*
X69307663Y-92934708D01*
X69303239Y-92931841D01*
X69298190Y-92930331D01*
X69298188Y-92930330D01*
X69184659Y-92896377D01*
X69184658Y-92896377D01*
X69179606Y-92894866D01*
X69114104Y-92894466D01*
X69055834Y-92894110D01*
X69055833Y-92894110D01*
X69050564Y-92894078D01*
X68926488Y-92929539D01*
X68817352Y-92998399D01*
X68813864Y-93002348D01*
X68813862Y-93002350D01*
X68810621Y-93006020D01*
X68731929Y-93095122D01*
X68729690Y-93099891D01*
X68729688Y-93099894D01*
X68726295Y-93107122D01*
X68677087Y-93211932D01*
X68657234Y-93339440D01*
X67767097Y-93339440D01*
X67736776Y-93272752D01*
X67736774Y-93272749D01*
X67734594Y-93267954D01*
X67727169Y-93259336D01*
X67653799Y-93174186D01*
X67653798Y-93174185D01*
X67650359Y-93170194D01*
X67645940Y-93167330D01*
X67645938Y-93167328D01*
X67549689Y-93104944D01*
X67542072Y-93100007D01*
X67537023Y-93098497D01*
X67537021Y-93098496D01*
X67423492Y-93064543D01*
X67423491Y-93064543D01*
X67418439Y-93063032D01*
X67352937Y-93062632D01*
X67294667Y-93062276D01*
X67294666Y-93062276D01*
X67289397Y-93062244D01*
X67165321Y-93097705D01*
X67056185Y-93166565D01*
X67052697Y-93170514D01*
X67052695Y-93170516D01*
X67019109Y-93208545D01*
X66970762Y-93263288D01*
X66968523Y-93268057D01*
X66968521Y-93268060D01*
X66935009Y-93339440D01*
X66915920Y-93380098D01*
X66896067Y-93507606D01*
X46791537Y-93507606D01*
X46899724Y-93441179D01*
X46986322Y-93345507D01*
X47042588Y-93229375D01*
X47059759Y-93127313D01*
X47063522Y-93104944D01*
X47063522Y-93104943D01*
X47063997Y-93102120D01*
X47064133Y-93091000D01*
X47051963Y-93006020D01*
X47046586Y-92968472D01*
X47046585Y-92968469D01*
X47045945Y-92964000D01*
X64458008Y-92964000D01*
X64458919Y-92969752D01*
X64476942Y-93083549D01*
X64476943Y-93083552D01*
X64477854Y-93089304D01*
X64480499Y-93094495D01*
X64480500Y-93094498D01*
X64532804Y-93197150D01*
X64532806Y-93197152D01*
X64535450Y-93202342D01*
X64625158Y-93292050D01*
X64630348Y-93294694D01*
X64630350Y-93294696D01*
X64733002Y-93347000D01*
X64733005Y-93347001D01*
X64738196Y-93349646D01*
X64743948Y-93350557D01*
X64743951Y-93350558D01*
X64857748Y-93368581D01*
X64863500Y-93369492D01*
X64869252Y-93368581D01*
X64983049Y-93350558D01*
X64983052Y-93350557D01*
X64988804Y-93349646D01*
X64993995Y-93347001D01*
X64993998Y-93347000D01*
X65096650Y-93294696D01*
X65096652Y-93294694D01*
X65101842Y-93292050D01*
X65191550Y-93202342D01*
X65194194Y-93197152D01*
X65194196Y-93197150D01*
X65246500Y-93094498D01*
X65246501Y-93094495D01*
X65249146Y-93089304D01*
X65250057Y-93083552D01*
X65250058Y-93083549D01*
X65268081Y-92969752D01*
X65268992Y-92964000D01*
X65263305Y-92928091D01*
X65250058Y-92844451D01*
X65250057Y-92844448D01*
X65249146Y-92838696D01*
X65246500Y-92833502D01*
X65194196Y-92730850D01*
X65194194Y-92730848D01*
X65191550Y-92725658D01*
X65101842Y-92635950D01*
X65096652Y-92633306D01*
X65096650Y-92633304D01*
X64993998Y-92581000D01*
X64993995Y-92580999D01*
X64988804Y-92578354D01*
X64983052Y-92577443D01*
X64983049Y-92577442D01*
X64869252Y-92559419D01*
X64863500Y-92558508D01*
X64857748Y-92559419D01*
X64743951Y-92577442D01*
X64743948Y-92577443D01*
X64738196Y-92578354D01*
X64733005Y-92580999D01*
X64733002Y-92581000D01*
X64630350Y-92633304D01*
X64630348Y-92633306D01*
X64625158Y-92635950D01*
X64535450Y-92725658D01*
X64532806Y-92730848D01*
X64532804Y-92730850D01*
X64480500Y-92833502D01*
X64477854Y-92838696D01*
X64476943Y-92844448D01*
X64476942Y-92844451D01*
X64463695Y-92928091D01*
X64458008Y-92964000D01*
X47045945Y-92964000D01*
X47045839Y-92963259D01*
X47032858Y-92934708D01*
X46994610Y-92850586D01*
X46994608Y-92850583D01*
X46992428Y-92845788D01*
X46988710Y-92841472D01*
X46911633Y-92752020D01*
X46911632Y-92752019D01*
X46908193Y-92748028D01*
X46903774Y-92745164D01*
X46903772Y-92745162D01*
X46804329Y-92680708D01*
X46804330Y-92680708D01*
X46799906Y-92677841D01*
X46794857Y-92676331D01*
X46794855Y-92676330D01*
X46681326Y-92642377D01*
X46681325Y-92642377D01*
X46676273Y-92640866D01*
X46610771Y-92640466D01*
X46552501Y-92640110D01*
X46552500Y-92640110D01*
X46547231Y-92640078D01*
X46423155Y-92675539D01*
X46314019Y-92744399D01*
X46310531Y-92748348D01*
X46310529Y-92748350D01*
X46307288Y-92752020D01*
X46228596Y-92841122D01*
X46226357Y-92845891D01*
X46226355Y-92845894D01*
X46211485Y-92877567D01*
X46175598Y-92913267D01*
X46125160Y-92917546D01*
X46083772Y-92888404D01*
X46070500Y-92846118D01*
X46070500Y-91942440D01*
X52503901Y-91942440D01*
X52504584Y-91947663D01*
X52504584Y-91947666D01*
X52519466Y-92061468D01*
X52520633Y-92070394D01*
X52522756Y-92075219D01*
X52569367Y-92181150D01*
X52572605Y-92188510D01*
X52655639Y-92287291D01*
X52763060Y-92358796D01*
X52768092Y-92360368D01*
X52768094Y-92360369D01*
X52792773Y-92368079D01*
X52886233Y-92397278D01*
X52891501Y-92397375D01*
X52891504Y-92397375D01*
X52945552Y-92398365D01*
X53015255Y-92399643D01*
X53020338Y-92398257D01*
X53020340Y-92398257D01*
X53134671Y-92367086D01*
X53139755Y-92365700D01*
X53249724Y-92298179D01*
X53336322Y-92202507D01*
X53382105Y-92108012D01*
X59270300Y-92108012D01*
X59270983Y-92113235D01*
X59270983Y-92113238D01*
X59285555Y-92224669D01*
X59287032Y-92235966D01*
X59289155Y-92240791D01*
X59324236Y-92320518D01*
X59339004Y-92354082D01*
X59422038Y-92452863D01*
X59529459Y-92524368D01*
X59534491Y-92525940D01*
X59534493Y-92525941D01*
X59570113Y-92537069D01*
X59652632Y-92562850D01*
X59657900Y-92562947D01*
X59657903Y-92562947D01*
X59711951Y-92563937D01*
X59781654Y-92565215D01*
X59786737Y-92563829D01*
X59786739Y-92563829D01*
X59901070Y-92532658D01*
X59906154Y-92531272D01*
X60016123Y-92463751D01*
X60102721Y-92368079D01*
X60135214Y-92301014D01*
X61978901Y-92301014D01*
X61979584Y-92306237D01*
X61979584Y-92306240D01*
X61994717Y-92421960D01*
X61995633Y-92428968D01*
X61997756Y-92433793D01*
X62036325Y-92521447D01*
X62047605Y-92547084D01*
X62130639Y-92645865D01*
X62238060Y-92717370D01*
X62243092Y-92718942D01*
X62243094Y-92718943D01*
X62278714Y-92730071D01*
X62361233Y-92755852D01*
X62366501Y-92755949D01*
X62366504Y-92755949D01*
X62420552Y-92756939D01*
X62490255Y-92758217D01*
X62495338Y-92756831D01*
X62495340Y-92756831D01*
X62609671Y-92725660D01*
X62614755Y-92724274D01*
X62724724Y-92656753D01*
X62811322Y-92561081D01*
X62867588Y-92444949D01*
X62884358Y-92345270D01*
X62888522Y-92320518D01*
X62888522Y-92320517D01*
X62888997Y-92317694D01*
X62889133Y-92306574D01*
X62886790Y-92290211D01*
X62871586Y-92184046D01*
X62871585Y-92184043D01*
X62870839Y-92178833D01*
X62863619Y-92162954D01*
X62819610Y-92066160D01*
X62819608Y-92066157D01*
X62817428Y-92061362D01*
X62810003Y-92052744D01*
X62736633Y-91967594D01*
X62736632Y-91967593D01*
X62733193Y-91963602D01*
X62728774Y-91960738D01*
X62728772Y-91960736D01*
X62709122Y-91948000D01*
X74016508Y-91948000D01*
X74017419Y-91953752D01*
X74035442Y-92067549D01*
X74035443Y-92067552D01*
X74036354Y-92073304D01*
X74038999Y-92078495D01*
X74039000Y-92078498D01*
X74091304Y-92181150D01*
X74091306Y-92181152D01*
X74093950Y-92186342D01*
X74183658Y-92276050D01*
X74188848Y-92278694D01*
X74188850Y-92278696D01*
X74291502Y-92331000D01*
X74291505Y-92331001D01*
X74296696Y-92333646D01*
X74302448Y-92334557D01*
X74302451Y-92334558D01*
X74416248Y-92352581D01*
X74422000Y-92353492D01*
X74427752Y-92352581D01*
X74541549Y-92334558D01*
X74541552Y-92334557D01*
X74547304Y-92333646D01*
X74552495Y-92331001D01*
X74552498Y-92331000D01*
X74655150Y-92278696D01*
X74655152Y-92278694D01*
X74660342Y-92276050D01*
X74750050Y-92186342D01*
X74752694Y-92181152D01*
X74752696Y-92181150D01*
X74805000Y-92078498D01*
X74805001Y-92078495D01*
X74807646Y-92073304D01*
X74808557Y-92067552D01*
X74808558Y-92067549D01*
X74826581Y-91953752D01*
X74827492Y-91948000D01*
X74825042Y-91932531D01*
X74810232Y-91839023D01*
X82144508Y-91839023D01*
X82145419Y-91844775D01*
X82163442Y-91958572D01*
X82163443Y-91958575D01*
X82164354Y-91964327D01*
X82166999Y-91969518D01*
X82167000Y-91969521D01*
X82219304Y-92072173D01*
X82219306Y-92072175D01*
X82221950Y-92077365D01*
X82311658Y-92167073D01*
X82316848Y-92169717D01*
X82316850Y-92169719D01*
X82419502Y-92222023D01*
X82419505Y-92222024D01*
X82424696Y-92224669D01*
X82430448Y-92225580D01*
X82430451Y-92225581D01*
X82544248Y-92243604D01*
X82550000Y-92244515D01*
X82555752Y-92243604D01*
X82669549Y-92225581D01*
X82669552Y-92225580D01*
X82675304Y-92224669D01*
X82680495Y-92222024D01*
X82680498Y-92222023D01*
X82783150Y-92169719D01*
X82783152Y-92169717D01*
X82788342Y-92167073D01*
X82878050Y-92077365D01*
X82880694Y-92072175D01*
X82880696Y-92072173D01*
X82933000Y-91969521D01*
X82933001Y-91969518D01*
X82935646Y-91964327D01*
X82936557Y-91958575D01*
X82936558Y-91958572D01*
X82954581Y-91844775D01*
X82955492Y-91839023D01*
X82952502Y-91820142D01*
X82936558Y-91719474D01*
X82936557Y-91719471D01*
X82935646Y-91713719D01*
X82933000Y-91708525D01*
X82880696Y-91605873D01*
X82880694Y-91605871D01*
X82878050Y-91600681D01*
X82788342Y-91510973D01*
X82783152Y-91508329D01*
X82783150Y-91508327D01*
X82680498Y-91456023D01*
X82680495Y-91456022D01*
X82675304Y-91453377D01*
X82669552Y-91452466D01*
X82669549Y-91452465D01*
X82555752Y-91434442D01*
X82550000Y-91433531D01*
X82544248Y-91434442D01*
X82430451Y-91452465D01*
X82430448Y-91452466D01*
X82424696Y-91453377D01*
X82419505Y-91456022D01*
X82419502Y-91456023D01*
X82316850Y-91508327D01*
X82316848Y-91508329D01*
X82311658Y-91510973D01*
X82221950Y-91600681D01*
X82219306Y-91605871D01*
X82219304Y-91605873D01*
X82167000Y-91708525D01*
X82164354Y-91713719D01*
X82163443Y-91719471D01*
X82163442Y-91719474D01*
X82147498Y-91820142D01*
X82144508Y-91839023D01*
X74810232Y-91839023D01*
X74808558Y-91828451D01*
X74808557Y-91828448D01*
X74807646Y-91822696D01*
X74805000Y-91817502D01*
X74752696Y-91714850D01*
X74752694Y-91714848D01*
X74750050Y-91709658D01*
X74660342Y-91619950D01*
X74655152Y-91617306D01*
X74655150Y-91617304D01*
X74552498Y-91565000D01*
X74552495Y-91564999D01*
X74547304Y-91562354D01*
X74541552Y-91561443D01*
X74541549Y-91561442D01*
X74427752Y-91543419D01*
X74422000Y-91542508D01*
X74416248Y-91543419D01*
X74302451Y-91561442D01*
X74302448Y-91561443D01*
X74296696Y-91562354D01*
X74291505Y-91564999D01*
X74291502Y-91565000D01*
X74188850Y-91617304D01*
X74188848Y-91617306D01*
X74183658Y-91619950D01*
X74093950Y-91709658D01*
X74091306Y-91714848D01*
X74091304Y-91714850D01*
X74039000Y-91817502D01*
X74036354Y-91822696D01*
X74035443Y-91828448D01*
X74035442Y-91828451D01*
X74018958Y-91932531D01*
X74016508Y-91948000D01*
X62709122Y-91948000D01*
X62629329Y-91896282D01*
X62629330Y-91896282D01*
X62624906Y-91893415D01*
X62619857Y-91891905D01*
X62619855Y-91891904D01*
X62506326Y-91857951D01*
X62506325Y-91857951D01*
X62501273Y-91856440D01*
X62435771Y-91856040D01*
X62377501Y-91855684D01*
X62377500Y-91855684D01*
X62372231Y-91855652D01*
X62248155Y-91891113D01*
X62139019Y-91959973D01*
X62135531Y-91963922D01*
X62135529Y-91963924D01*
X62116285Y-91985714D01*
X62053596Y-92056696D01*
X62051357Y-92061465D01*
X62051355Y-92061468D01*
X62026893Y-92113572D01*
X61998754Y-92173506D01*
X61978901Y-92301014D01*
X60135214Y-92301014D01*
X60158987Y-92251947D01*
X60180396Y-92124692D01*
X60180532Y-92113572D01*
X60175347Y-92077365D01*
X60162985Y-91991044D01*
X60162984Y-91991041D01*
X60162238Y-91985831D01*
X60152461Y-91964327D01*
X60111009Y-91873158D01*
X60111007Y-91873155D01*
X60108827Y-91868360D01*
X60101402Y-91859742D01*
X60056152Y-91807227D01*
X61040235Y-91807227D01*
X61041146Y-91812979D01*
X61059169Y-91926776D01*
X61059170Y-91926779D01*
X61060081Y-91932531D01*
X61062726Y-91937722D01*
X61062727Y-91937725D01*
X61115031Y-92040377D01*
X61115033Y-92040379D01*
X61117677Y-92045569D01*
X61207385Y-92135277D01*
X61212575Y-92137921D01*
X61212577Y-92137923D01*
X61315229Y-92190227D01*
X61315232Y-92190228D01*
X61320423Y-92192873D01*
X61326175Y-92193784D01*
X61326178Y-92193785D01*
X61439975Y-92211808D01*
X61445727Y-92212719D01*
X61451479Y-92211808D01*
X61565276Y-92193785D01*
X61565279Y-92193784D01*
X61571031Y-92192873D01*
X61576222Y-92190228D01*
X61576225Y-92190227D01*
X61678877Y-92137923D01*
X61678879Y-92137921D01*
X61684069Y-92135277D01*
X61773777Y-92045569D01*
X61776421Y-92040379D01*
X61776423Y-92040377D01*
X61828727Y-91937725D01*
X61828728Y-91937722D01*
X61831373Y-91932531D01*
X61832284Y-91926779D01*
X61832285Y-91926776D01*
X61850308Y-91812979D01*
X61851219Y-91807227D01*
X61844398Y-91764159D01*
X61832285Y-91687678D01*
X61832284Y-91687675D01*
X61831373Y-91681923D01*
X61828727Y-91676729D01*
X61776423Y-91574077D01*
X61776421Y-91574075D01*
X61773777Y-91568885D01*
X61684069Y-91479177D01*
X61678879Y-91476533D01*
X61678877Y-91476531D01*
X61576225Y-91424227D01*
X61576222Y-91424226D01*
X61571031Y-91421581D01*
X61565279Y-91420670D01*
X61565276Y-91420669D01*
X61451479Y-91402646D01*
X61445727Y-91401735D01*
X61439975Y-91402646D01*
X61326178Y-91420669D01*
X61326175Y-91420670D01*
X61320423Y-91421581D01*
X61315232Y-91424226D01*
X61315229Y-91424227D01*
X61212577Y-91476531D01*
X61212575Y-91476533D01*
X61207385Y-91479177D01*
X61117677Y-91568885D01*
X61115033Y-91574075D01*
X61115031Y-91574077D01*
X61062727Y-91676729D01*
X61060081Y-91681923D01*
X61059170Y-91687675D01*
X61059169Y-91687678D01*
X61047056Y-91764159D01*
X61040235Y-91807227D01*
X60056152Y-91807227D01*
X60028032Y-91774592D01*
X60028031Y-91774591D01*
X60024592Y-91770600D01*
X60020173Y-91767736D01*
X60020171Y-91767734D01*
X59936834Y-91713719D01*
X59916305Y-91700413D01*
X59911256Y-91698903D01*
X59911254Y-91698902D01*
X59797725Y-91664949D01*
X59797724Y-91664949D01*
X59792672Y-91663438D01*
X59727170Y-91663038D01*
X59668900Y-91662682D01*
X59668899Y-91662682D01*
X59663630Y-91662650D01*
X59539554Y-91698111D01*
X59430418Y-91766971D01*
X59426930Y-91770920D01*
X59426928Y-91770922D01*
X59423687Y-91774592D01*
X59344995Y-91863694D01*
X59342756Y-91868463D01*
X59342754Y-91868466D01*
X59304070Y-91950862D01*
X59290153Y-91980504D01*
X59270300Y-92108012D01*
X53382105Y-92108012D01*
X53392588Y-92086375D01*
X53413997Y-91959120D01*
X53414133Y-91948000D01*
X53411918Y-91932531D01*
X53396586Y-91825472D01*
X53396585Y-91825469D01*
X53395839Y-91820259D01*
X53389914Y-91807227D01*
X53344610Y-91707586D01*
X53344608Y-91707583D01*
X53342428Y-91702788D01*
X53337151Y-91696663D01*
X53261633Y-91609020D01*
X53261632Y-91609019D01*
X53258193Y-91605028D01*
X53253774Y-91602164D01*
X53253772Y-91602162D01*
X53154329Y-91537708D01*
X53154330Y-91537708D01*
X53149906Y-91534841D01*
X53144857Y-91533331D01*
X53144855Y-91533330D01*
X53031326Y-91499377D01*
X53031325Y-91499377D01*
X53026273Y-91497866D01*
X52960771Y-91497466D01*
X52902501Y-91497110D01*
X52902500Y-91497110D01*
X52897231Y-91497078D01*
X52773155Y-91532539D01*
X52664019Y-91601399D01*
X52660531Y-91605348D01*
X52660529Y-91605350D01*
X52624845Y-91645755D01*
X52578596Y-91698122D01*
X52576357Y-91702891D01*
X52576355Y-91702894D01*
X52532892Y-91795469D01*
X52523754Y-91814932D01*
X52503901Y-91942440D01*
X46070500Y-91942440D01*
X46070500Y-90520000D01*
X50284534Y-90520000D01*
X50285167Y-90524808D01*
X50301991Y-90652595D01*
X50304313Y-90670236D01*
X50362302Y-90810233D01*
X50454549Y-90930451D01*
X50574767Y-91022698D01*
X50714764Y-91080687D01*
X50719566Y-91081319D01*
X50719569Y-91081320D01*
X50802180Y-91092195D01*
X50827280Y-91095500D01*
X50902720Y-91095500D01*
X50927820Y-91092195D01*
X51010431Y-91081320D01*
X51010434Y-91081319D01*
X51015236Y-91080687D01*
X51155233Y-91022698D01*
X51275451Y-90930451D01*
X51367698Y-90810233D01*
X51425687Y-90670236D01*
X51428010Y-90652595D01*
X51444833Y-90524808D01*
X51445466Y-90520000D01*
X51442434Y-90496968D01*
X51426320Y-90374569D01*
X51426319Y-90374566D01*
X51425687Y-90369764D01*
X51367698Y-90229767D01*
X51275451Y-90109549D01*
X51242180Y-90084019D01*
X57755444Y-90084019D01*
X57756355Y-90089771D01*
X57774378Y-90203568D01*
X57774379Y-90203571D01*
X57775290Y-90209323D01*
X57777935Y-90214514D01*
X57777936Y-90214517D01*
X57830240Y-90317169D01*
X57830242Y-90317171D01*
X57832886Y-90322361D01*
X57869581Y-90359056D01*
X57890973Y-90404932D01*
X57877872Y-90453827D01*
X57869583Y-90463705D01*
X57838130Y-90495158D01*
X57835486Y-90500348D01*
X57835484Y-90500350D01*
X57787509Y-90594506D01*
X57780534Y-90608196D01*
X57779623Y-90613948D01*
X57779622Y-90613951D01*
X57765920Y-90700464D01*
X57760688Y-90733500D01*
X57761599Y-90739252D01*
X57779622Y-90853049D01*
X57779623Y-90853052D01*
X57780534Y-90858804D01*
X57783179Y-90863995D01*
X57783180Y-90863998D01*
X57835484Y-90966650D01*
X57835486Y-90966652D01*
X57838130Y-90971842D01*
X57927838Y-91061550D01*
X57933028Y-91064194D01*
X57933030Y-91064196D01*
X58035682Y-91116500D01*
X58035685Y-91116501D01*
X58040876Y-91119146D01*
X58046628Y-91120057D01*
X58046631Y-91120058D01*
X58160428Y-91138081D01*
X58166180Y-91138992D01*
X58171932Y-91138081D01*
X58285729Y-91120058D01*
X58285732Y-91120057D01*
X58291484Y-91119146D01*
X58296675Y-91116501D01*
X58296678Y-91116500D01*
X58399330Y-91064196D01*
X58399332Y-91064194D01*
X58404522Y-91061550D01*
X58460468Y-91005604D01*
X58506344Y-90984212D01*
X58555239Y-90997313D01*
X58571192Y-91012990D01*
X58572849Y-91016241D01*
X58662557Y-91105949D01*
X58667747Y-91108593D01*
X58667749Y-91108595D01*
X58770401Y-91160899D01*
X58770404Y-91160900D01*
X58775595Y-91163545D01*
X58781347Y-91164456D01*
X58781350Y-91164457D01*
X58895147Y-91182480D01*
X58900899Y-91183391D01*
X58906651Y-91182480D01*
X59020448Y-91164457D01*
X59020451Y-91164456D01*
X59026203Y-91163545D01*
X59031394Y-91160900D01*
X59031397Y-91160899D01*
X59134049Y-91108595D01*
X59134051Y-91108593D01*
X59139241Y-91105949D01*
X59228949Y-91016241D01*
X59231593Y-91011051D01*
X59231595Y-91011049D01*
X59283899Y-90908397D01*
X59283900Y-90908394D01*
X59286545Y-90903203D01*
X59287456Y-90897451D01*
X59287457Y-90897448D01*
X59298545Y-90827440D01*
X79145901Y-90827440D01*
X79146584Y-90832663D01*
X79146584Y-90832666D01*
X79159758Y-90933406D01*
X79162633Y-90955394D01*
X79164756Y-90960219D01*
X79209343Y-91061550D01*
X79214605Y-91073510D01*
X79297639Y-91172291D01*
X79405060Y-91243796D01*
X79410092Y-91245368D01*
X79410094Y-91245369D01*
X79445714Y-91256497D01*
X79528233Y-91282278D01*
X79533501Y-91282375D01*
X79533504Y-91282375D01*
X79587552Y-91283365D01*
X79657255Y-91284643D01*
X79662338Y-91283257D01*
X79662340Y-91283257D01*
X79776671Y-91252086D01*
X79781755Y-91250700D01*
X79891724Y-91183179D01*
X79978322Y-91087507D01*
X80034588Y-90971375D01*
X80055997Y-90844120D01*
X80056133Y-90833000D01*
X80047418Y-90772147D01*
X80038586Y-90710472D01*
X80038585Y-90710469D01*
X80037839Y-90705259D01*
X80020974Y-90668167D01*
X79986610Y-90592586D01*
X79986608Y-90592583D01*
X79984428Y-90587788D01*
X79977003Y-90579170D01*
X79947939Y-90545440D01*
X85142901Y-90545440D01*
X85143584Y-90550663D01*
X85143584Y-90550666D01*
X85158592Y-90665431D01*
X85159633Y-90673394D01*
X85211605Y-90791510D01*
X85294639Y-90890291D01*
X85402060Y-90961796D01*
X85407092Y-90963368D01*
X85407094Y-90963369D01*
X85432720Y-90971375D01*
X85525233Y-91000278D01*
X85530501Y-91000375D01*
X85530504Y-91000375D01*
X85584552Y-91001365D01*
X85654255Y-91002643D01*
X85659338Y-91001257D01*
X85659340Y-91001257D01*
X85773671Y-90970086D01*
X85778755Y-90968700D01*
X85888724Y-90901179D01*
X85975322Y-90805507D01*
X86031588Y-90689375D01*
X86046119Y-90603002D01*
X86052522Y-90564944D01*
X86052522Y-90564943D01*
X86052997Y-90562120D01*
X86053133Y-90551000D01*
X86049382Y-90524808D01*
X86035586Y-90428472D01*
X86035585Y-90428469D01*
X86034839Y-90423259D01*
X86026506Y-90404932D01*
X85983610Y-90310586D01*
X85983608Y-90310583D01*
X85981428Y-90305788D01*
X85975580Y-90299000D01*
X85900633Y-90212020D01*
X85900632Y-90212019D01*
X85897193Y-90208028D01*
X85892774Y-90205164D01*
X85892772Y-90205162D01*
X85793329Y-90140708D01*
X85793330Y-90140708D01*
X85788906Y-90137841D01*
X85783857Y-90136331D01*
X85783855Y-90136330D01*
X85670326Y-90102377D01*
X85670325Y-90102377D01*
X85665273Y-90100866D01*
X85599771Y-90100466D01*
X85541501Y-90100110D01*
X85541500Y-90100110D01*
X85536231Y-90100078D01*
X85412155Y-90135539D01*
X85303019Y-90204399D01*
X85299531Y-90208348D01*
X85299529Y-90208350D01*
X85276659Y-90234246D01*
X85217596Y-90301122D01*
X85215357Y-90305891D01*
X85215355Y-90305894D01*
X85190396Y-90359056D01*
X85162754Y-90417932D01*
X85142901Y-90545440D01*
X79947939Y-90545440D01*
X79903633Y-90494020D01*
X79903632Y-90494019D01*
X79900193Y-90490028D01*
X79895774Y-90487164D01*
X79895772Y-90487162D01*
X79796329Y-90422708D01*
X79796330Y-90422708D01*
X79791906Y-90419841D01*
X79786857Y-90418331D01*
X79786855Y-90418330D01*
X79673326Y-90384377D01*
X79673325Y-90384377D01*
X79668273Y-90382866D01*
X79602771Y-90382466D01*
X79544501Y-90382110D01*
X79544500Y-90382110D01*
X79539231Y-90382078D01*
X79415155Y-90417539D01*
X79306019Y-90486399D01*
X79302531Y-90490348D01*
X79302529Y-90490350D01*
X79272097Y-90524808D01*
X79220596Y-90583122D01*
X79218357Y-90587891D01*
X79218355Y-90587894D01*
X79177594Y-90674714D01*
X79165754Y-90699932D01*
X79145901Y-90827440D01*
X59298545Y-90827440D01*
X59305480Y-90783651D01*
X59306391Y-90777899D01*
X59294127Y-90700464D01*
X59287457Y-90658350D01*
X59287456Y-90658347D01*
X59286545Y-90652595D01*
X59266855Y-90613951D01*
X59231595Y-90544749D01*
X59231593Y-90544747D01*
X59228949Y-90539557D01*
X59139241Y-90449849D01*
X59134051Y-90447205D01*
X59134049Y-90447203D01*
X59031397Y-90394899D01*
X59031394Y-90394898D01*
X59026203Y-90392253D01*
X59020451Y-90391342D01*
X59020448Y-90391341D01*
X58906651Y-90373318D01*
X58900899Y-90372407D01*
X58895147Y-90373318D01*
X58781350Y-90391341D01*
X58781347Y-90391342D01*
X58775595Y-90392253D01*
X58770404Y-90394898D01*
X58770401Y-90394899D01*
X58667749Y-90447203D01*
X58667747Y-90447205D01*
X58662557Y-90449849D01*
X58606611Y-90505795D01*
X58560735Y-90527187D01*
X58511840Y-90514086D01*
X58495887Y-90498409D01*
X58494230Y-90495158D01*
X58457536Y-90458464D01*
X58436144Y-90412588D01*
X58449245Y-90363693D01*
X58457535Y-90353813D01*
X58484870Y-90326478D01*
X58488986Y-90322361D01*
X58491630Y-90317171D01*
X58491632Y-90317169D01*
X58543936Y-90214517D01*
X58543937Y-90214514D01*
X58546582Y-90209323D01*
X58547493Y-90203571D01*
X58547494Y-90203568D01*
X58565517Y-90089771D01*
X58566428Y-90084019D01*
X58555861Y-90017302D01*
X58547494Y-89964470D01*
X58547493Y-89964467D01*
X58546582Y-89958715D01*
X58539501Y-89944817D01*
X58524818Y-89916000D01*
X71476508Y-89916000D01*
X71477419Y-89921752D01*
X71495442Y-90035549D01*
X71495443Y-90035552D01*
X71496354Y-90041304D01*
X71498999Y-90046495D01*
X71499000Y-90046498D01*
X71551304Y-90149150D01*
X71551306Y-90149152D01*
X71553950Y-90154342D01*
X71643658Y-90244050D01*
X71648848Y-90246694D01*
X71648850Y-90246696D01*
X71751502Y-90299000D01*
X71751505Y-90299001D01*
X71756696Y-90301646D01*
X71762448Y-90302557D01*
X71762451Y-90302558D01*
X71876248Y-90320581D01*
X71882000Y-90321492D01*
X71887752Y-90320581D01*
X72001549Y-90302558D01*
X72001552Y-90302557D01*
X72007304Y-90301646D01*
X72012495Y-90299001D01*
X72012498Y-90299000D01*
X72115150Y-90246696D01*
X72115152Y-90246694D01*
X72120342Y-90244050D01*
X72210050Y-90154342D01*
X72212694Y-90149152D01*
X72212696Y-90149150D01*
X72265000Y-90046498D01*
X72265001Y-90046495D01*
X72267646Y-90041304D01*
X72268557Y-90035552D01*
X72268558Y-90035549D01*
X72286581Y-89921752D01*
X72287492Y-89916000D01*
X74905508Y-89916000D01*
X74906419Y-89921752D01*
X74924442Y-90035549D01*
X74924443Y-90035552D01*
X74925354Y-90041304D01*
X74927999Y-90046495D01*
X74928000Y-90046498D01*
X74980304Y-90149150D01*
X74980306Y-90149152D01*
X74982950Y-90154342D01*
X75072658Y-90244050D01*
X75077848Y-90246694D01*
X75077850Y-90246696D01*
X75180502Y-90299000D01*
X75180505Y-90299001D01*
X75185696Y-90301646D01*
X75191448Y-90302557D01*
X75191451Y-90302558D01*
X75305248Y-90320581D01*
X75311000Y-90321492D01*
X75316752Y-90320581D01*
X75430549Y-90302558D01*
X75430552Y-90302557D01*
X75436304Y-90301646D01*
X75441495Y-90299001D01*
X75441498Y-90299000D01*
X75544150Y-90246696D01*
X75544152Y-90246694D01*
X75549342Y-90244050D01*
X75639050Y-90154342D01*
X75641694Y-90149152D01*
X75641696Y-90149150D01*
X75694000Y-90046498D01*
X75694001Y-90046495D01*
X75696646Y-90041304D01*
X75697557Y-90035552D01*
X75697558Y-90035549D01*
X75715581Y-89921752D01*
X75716492Y-89916000D01*
X75715581Y-89910248D01*
X75697558Y-89796451D01*
X75697557Y-89796448D01*
X75696646Y-89790696D01*
X75694000Y-89785502D01*
X75641696Y-89682850D01*
X75641694Y-89682848D01*
X75639050Y-89677658D01*
X75549342Y-89587950D01*
X75544152Y-89585306D01*
X75544150Y-89585304D01*
X75441498Y-89533000D01*
X75441495Y-89532999D01*
X75436304Y-89530354D01*
X75430552Y-89529443D01*
X75430549Y-89529442D01*
X75316752Y-89511419D01*
X75311000Y-89510508D01*
X75305248Y-89511419D01*
X75191451Y-89529442D01*
X75191448Y-89529443D01*
X75185696Y-89530354D01*
X75180505Y-89532999D01*
X75180502Y-89533000D01*
X75077850Y-89585304D01*
X75077848Y-89585306D01*
X75072658Y-89587950D01*
X74982950Y-89677658D01*
X74980306Y-89682848D01*
X74980304Y-89682850D01*
X74928000Y-89785502D01*
X74925354Y-89790696D01*
X74924443Y-89796448D01*
X74924442Y-89796451D01*
X74906419Y-89910248D01*
X74905508Y-89916000D01*
X72287492Y-89916000D01*
X72286581Y-89910248D01*
X72268558Y-89796451D01*
X72268557Y-89796448D01*
X72267646Y-89790696D01*
X72265000Y-89785502D01*
X72212696Y-89682850D01*
X72212694Y-89682848D01*
X72210050Y-89677658D01*
X72120342Y-89587950D01*
X72115152Y-89585306D01*
X72115150Y-89585304D01*
X72012498Y-89533000D01*
X72012495Y-89532999D01*
X72007304Y-89530354D01*
X72001552Y-89529443D01*
X72001549Y-89529442D01*
X71887752Y-89511419D01*
X71882000Y-89510508D01*
X71876248Y-89511419D01*
X71762451Y-89529442D01*
X71762448Y-89529443D01*
X71756696Y-89530354D01*
X71751505Y-89532999D01*
X71751502Y-89533000D01*
X71648850Y-89585304D01*
X71648848Y-89585306D01*
X71643658Y-89587950D01*
X71553950Y-89677658D01*
X71551306Y-89682848D01*
X71551304Y-89682850D01*
X71499000Y-89785502D01*
X71496354Y-89790696D01*
X71495443Y-89796448D01*
X71495442Y-89796451D01*
X71477419Y-89910248D01*
X71476508Y-89916000D01*
X58524818Y-89916000D01*
X58491632Y-89850869D01*
X58491630Y-89850867D01*
X58488986Y-89845677D01*
X58399278Y-89755969D01*
X58394088Y-89753325D01*
X58394086Y-89753323D01*
X58291434Y-89701019D01*
X58291431Y-89701018D01*
X58286240Y-89698373D01*
X58280488Y-89697462D01*
X58280485Y-89697461D01*
X58166688Y-89679438D01*
X58160936Y-89678527D01*
X58155184Y-89679438D01*
X58041387Y-89697461D01*
X58041384Y-89697462D01*
X58035632Y-89698373D01*
X58030441Y-89701018D01*
X58030438Y-89701019D01*
X57927786Y-89753323D01*
X57927784Y-89753325D01*
X57922594Y-89755969D01*
X57832886Y-89845677D01*
X57830242Y-89850867D01*
X57830240Y-89850869D01*
X57782371Y-89944817D01*
X57775290Y-89958715D01*
X57774379Y-89964467D01*
X57774378Y-89964470D01*
X57766011Y-90017302D01*
X57755444Y-90084019D01*
X51242180Y-90084019D01*
X51155233Y-90017302D01*
X51015236Y-89959313D01*
X51010434Y-89958681D01*
X51010431Y-89958680D01*
X50927820Y-89947805D01*
X50902720Y-89944500D01*
X50827280Y-89944500D01*
X50802180Y-89947805D01*
X50719569Y-89958680D01*
X50719566Y-89958681D01*
X50714764Y-89959313D01*
X50574767Y-90017302D01*
X50454549Y-90109549D01*
X50362302Y-90229767D01*
X50304313Y-90369764D01*
X50303681Y-90374566D01*
X50303680Y-90374569D01*
X50287566Y-90496968D01*
X50284534Y-90520000D01*
X46070500Y-90520000D01*
X46070500Y-89403479D01*
X52429695Y-89403479D01*
X52430606Y-89409231D01*
X52448629Y-89523028D01*
X52448630Y-89523031D01*
X52449541Y-89528783D01*
X52452186Y-89533974D01*
X52452187Y-89533977D01*
X52504491Y-89636629D01*
X52504493Y-89636631D01*
X52507137Y-89641821D01*
X52596845Y-89731529D01*
X52602035Y-89734173D01*
X52602037Y-89734175D01*
X52704689Y-89786479D01*
X52704692Y-89786480D01*
X52709883Y-89789125D01*
X52715635Y-89790036D01*
X52715638Y-89790037D01*
X52829435Y-89808060D01*
X52835187Y-89808971D01*
X52840939Y-89808060D01*
X52954736Y-89790037D01*
X52954739Y-89790036D01*
X52960491Y-89789125D01*
X52965682Y-89786480D01*
X52965685Y-89786479D01*
X53068337Y-89734175D01*
X53068339Y-89734173D01*
X53073529Y-89731529D01*
X53163237Y-89641821D01*
X53165881Y-89636631D01*
X53165883Y-89636629D01*
X53218187Y-89533977D01*
X53218188Y-89533974D01*
X53220833Y-89528783D01*
X53221744Y-89523031D01*
X53221745Y-89523028D01*
X53239768Y-89409231D01*
X53240679Y-89403479D01*
X53225160Y-89305492D01*
X53221745Y-89283930D01*
X53221744Y-89283927D01*
X53220833Y-89278175D01*
X53215399Y-89267510D01*
X53165883Y-89170329D01*
X53165881Y-89170327D01*
X53163237Y-89165137D01*
X53073529Y-89075429D01*
X53068339Y-89072785D01*
X53068337Y-89072783D01*
X52967571Y-89021440D01*
X55424901Y-89021440D01*
X55425584Y-89026663D01*
X55425584Y-89026666D01*
X55440188Y-89138342D01*
X55441633Y-89149394D01*
X55443756Y-89154219D01*
X55477407Y-89230696D01*
X55493605Y-89267510D01*
X55576639Y-89366291D01*
X55684060Y-89437796D01*
X55689092Y-89439368D01*
X55689094Y-89439369D01*
X55721122Y-89449375D01*
X55807233Y-89476278D01*
X55812501Y-89476375D01*
X55812504Y-89476375D01*
X55866552Y-89477365D01*
X55936255Y-89478643D01*
X55941338Y-89477257D01*
X55941340Y-89477257D01*
X56035559Y-89451569D01*
X56060755Y-89444700D01*
X56170724Y-89377179D01*
X56257322Y-89281507D01*
X56313588Y-89165375D01*
X56329165Y-89072783D01*
X56334522Y-89040944D01*
X56334522Y-89040943D01*
X56334997Y-89038120D01*
X56335133Y-89027000D01*
X56333591Y-89016234D01*
X56317586Y-88904472D01*
X56317585Y-88904469D01*
X56316945Y-88900000D01*
X73762508Y-88900000D01*
X73763419Y-88905752D01*
X73781442Y-89019549D01*
X73781443Y-89019552D01*
X73782354Y-89025304D01*
X73784999Y-89030495D01*
X73785000Y-89030498D01*
X73837304Y-89133150D01*
X73837306Y-89133152D01*
X73839950Y-89138342D01*
X73929658Y-89228050D01*
X73934848Y-89230694D01*
X73934850Y-89230696D01*
X74037502Y-89283000D01*
X74037505Y-89283001D01*
X74042696Y-89285646D01*
X74048448Y-89286557D01*
X74048451Y-89286558D01*
X74162248Y-89304581D01*
X74168000Y-89305492D01*
X74173752Y-89304581D01*
X74287549Y-89286558D01*
X74287552Y-89286557D01*
X74293304Y-89285646D01*
X74298495Y-89283001D01*
X74298498Y-89283000D01*
X74401150Y-89230696D01*
X74401152Y-89230694D01*
X74406342Y-89228050D01*
X74496050Y-89138342D01*
X74498694Y-89133152D01*
X74498696Y-89133150D01*
X74548227Y-89035940D01*
X80451151Y-89035940D01*
X80451834Y-89041163D01*
X80451834Y-89041166D01*
X80466618Y-89154219D01*
X80467883Y-89163894D01*
X80519855Y-89282010D01*
X80602889Y-89380791D01*
X80710310Y-89452296D01*
X80715342Y-89453868D01*
X80715344Y-89453869D01*
X80750964Y-89464997D01*
X80833483Y-89490778D01*
X80838751Y-89490875D01*
X80838754Y-89490875D01*
X80892802Y-89491865D01*
X80962505Y-89493143D01*
X80967588Y-89491757D01*
X80967590Y-89491757D01*
X81081921Y-89460586D01*
X81087005Y-89459200D01*
X81196974Y-89391679D01*
X81283572Y-89296007D01*
X81339838Y-89179875D01*
X81361247Y-89052620D01*
X81361383Y-89041500D01*
X81355282Y-88998898D01*
X81343836Y-88918972D01*
X81343835Y-88918969D01*
X81343089Y-88913759D01*
X81340667Y-88908432D01*
X81291860Y-88801086D01*
X81291858Y-88801083D01*
X81289678Y-88796288D01*
X81286034Y-88792058D01*
X81208883Y-88702520D01*
X81208882Y-88702519D01*
X81205443Y-88698528D01*
X81201024Y-88695664D01*
X81201022Y-88695662D01*
X81101579Y-88631208D01*
X81101580Y-88631208D01*
X81097156Y-88628341D01*
X81092107Y-88626831D01*
X81092105Y-88626830D01*
X80978576Y-88592877D01*
X80978575Y-88592877D01*
X80973523Y-88591366D01*
X80908021Y-88590966D01*
X80849751Y-88590610D01*
X80849750Y-88590610D01*
X80844481Y-88590578D01*
X80720405Y-88626039D01*
X80611269Y-88694899D01*
X80607781Y-88698848D01*
X80607779Y-88698850D01*
X80574797Y-88736196D01*
X80525846Y-88791622D01*
X80523607Y-88796391D01*
X80523605Y-88796394D01*
X80480142Y-88888969D01*
X80471004Y-88908432D01*
X80451151Y-89035940D01*
X74548227Y-89035940D01*
X74551000Y-89030498D01*
X74551001Y-89030495D01*
X74553646Y-89025304D01*
X74554557Y-89019552D01*
X74554558Y-89019549D01*
X74572581Y-88905752D01*
X74573492Y-88900000D01*
X74559395Y-88810992D01*
X74554558Y-88780451D01*
X74554557Y-88780448D01*
X74553646Y-88774696D01*
X74551000Y-88769502D01*
X74498696Y-88666850D01*
X74498694Y-88666848D01*
X74496050Y-88661658D01*
X74406342Y-88571950D01*
X74401152Y-88569306D01*
X74401150Y-88569304D01*
X74298498Y-88517000D01*
X74298495Y-88516999D01*
X74293304Y-88514354D01*
X74287552Y-88513443D01*
X74287549Y-88513442D01*
X74173752Y-88495419D01*
X74168000Y-88494508D01*
X74162248Y-88495419D01*
X74048451Y-88513442D01*
X74048448Y-88513443D01*
X74042696Y-88514354D01*
X74037505Y-88516999D01*
X74037502Y-88517000D01*
X73934850Y-88569304D01*
X73934848Y-88569306D01*
X73929658Y-88571950D01*
X73839950Y-88661658D01*
X73837306Y-88666848D01*
X73837304Y-88666850D01*
X73785000Y-88769502D01*
X73782354Y-88774696D01*
X73781443Y-88780448D01*
X73781442Y-88780451D01*
X73776605Y-88810992D01*
X73762508Y-88900000D01*
X56316945Y-88900000D01*
X56316839Y-88899259D01*
X56312247Y-88889159D01*
X56265610Y-88786586D01*
X56265608Y-88786583D01*
X56263428Y-88781788D01*
X56257318Y-88774696D01*
X56182633Y-88688020D01*
X56182632Y-88688019D01*
X56179193Y-88684028D01*
X56174774Y-88681164D01*
X56174772Y-88681162D01*
X56090946Y-88626830D01*
X56070906Y-88613841D01*
X56065857Y-88612331D01*
X56065855Y-88612330D01*
X55952326Y-88578377D01*
X55952325Y-88578377D01*
X55947273Y-88576866D01*
X55881771Y-88576466D01*
X55823501Y-88576110D01*
X55823500Y-88576110D01*
X55818231Y-88576078D01*
X55694155Y-88611539D01*
X55585019Y-88680399D01*
X55581531Y-88684348D01*
X55581529Y-88684350D01*
X55565482Y-88702520D01*
X55499596Y-88777122D01*
X55497357Y-88781891D01*
X55497355Y-88781894D01*
X55483694Y-88810992D01*
X55444754Y-88893932D01*
X55424901Y-89021440D01*
X52967571Y-89021440D01*
X52965685Y-89020479D01*
X52965682Y-89020478D01*
X52960491Y-89017833D01*
X52954739Y-89016922D01*
X52954736Y-89016921D01*
X52840939Y-88998898D01*
X52835187Y-88997987D01*
X52829435Y-88998898D01*
X52715638Y-89016921D01*
X52715635Y-89016922D01*
X52709883Y-89017833D01*
X52704692Y-89020478D01*
X52704689Y-89020479D01*
X52602037Y-89072783D01*
X52602035Y-89072785D01*
X52596845Y-89075429D01*
X52507137Y-89165137D01*
X52504493Y-89170327D01*
X52504491Y-89170329D01*
X52454975Y-89267510D01*
X52449541Y-89278175D01*
X52448630Y-89283927D01*
X52448629Y-89283930D01*
X52445214Y-89305492D01*
X52429695Y-89403479D01*
X46070500Y-89403479D01*
X46070500Y-88405500D01*
X58490758Y-88405500D01*
X58491669Y-88411252D01*
X58509692Y-88525049D01*
X58509693Y-88525052D01*
X58510604Y-88530804D01*
X58513249Y-88535995D01*
X58513250Y-88535998D01*
X58565554Y-88638650D01*
X58565556Y-88638652D01*
X58568200Y-88643842D01*
X58657908Y-88733550D01*
X58663098Y-88736194D01*
X58663100Y-88736196D01*
X58765752Y-88788500D01*
X58765755Y-88788501D01*
X58770946Y-88791146D01*
X58776698Y-88792057D01*
X58776701Y-88792058D01*
X58890498Y-88810081D01*
X58896250Y-88810992D01*
X58902002Y-88810081D01*
X59015799Y-88792058D01*
X59015802Y-88792057D01*
X59021554Y-88791146D01*
X59026745Y-88788501D01*
X59026748Y-88788500D01*
X59129400Y-88736196D01*
X59129402Y-88736194D01*
X59134592Y-88733550D01*
X59224300Y-88643842D01*
X59226944Y-88638652D01*
X59226946Y-88638650D01*
X59279250Y-88535998D01*
X59279251Y-88535995D01*
X59281896Y-88530804D01*
X59282807Y-88525052D01*
X59282808Y-88525049D01*
X59300831Y-88411252D01*
X59301742Y-88405500D01*
X59300831Y-88399748D01*
X59282808Y-88285951D01*
X59282807Y-88285948D01*
X59281896Y-88280196D01*
X59279250Y-88275002D01*
X59226946Y-88172350D01*
X59226944Y-88172348D01*
X59224300Y-88167158D01*
X59134592Y-88077450D01*
X59129402Y-88074806D01*
X59129400Y-88074804D01*
X59026748Y-88022500D01*
X59026745Y-88022499D01*
X59021554Y-88019854D01*
X59015802Y-88018943D01*
X59015799Y-88018942D01*
X58902002Y-88000919D01*
X58896250Y-88000008D01*
X58890498Y-88000919D01*
X58776701Y-88018942D01*
X58776698Y-88018943D01*
X58770946Y-88019854D01*
X58765755Y-88022499D01*
X58765752Y-88022500D01*
X58663100Y-88074804D01*
X58663098Y-88074806D01*
X58657908Y-88077450D01*
X58568200Y-88167158D01*
X58565556Y-88172348D01*
X58565554Y-88172350D01*
X58513250Y-88275002D01*
X58510604Y-88280196D01*
X58509693Y-88285948D01*
X58509692Y-88285951D01*
X58491669Y-88399748D01*
X58490758Y-88405500D01*
X46070500Y-88405500D01*
X46070500Y-87342500D01*
X69571508Y-87342500D01*
X69572419Y-87348252D01*
X69590442Y-87462049D01*
X69590443Y-87462052D01*
X69591354Y-87467804D01*
X69593999Y-87472995D01*
X69594000Y-87472998D01*
X69646304Y-87575650D01*
X69646306Y-87575652D01*
X69648950Y-87580842D01*
X69738658Y-87670550D01*
X69743848Y-87673194D01*
X69743850Y-87673196D01*
X69846502Y-87725500D01*
X69846505Y-87725501D01*
X69851696Y-87728146D01*
X69857448Y-87729057D01*
X69857451Y-87729058D01*
X69971248Y-87747081D01*
X69977000Y-87747992D01*
X69982752Y-87747081D01*
X70096549Y-87729058D01*
X70096552Y-87729057D01*
X70102304Y-87728146D01*
X70107495Y-87725501D01*
X70107498Y-87725500D01*
X70210150Y-87673196D01*
X70210152Y-87673194D01*
X70215342Y-87670550D01*
X70305050Y-87580842D01*
X70307694Y-87575652D01*
X70307696Y-87575650D01*
X70360000Y-87472998D01*
X70360001Y-87472995D01*
X70362646Y-87467804D01*
X70363557Y-87462052D01*
X70363558Y-87462049D01*
X70379324Y-87362500D01*
X70587508Y-87362500D01*
X70588419Y-87368252D01*
X70606442Y-87482049D01*
X70606443Y-87482052D01*
X70607354Y-87487804D01*
X70609999Y-87492995D01*
X70610000Y-87492998D01*
X70662304Y-87595650D01*
X70662306Y-87595652D01*
X70664950Y-87600842D01*
X70754658Y-87690550D01*
X70759848Y-87693194D01*
X70759850Y-87693196D01*
X70862502Y-87745500D01*
X70862505Y-87745501D01*
X70867696Y-87748146D01*
X70873448Y-87749057D01*
X70873451Y-87749058D01*
X70987248Y-87767081D01*
X70993000Y-87767992D01*
X70998752Y-87767081D01*
X71112549Y-87749058D01*
X71112552Y-87749057D01*
X71118304Y-87748146D01*
X71123495Y-87745501D01*
X71123498Y-87745500D01*
X71226150Y-87693196D01*
X71226152Y-87693194D01*
X71231342Y-87690550D01*
X71321050Y-87600842D01*
X71323694Y-87595652D01*
X71323696Y-87595650D01*
X71376000Y-87492998D01*
X71376001Y-87492995D01*
X71378646Y-87487804D01*
X71379557Y-87482052D01*
X71379558Y-87482049D01*
X71396354Y-87376000D01*
X75286508Y-87376000D01*
X75287419Y-87381752D01*
X75305442Y-87495549D01*
X75305443Y-87495552D01*
X75306354Y-87501304D01*
X75308999Y-87506495D01*
X75309000Y-87506498D01*
X75361304Y-87609150D01*
X75361306Y-87609152D01*
X75363950Y-87614342D01*
X75453658Y-87704050D01*
X75458848Y-87706694D01*
X75458850Y-87706696D01*
X75561502Y-87759000D01*
X75561505Y-87759001D01*
X75566696Y-87761646D01*
X75572448Y-87762557D01*
X75572451Y-87762558D01*
X75686248Y-87780581D01*
X75692000Y-87781492D01*
X75697752Y-87780581D01*
X75811549Y-87762558D01*
X75811552Y-87762557D01*
X75817304Y-87761646D01*
X75822495Y-87759001D01*
X75822498Y-87759000D01*
X75925150Y-87706696D01*
X75925152Y-87706694D01*
X75930342Y-87704050D01*
X76020050Y-87614342D01*
X76022694Y-87609152D01*
X76022696Y-87609150D01*
X76075000Y-87506498D01*
X76075001Y-87506495D01*
X76077646Y-87501304D01*
X76078557Y-87495552D01*
X76078558Y-87495549D01*
X76096581Y-87381752D01*
X76097492Y-87376000D01*
X76096265Y-87368252D01*
X76078558Y-87256451D01*
X76078557Y-87256448D01*
X76077646Y-87250696D01*
X76071772Y-87239167D01*
X76022696Y-87142850D01*
X76022694Y-87142848D01*
X76020050Y-87137658D01*
X75998832Y-87116440D01*
X76887901Y-87116440D01*
X76888584Y-87121663D01*
X76888584Y-87121666D01*
X76903692Y-87237196D01*
X76904633Y-87244394D01*
X76906756Y-87249219D01*
X76945270Y-87336748D01*
X76956605Y-87362510D01*
X77039639Y-87461291D01*
X77147060Y-87532796D01*
X77152092Y-87534368D01*
X77152094Y-87534369D01*
X77187714Y-87545497D01*
X77270233Y-87571278D01*
X77275501Y-87571375D01*
X77275504Y-87571375D01*
X77329552Y-87572365D01*
X77399255Y-87573643D01*
X77404338Y-87572257D01*
X77404340Y-87572257D01*
X77518671Y-87541086D01*
X77523755Y-87539700D01*
X77583527Y-87503000D01*
X79731508Y-87503000D01*
X79732419Y-87508752D01*
X79750442Y-87622549D01*
X79750443Y-87622552D01*
X79751354Y-87628304D01*
X79753999Y-87633495D01*
X79754000Y-87633498D01*
X79806304Y-87736150D01*
X79806306Y-87736152D01*
X79808950Y-87741342D01*
X79898658Y-87831050D01*
X79903848Y-87833694D01*
X79903850Y-87833696D01*
X80006502Y-87886000D01*
X80006505Y-87886001D01*
X80011696Y-87888646D01*
X80017448Y-87889557D01*
X80017451Y-87889558D01*
X80131248Y-87907581D01*
X80137000Y-87908492D01*
X80142752Y-87907581D01*
X80256549Y-87889558D01*
X80256552Y-87889557D01*
X80262304Y-87888646D01*
X80267495Y-87886001D01*
X80267498Y-87886000D01*
X80370150Y-87833696D01*
X80370152Y-87833694D01*
X80375342Y-87831050D01*
X80465050Y-87741342D01*
X80467694Y-87736152D01*
X80467696Y-87736150D01*
X80520000Y-87633498D01*
X80520001Y-87633495D01*
X80522646Y-87628304D01*
X80523557Y-87622552D01*
X80523558Y-87622549D01*
X80541581Y-87508752D01*
X80542492Y-87503000D01*
X80537740Y-87472998D01*
X80523558Y-87383451D01*
X80523557Y-87383448D01*
X80522646Y-87377696D01*
X80519623Y-87371763D01*
X80467696Y-87269850D01*
X80467694Y-87269848D01*
X80465050Y-87264658D01*
X80375342Y-87174950D01*
X80370152Y-87172306D01*
X80370150Y-87172304D01*
X80267498Y-87120000D01*
X80267495Y-87119999D01*
X80262304Y-87117354D01*
X80256552Y-87116443D01*
X80256549Y-87116442D01*
X80142752Y-87098419D01*
X80137000Y-87097508D01*
X80131248Y-87098419D01*
X80017451Y-87116442D01*
X80017448Y-87116443D01*
X80011696Y-87117354D01*
X80006505Y-87119999D01*
X80006502Y-87120000D01*
X79903850Y-87172304D01*
X79903848Y-87172306D01*
X79898658Y-87174950D01*
X79808950Y-87264658D01*
X79806306Y-87269848D01*
X79806304Y-87269850D01*
X79754377Y-87371763D01*
X79751354Y-87377696D01*
X79750443Y-87383448D01*
X79750442Y-87383451D01*
X79736260Y-87472998D01*
X79731508Y-87503000D01*
X77583527Y-87503000D01*
X77633724Y-87472179D01*
X77720322Y-87376507D01*
X77776588Y-87260375D01*
X77797997Y-87133120D01*
X77798133Y-87122000D01*
X77794756Y-87098419D01*
X77780586Y-86999472D01*
X77780585Y-86999469D01*
X77779839Y-86994259D01*
X77775247Y-86984159D01*
X77728610Y-86881586D01*
X77728608Y-86881583D01*
X77726428Y-86876788D01*
X77719003Y-86868170D01*
X77645633Y-86783020D01*
X77645632Y-86783019D01*
X77642193Y-86779028D01*
X77637774Y-86776164D01*
X77637772Y-86776162D01*
X77538329Y-86711708D01*
X77538330Y-86711708D01*
X77533906Y-86708841D01*
X77528857Y-86707331D01*
X77528855Y-86707330D01*
X77415326Y-86673377D01*
X77415325Y-86673377D01*
X77410273Y-86671866D01*
X77344771Y-86671466D01*
X77286501Y-86671110D01*
X77286500Y-86671110D01*
X77281231Y-86671078D01*
X77157155Y-86706539D01*
X77048019Y-86775399D01*
X77044531Y-86779348D01*
X77044529Y-86779350D01*
X77041288Y-86783020D01*
X76962596Y-86872122D01*
X76960357Y-86876891D01*
X76960355Y-86876894D01*
X76921572Y-86959500D01*
X76907754Y-86988932D01*
X76887901Y-87116440D01*
X75998832Y-87116440D01*
X75930342Y-87047950D01*
X75925152Y-87045306D01*
X75925150Y-87045304D01*
X75822498Y-86993000D01*
X75822495Y-86992999D01*
X75817304Y-86990354D01*
X75811552Y-86989443D01*
X75811549Y-86989442D01*
X75697752Y-86971419D01*
X75692000Y-86970508D01*
X75686248Y-86971419D01*
X75572451Y-86989442D01*
X75572448Y-86989443D01*
X75566696Y-86990354D01*
X75561505Y-86992999D01*
X75561502Y-86993000D01*
X75458850Y-87045304D01*
X75458848Y-87045306D01*
X75453658Y-87047950D01*
X75363950Y-87137658D01*
X75361306Y-87142848D01*
X75361304Y-87142850D01*
X75312228Y-87239167D01*
X75306354Y-87250696D01*
X75305443Y-87256448D01*
X75305442Y-87256451D01*
X75287735Y-87368252D01*
X75286508Y-87376000D01*
X71396354Y-87376000D01*
X71397581Y-87368252D01*
X71398492Y-87362500D01*
X71382996Y-87264658D01*
X71379558Y-87242951D01*
X71379557Y-87242948D01*
X71378646Y-87237196D01*
X71371388Y-87222951D01*
X71323696Y-87129350D01*
X71323694Y-87129348D01*
X71321050Y-87124158D01*
X71231342Y-87034450D01*
X71226152Y-87031806D01*
X71226150Y-87031804D01*
X71123498Y-86979500D01*
X71123495Y-86979499D01*
X71118304Y-86976854D01*
X71112552Y-86975943D01*
X71112549Y-86975942D01*
X70998752Y-86957919D01*
X70993000Y-86957008D01*
X70987248Y-86957919D01*
X70873451Y-86975942D01*
X70873448Y-86975943D01*
X70867696Y-86976854D01*
X70862505Y-86979499D01*
X70862502Y-86979500D01*
X70759850Y-87031804D01*
X70759848Y-87031806D01*
X70754658Y-87034450D01*
X70664950Y-87124158D01*
X70662306Y-87129348D01*
X70662304Y-87129350D01*
X70614612Y-87222951D01*
X70607354Y-87237196D01*
X70606443Y-87242948D01*
X70606442Y-87242951D01*
X70603004Y-87264658D01*
X70587508Y-87362500D01*
X70379324Y-87362500D01*
X70381581Y-87348252D01*
X70382492Y-87342500D01*
X70381581Y-87336748D01*
X70363558Y-87222951D01*
X70363557Y-87222948D01*
X70362646Y-87217196D01*
X70360000Y-87212002D01*
X70307696Y-87109350D01*
X70307694Y-87109348D01*
X70305050Y-87104158D01*
X70215342Y-87014450D01*
X70210152Y-87011806D01*
X70210150Y-87011804D01*
X70107498Y-86959500D01*
X70107495Y-86959499D01*
X70102304Y-86956854D01*
X70096552Y-86955943D01*
X70096549Y-86955942D01*
X69982752Y-86937919D01*
X69977000Y-86937008D01*
X69971248Y-86937919D01*
X69857451Y-86955942D01*
X69857448Y-86955943D01*
X69851696Y-86956854D01*
X69846505Y-86959499D01*
X69846502Y-86959500D01*
X69743850Y-87011804D01*
X69743848Y-87011806D01*
X69738658Y-87014450D01*
X69648950Y-87104158D01*
X69646306Y-87109348D01*
X69646304Y-87109350D01*
X69594000Y-87212002D01*
X69591354Y-87217196D01*
X69590443Y-87222948D01*
X69590442Y-87222951D01*
X69572419Y-87336748D01*
X69571508Y-87342500D01*
X46070500Y-87342500D01*
X46070500Y-86360000D01*
X70587508Y-86360000D01*
X70588419Y-86365752D01*
X70606442Y-86479549D01*
X70606443Y-86479552D01*
X70607354Y-86485304D01*
X70609999Y-86490495D01*
X70610000Y-86490498D01*
X70662304Y-86593150D01*
X70662306Y-86593152D01*
X70664950Y-86598342D01*
X70754658Y-86688050D01*
X70759848Y-86690694D01*
X70759850Y-86690696D01*
X70862502Y-86743000D01*
X70862505Y-86743001D01*
X70867696Y-86745646D01*
X70873448Y-86746557D01*
X70873451Y-86746558D01*
X70987248Y-86764581D01*
X70993000Y-86765492D01*
X70998752Y-86764581D01*
X71112549Y-86746558D01*
X71112552Y-86746557D01*
X71118304Y-86745646D01*
X71123495Y-86743001D01*
X71123498Y-86743000D01*
X71226150Y-86690696D01*
X71226152Y-86690694D01*
X71231342Y-86688050D01*
X71321050Y-86598342D01*
X71323694Y-86593152D01*
X71323696Y-86593150D01*
X71376000Y-86490498D01*
X71376001Y-86490495D01*
X71378646Y-86485304D01*
X71379557Y-86479552D01*
X71379558Y-86479549D01*
X71397581Y-86365752D01*
X71398492Y-86360000D01*
X71395190Y-86339150D01*
X71379558Y-86240451D01*
X71379557Y-86240448D01*
X71378646Y-86234696D01*
X71374543Y-86226643D01*
X71323696Y-86126850D01*
X71323694Y-86126848D01*
X71321050Y-86121658D01*
X71305392Y-86106000D01*
X81255508Y-86106000D01*
X81256419Y-86111752D01*
X81274442Y-86225549D01*
X81274443Y-86225552D01*
X81275354Y-86231304D01*
X81277999Y-86236495D01*
X81278000Y-86236498D01*
X81330304Y-86339150D01*
X81330306Y-86339152D01*
X81332950Y-86344342D01*
X81422658Y-86434050D01*
X81427848Y-86436694D01*
X81427850Y-86436696D01*
X81530502Y-86489000D01*
X81530505Y-86489001D01*
X81535696Y-86491646D01*
X81541448Y-86492557D01*
X81541451Y-86492558D01*
X81655248Y-86510581D01*
X81661000Y-86511492D01*
X81666752Y-86510581D01*
X81780549Y-86492558D01*
X81780552Y-86492557D01*
X81786304Y-86491646D01*
X81791495Y-86489001D01*
X81791498Y-86489000D01*
X81894150Y-86436696D01*
X81894152Y-86436694D01*
X81899342Y-86434050D01*
X81989050Y-86344342D01*
X81991694Y-86339152D01*
X81991696Y-86339150D01*
X82044000Y-86236498D01*
X82044001Y-86236495D01*
X82046646Y-86231304D01*
X82047557Y-86225552D01*
X82047558Y-86225549D01*
X82065581Y-86111752D01*
X82066492Y-86106000D01*
X82064419Y-86092911D01*
X82047558Y-85986451D01*
X82047557Y-85986448D01*
X82046646Y-85980696D01*
X82033767Y-85955419D01*
X81991696Y-85872850D01*
X81991694Y-85872848D01*
X81989050Y-85867658D01*
X81899342Y-85777950D01*
X81894152Y-85775306D01*
X81894150Y-85775304D01*
X81791498Y-85723000D01*
X81791495Y-85722999D01*
X81786304Y-85720354D01*
X81780552Y-85719443D01*
X81780549Y-85719442D01*
X81666752Y-85701419D01*
X81661000Y-85700508D01*
X81655248Y-85701419D01*
X81541451Y-85719442D01*
X81541448Y-85719443D01*
X81535696Y-85720354D01*
X81530505Y-85722999D01*
X81530502Y-85723000D01*
X81427850Y-85775304D01*
X81427848Y-85775306D01*
X81422658Y-85777950D01*
X81332950Y-85867658D01*
X81330306Y-85872848D01*
X81330304Y-85872850D01*
X81288233Y-85955419D01*
X81275354Y-85980696D01*
X81274443Y-85986448D01*
X81274442Y-85986451D01*
X81257581Y-86092911D01*
X81255508Y-86106000D01*
X71305392Y-86106000D01*
X71231342Y-86031950D01*
X71226152Y-86029306D01*
X71226150Y-86029304D01*
X71123498Y-85977000D01*
X71123495Y-85976999D01*
X71118304Y-85974354D01*
X71112552Y-85973443D01*
X71112549Y-85973442D01*
X70998752Y-85955419D01*
X70993000Y-85954508D01*
X70987248Y-85955419D01*
X70873451Y-85973442D01*
X70873448Y-85973443D01*
X70867696Y-85974354D01*
X70862505Y-85976999D01*
X70862502Y-85977000D01*
X70759850Y-86029304D01*
X70759848Y-86029306D01*
X70754658Y-86031950D01*
X70664950Y-86121658D01*
X70662306Y-86126848D01*
X70662304Y-86126850D01*
X70611457Y-86226643D01*
X70607354Y-86234696D01*
X70606443Y-86240448D01*
X70606442Y-86240451D01*
X70590810Y-86339150D01*
X70587508Y-86360000D01*
X46070500Y-86360000D01*
X46070500Y-85769440D01*
X68091009Y-85769440D01*
X68091692Y-85774663D01*
X68091692Y-85774666D01*
X68103853Y-85867658D01*
X68107741Y-85897394D01*
X68109864Y-85902219D01*
X68144395Y-85980696D01*
X68159713Y-86015510D01*
X68242747Y-86114291D01*
X68350168Y-86185796D01*
X68355200Y-86187368D01*
X68355202Y-86187369D01*
X68390822Y-86198497D01*
X68473341Y-86224278D01*
X68478609Y-86224375D01*
X68478612Y-86224375D01*
X68532660Y-86225365D01*
X68602363Y-86226643D01*
X68607446Y-86225257D01*
X68607448Y-86225257D01*
X68721779Y-86194086D01*
X68726863Y-86192700D01*
X68836832Y-86125179D01*
X68923430Y-86029507D01*
X68979696Y-85913375D01*
X69001105Y-85786120D01*
X69001241Y-85775000D01*
X68993415Y-85720354D01*
X68983694Y-85652472D01*
X68983693Y-85652469D01*
X68982947Y-85647259D01*
X68963264Y-85603969D01*
X68931718Y-85534586D01*
X68931716Y-85534583D01*
X68929536Y-85529788D01*
X68922111Y-85521170D01*
X68913871Y-85511607D01*
X82308222Y-85511607D01*
X82313857Y-85544403D01*
X82330616Y-85641932D01*
X82337673Y-85683004D01*
X82339355Y-85686957D01*
X82381550Y-85786120D01*
X82405765Y-85843029D01*
X82408310Y-85846487D01*
X82503254Y-85975502D01*
X82508843Y-85983097D01*
X82512114Y-85985876D01*
X82512116Y-85985878D01*
X82551745Y-86019545D01*
X82641380Y-86095695D01*
X82796265Y-86174783D01*
X82965190Y-86216119D01*
X82976167Y-86216800D01*
X83101547Y-86216800D01*
X83103672Y-86216552D01*
X83103676Y-86216552D01*
X83226468Y-86202236D01*
X83226469Y-86202236D01*
X83230739Y-86201738D01*
X83251820Y-86194086D01*
X83390166Y-86143869D01*
X83390169Y-86143868D01*
X83394212Y-86142400D01*
X83539650Y-86047047D01*
X83659251Y-85920793D01*
X83666582Y-85908173D01*
X83739828Y-85782069D01*
X83746599Y-85770412D01*
X83797010Y-85603969D01*
X83801314Y-85534586D01*
X83802740Y-85511607D01*
X84340222Y-85511607D01*
X84345857Y-85544403D01*
X84362616Y-85641932D01*
X84369673Y-85683004D01*
X84371355Y-85686957D01*
X84413550Y-85786120D01*
X84437765Y-85843029D01*
X84440310Y-85846487D01*
X84535254Y-85975502D01*
X84540843Y-85983097D01*
X84544114Y-85985876D01*
X84544116Y-85985878D01*
X84583745Y-86019545D01*
X84673380Y-86095695D01*
X84828265Y-86174783D01*
X84997190Y-86216119D01*
X85008167Y-86216800D01*
X85133547Y-86216800D01*
X85135672Y-86216552D01*
X85135676Y-86216552D01*
X85258468Y-86202236D01*
X85258469Y-86202236D01*
X85262739Y-86201738D01*
X85283820Y-86194086D01*
X85422166Y-86143869D01*
X85422169Y-86143868D01*
X85426212Y-86142400D01*
X85571650Y-86047047D01*
X85691251Y-85920793D01*
X85698582Y-85908173D01*
X85771828Y-85782069D01*
X85778599Y-85770412D01*
X85829010Y-85603969D01*
X85833314Y-85534586D01*
X85839512Y-85434687D01*
X85839512Y-85434684D01*
X85839778Y-85430393D01*
X85821640Y-85324834D01*
X85811055Y-85263231D01*
X85811054Y-85263229D01*
X85810327Y-85258996D01*
X85793308Y-85219000D01*
X85743917Y-85102923D01*
X85743915Y-85102920D01*
X85742235Y-85098971D01*
X85694481Y-85034080D01*
X85641703Y-84962362D01*
X85641701Y-84962360D01*
X85639157Y-84958903D01*
X85635210Y-84955549D01*
X85509897Y-84849089D01*
X85506620Y-84846305D01*
X85351735Y-84767217D01*
X85182810Y-84725881D01*
X85171833Y-84725200D01*
X85046453Y-84725200D01*
X85044328Y-84725448D01*
X85044324Y-84725448D01*
X84921532Y-84739764D01*
X84921531Y-84739764D01*
X84917261Y-84740262D01*
X84913220Y-84741729D01*
X84913219Y-84741729D01*
X84757834Y-84798131D01*
X84757831Y-84798132D01*
X84753788Y-84799600D01*
X84608350Y-84894953D01*
X84488749Y-85021207D01*
X84486593Y-85024918D01*
X84486592Y-85024920D01*
X84459961Y-85070769D01*
X84401401Y-85171588D01*
X84350990Y-85338031D01*
X84350724Y-85342316D01*
X84350724Y-85342317D01*
X84343191Y-85463753D01*
X84340222Y-85511607D01*
X83802740Y-85511607D01*
X83807512Y-85434687D01*
X83807512Y-85434684D01*
X83807778Y-85430393D01*
X83789640Y-85324834D01*
X83779055Y-85263231D01*
X83779054Y-85263229D01*
X83778327Y-85258996D01*
X83761308Y-85219000D01*
X83711917Y-85102923D01*
X83711915Y-85102920D01*
X83710235Y-85098971D01*
X83662481Y-85034080D01*
X83609703Y-84962362D01*
X83609701Y-84962360D01*
X83607157Y-84958903D01*
X83603210Y-84955549D01*
X83477897Y-84849089D01*
X83474620Y-84846305D01*
X83319735Y-84767217D01*
X83150810Y-84725881D01*
X83139833Y-84725200D01*
X83014453Y-84725200D01*
X83012328Y-84725448D01*
X83012324Y-84725448D01*
X82889532Y-84739764D01*
X82889531Y-84739764D01*
X82885261Y-84740262D01*
X82881220Y-84741729D01*
X82881219Y-84741729D01*
X82725834Y-84798131D01*
X82725831Y-84798132D01*
X82721788Y-84799600D01*
X82576350Y-84894953D01*
X82456749Y-85021207D01*
X82454593Y-85024918D01*
X82454592Y-85024920D01*
X82427961Y-85070769D01*
X82369401Y-85171588D01*
X82318990Y-85338031D01*
X82318724Y-85342316D01*
X82318724Y-85342317D01*
X82311191Y-85463753D01*
X82308222Y-85511607D01*
X68913871Y-85511607D01*
X68848741Y-85436020D01*
X68848740Y-85436019D01*
X68845301Y-85432028D01*
X68840882Y-85429164D01*
X68840880Y-85429162D01*
X68741437Y-85364708D01*
X68741438Y-85364708D01*
X68737014Y-85361841D01*
X68731965Y-85360331D01*
X68731963Y-85360330D01*
X68618434Y-85326377D01*
X68618433Y-85326377D01*
X68613381Y-85324866D01*
X68547879Y-85324466D01*
X68489609Y-85324110D01*
X68489608Y-85324110D01*
X68484339Y-85324078D01*
X68360263Y-85359539D01*
X68251127Y-85428399D01*
X68247639Y-85432348D01*
X68247637Y-85432350D01*
X68213929Y-85470518D01*
X68165704Y-85525122D01*
X68163465Y-85529891D01*
X68163463Y-85529894D01*
X68126756Y-85608079D01*
X68110862Y-85641932D01*
X68091009Y-85769440D01*
X46070500Y-85769440D01*
X46070500Y-84740000D01*
X50284534Y-84740000D01*
X50285167Y-84744808D01*
X50301336Y-84867622D01*
X50304313Y-84890236D01*
X50362302Y-85030233D01*
X50454549Y-85150451D01*
X50574767Y-85242698D01*
X50714764Y-85300687D01*
X50719566Y-85301319D01*
X50719569Y-85301320D01*
X50802180Y-85312195D01*
X50827280Y-85315500D01*
X50902720Y-85315500D01*
X50927820Y-85312195D01*
X51010431Y-85301320D01*
X51010434Y-85301319D01*
X51015236Y-85300687D01*
X51155233Y-85242698D01*
X51275451Y-85150451D01*
X51367698Y-85030233D01*
X51425687Y-84890236D01*
X51428665Y-84867622D01*
X51444833Y-84744808D01*
X51445466Y-84740000D01*
X51442693Y-84718940D01*
X54726401Y-84718940D01*
X54727084Y-84724163D01*
X54727084Y-84724166D01*
X54739079Y-84815891D01*
X54743133Y-84846894D01*
X54745256Y-84851719D01*
X54757850Y-84880340D01*
X54795105Y-84965010D01*
X54878139Y-85063791D01*
X54985560Y-85135296D01*
X54990592Y-85136868D01*
X54990594Y-85136869D01*
X55018458Y-85145574D01*
X55108733Y-85173778D01*
X55114001Y-85173875D01*
X55114004Y-85173875D01*
X55168052Y-85174865D01*
X55237755Y-85176143D01*
X55242838Y-85174757D01*
X55242840Y-85174757D01*
X55357171Y-85143586D01*
X55362255Y-85142200D01*
X55366128Y-85139822D01*
X58548265Y-85139822D01*
X58549176Y-85145574D01*
X58567199Y-85259371D01*
X58567200Y-85259374D01*
X58568111Y-85265126D01*
X58570756Y-85270317D01*
X58570757Y-85270320D01*
X58623061Y-85372972D01*
X58623063Y-85372974D01*
X58625707Y-85378164D01*
X58715415Y-85467872D01*
X58720605Y-85470516D01*
X58720607Y-85470518D01*
X58823259Y-85522822D01*
X58823262Y-85522823D01*
X58828453Y-85525468D01*
X58834205Y-85526379D01*
X58834208Y-85526380D01*
X58948005Y-85544403D01*
X58953757Y-85545314D01*
X58959509Y-85544403D01*
X59073306Y-85526380D01*
X59073309Y-85526379D01*
X59079061Y-85525468D01*
X59084252Y-85522823D01*
X59084255Y-85522822D01*
X59186907Y-85470518D01*
X59186909Y-85470516D01*
X59192099Y-85467872D01*
X59281807Y-85378164D01*
X59284451Y-85372974D01*
X59284453Y-85372972D01*
X59336757Y-85270320D01*
X59336758Y-85270317D01*
X59339403Y-85265126D01*
X59340314Y-85259374D01*
X59340315Y-85259371D01*
X59358338Y-85145574D01*
X59359249Y-85139822D01*
X59352231Y-85095513D01*
X59340315Y-85020273D01*
X59340314Y-85020270D01*
X59339403Y-85014518D01*
X59323300Y-84982914D01*
X59284453Y-84906672D01*
X59284451Y-84906670D01*
X59281807Y-84901480D01*
X59192099Y-84811772D01*
X59186909Y-84809128D01*
X59186907Y-84809126D01*
X59084255Y-84756822D01*
X59084252Y-84756821D01*
X59079061Y-84754176D01*
X59073309Y-84753265D01*
X59073306Y-84753264D01*
X58959509Y-84735241D01*
X58953757Y-84734330D01*
X58948005Y-84735241D01*
X58834208Y-84753264D01*
X58834205Y-84753265D01*
X58828453Y-84754176D01*
X58823262Y-84756821D01*
X58823259Y-84756822D01*
X58720607Y-84809126D01*
X58720605Y-84809128D01*
X58715415Y-84811772D01*
X58625707Y-84901480D01*
X58623063Y-84906670D01*
X58623061Y-84906672D01*
X58584214Y-84982914D01*
X58568111Y-85014518D01*
X58567200Y-85020270D01*
X58567199Y-85020273D01*
X58555283Y-85095513D01*
X58548265Y-85139822D01*
X55366128Y-85139822D01*
X55472224Y-85074679D01*
X55558822Y-84979007D01*
X55615088Y-84862875D01*
X55636497Y-84735620D01*
X55636633Y-84724500D01*
X55626385Y-84652942D01*
X55625561Y-84647190D01*
X59411508Y-84647190D01*
X59412419Y-84652942D01*
X59430442Y-84766739D01*
X59430443Y-84766742D01*
X59431354Y-84772494D01*
X59433999Y-84777685D01*
X59434000Y-84777688D01*
X59486304Y-84880340D01*
X59486306Y-84880342D01*
X59488950Y-84885532D01*
X59578658Y-84975240D01*
X59583848Y-84977884D01*
X59583850Y-84977886D01*
X59686502Y-85030190D01*
X59686505Y-85030191D01*
X59691696Y-85032836D01*
X59697448Y-85033747D01*
X59697451Y-85033748D01*
X59811248Y-85051771D01*
X59817000Y-85052682D01*
X59822752Y-85051771D01*
X59936549Y-85033748D01*
X59936552Y-85033747D01*
X59942304Y-85032836D01*
X59947495Y-85030191D01*
X59947498Y-85030190D01*
X60050150Y-84977886D01*
X60050152Y-84977884D01*
X60055342Y-84975240D01*
X60145050Y-84885532D01*
X60147694Y-84880342D01*
X60147696Y-84880340D01*
X60170288Y-84836000D01*
X69063508Y-84836000D01*
X69064419Y-84841752D01*
X69082442Y-84955549D01*
X69082443Y-84955552D01*
X69083354Y-84961304D01*
X69085999Y-84966495D01*
X69086000Y-84966498D01*
X69138304Y-85069150D01*
X69138306Y-85069152D01*
X69140950Y-85074342D01*
X69230658Y-85164050D01*
X69235848Y-85166694D01*
X69235850Y-85166696D01*
X69338502Y-85219000D01*
X69338505Y-85219001D01*
X69343696Y-85221646D01*
X69349448Y-85222557D01*
X69349451Y-85222558D01*
X69463248Y-85240581D01*
X69469000Y-85241492D01*
X69474752Y-85240581D01*
X69588549Y-85222558D01*
X69588552Y-85222557D01*
X69594304Y-85221646D01*
X69599495Y-85219001D01*
X69599498Y-85219000D01*
X69702150Y-85166696D01*
X69702152Y-85166694D01*
X69707342Y-85164050D01*
X69797050Y-85074342D01*
X69799694Y-85069152D01*
X69799696Y-85069150D01*
X69852000Y-84966498D01*
X69852001Y-84966495D01*
X69854646Y-84961304D01*
X69855557Y-84955552D01*
X69855558Y-84955549D01*
X69873581Y-84841752D01*
X69874492Y-84836000D01*
X70079508Y-84836000D01*
X70080419Y-84841752D01*
X70098442Y-84955549D01*
X70098443Y-84955552D01*
X70099354Y-84961304D01*
X70101999Y-84966495D01*
X70102000Y-84966498D01*
X70154304Y-85069150D01*
X70154306Y-85069152D01*
X70156950Y-85074342D01*
X70246658Y-85164050D01*
X70251848Y-85166694D01*
X70251850Y-85166696D01*
X70354502Y-85219000D01*
X70354505Y-85219001D01*
X70359696Y-85221646D01*
X70365448Y-85222557D01*
X70365451Y-85222558D01*
X70479248Y-85240581D01*
X70485000Y-85241492D01*
X70490752Y-85240581D01*
X70604549Y-85222558D01*
X70604552Y-85222557D01*
X70610304Y-85221646D01*
X70615495Y-85219001D01*
X70615498Y-85219000D01*
X70718150Y-85166696D01*
X70718152Y-85166694D01*
X70723342Y-85164050D01*
X70813050Y-85074342D01*
X70815694Y-85069152D01*
X70815696Y-85069150D01*
X70868000Y-84966498D01*
X70868001Y-84966495D01*
X70870646Y-84961304D01*
X70871557Y-84955552D01*
X70871558Y-84955549D01*
X70889581Y-84841752D01*
X70890492Y-84836000D01*
X70884494Y-84798131D01*
X70871558Y-84716451D01*
X70871557Y-84716448D01*
X70870646Y-84710696D01*
X70838288Y-84647190D01*
X70815696Y-84602850D01*
X70815694Y-84602848D01*
X70813050Y-84597658D01*
X70723342Y-84507950D01*
X70718152Y-84505306D01*
X70718150Y-84505304D01*
X70615498Y-84453000D01*
X70615495Y-84452999D01*
X70610304Y-84450354D01*
X70604552Y-84449443D01*
X70604549Y-84449442D01*
X70490752Y-84431419D01*
X70485000Y-84430508D01*
X70479248Y-84431419D01*
X70365451Y-84449442D01*
X70365448Y-84449443D01*
X70359696Y-84450354D01*
X70354505Y-84452999D01*
X70354502Y-84453000D01*
X70251850Y-84505304D01*
X70251848Y-84505306D01*
X70246658Y-84507950D01*
X70156950Y-84597658D01*
X70154306Y-84602848D01*
X70154304Y-84602850D01*
X70131712Y-84647190D01*
X70099354Y-84710696D01*
X70098443Y-84716448D01*
X70098442Y-84716451D01*
X70085506Y-84798131D01*
X70079508Y-84836000D01*
X69874492Y-84836000D01*
X69868494Y-84798131D01*
X69855558Y-84716451D01*
X69855557Y-84716448D01*
X69854646Y-84710696D01*
X69822288Y-84647190D01*
X69799696Y-84602850D01*
X69799694Y-84602848D01*
X69797050Y-84597658D01*
X69707342Y-84507950D01*
X69702152Y-84505306D01*
X69702150Y-84505304D01*
X69599498Y-84453000D01*
X69599495Y-84452999D01*
X69594304Y-84450354D01*
X69588552Y-84449443D01*
X69588549Y-84449442D01*
X69474752Y-84431419D01*
X69469000Y-84430508D01*
X69463248Y-84431419D01*
X69349451Y-84449442D01*
X69349448Y-84449443D01*
X69343696Y-84450354D01*
X69338505Y-84452999D01*
X69338502Y-84453000D01*
X69235850Y-84505304D01*
X69235848Y-84505306D01*
X69230658Y-84507950D01*
X69140950Y-84597658D01*
X69138306Y-84602848D01*
X69138304Y-84602850D01*
X69115712Y-84647190D01*
X69083354Y-84710696D01*
X69082443Y-84716448D01*
X69082442Y-84716451D01*
X69069506Y-84798131D01*
X69063508Y-84836000D01*
X60170288Y-84836000D01*
X60200000Y-84777688D01*
X60200001Y-84777685D01*
X60202646Y-84772494D01*
X60203557Y-84766742D01*
X60203558Y-84766739D01*
X60221581Y-84652942D01*
X60222492Y-84647190D01*
X60213397Y-84589764D01*
X60203558Y-84527641D01*
X60203557Y-84527638D01*
X60202646Y-84521886D01*
X60197644Y-84512069D01*
X60147696Y-84414040D01*
X60147694Y-84414038D01*
X60145050Y-84408848D01*
X60055342Y-84319140D01*
X60050152Y-84316496D01*
X60050150Y-84316494D01*
X59947498Y-84264190D01*
X59947495Y-84264189D01*
X59942304Y-84261544D01*
X59936552Y-84260633D01*
X59936549Y-84260632D01*
X59822752Y-84242609D01*
X59817000Y-84241698D01*
X59811248Y-84242609D01*
X59697451Y-84260632D01*
X59697448Y-84260633D01*
X59691696Y-84261544D01*
X59686505Y-84264189D01*
X59686502Y-84264190D01*
X59583850Y-84316494D01*
X59583848Y-84316496D01*
X59578658Y-84319140D01*
X59488950Y-84408848D01*
X59486306Y-84414038D01*
X59486304Y-84414040D01*
X59436356Y-84512069D01*
X59431354Y-84521886D01*
X59430443Y-84527638D01*
X59430442Y-84527641D01*
X59420603Y-84589764D01*
X59411508Y-84647190D01*
X55625561Y-84647190D01*
X55619086Y-84601972D01*
X55619085Y-84601969D01*
X55618339Y-84596759D01*
X55588757Y-84531696D01*
X55567110Y-84484086D01*
X55567108Y-84484083D01*
X55564928Y-84479288D01*
X55557503Y-84470670D01*
X55484133Y-84385520D01*
X55484132Y-84385519D01*
X55480693Y-84381528D01*
X55476274Y-84378664D01*
X55476272Y-84378662D01*
X55395939Y-84326594D01*
X55372406Y-84311341D01*
X55367357Y-84309831D01*
X55367355Y-84309830D01*
X55253826Y-84275877D01*
X55253825Y-84275877D01*
X55248773Y-84274366D01*
X55183271Y-84273966D01*
X55125001Y-84273610D01*
X55125000Y-84273610D01*
X55119731Y-84273578D01*
X54995655Y-84309039D01*
X54886519Y-84377899D01*
X54883031Y-84381848D01*
X54883029Y-84381850D01*
X54860009Y-84407916D01*
X54801096Y-84474622D01*
X54798857Y-84479391D01*
X54798855Y-84479394D01*
X54775542Y-84529050D01*
X54746254Y-84591432D01*
X54726401Y-84718940D01*
X51442693Y-84718940D01*
X51434005Y-84652942D01*
X51426320Y-84594569D01*
X51426319Y-84594566D01*
X51425687Y-84589764D01*
X51367698Y-84449767D01*
X51275451Y-84329549D01*
X51155233Y-84237302D01*
X51015236Y-84179313D01*
X51010434Y-84178681D01*
X51010431Y-84178680D01*
X50927820Y-84167805D01*
X50902720Y-84164500D01*
X50827280Y-84164500D01*
X50802180Y-84167805D01*
X50719569Y-84178680D01*
X50719566Y-84178681D01*
X50714764Y-84179313D01*
X50574767Y-84237302D01*
X50454549Y-84329549D01*
X50362302Y-84449767D01*
X50304313Y-84589764D01*
X50303681Y-84594566D01*
X50303680Y-84594569D01*
X50295995Y-84652942D01*
X50284534Y-84740000D01*
X46070500Y-84740000D01*
X46070500Y-84083985D01*
X58540626Y-84083985D01*
X58541537Y-84089737D01*
X58559560Y-84203534D01*
X58559561Y-84203537D01*
X58560472Y-84209289D01*
X58563117Y-84214480D01*
X58563118Y-84214483D01*
X58615422Y-84317135D01*
X58615424Y-84317137D01*
X58618068Y-84322327D01*
X58707776Y-84412035D01*
X58712966Y-84414679D01*
X58712968Y-84414681D01*
X58815620Y-84466985D01*
X58815623Y-84466986D01*
X58820814Y-84469631D01*
X58826566Y-84470542D01*
X58826569Y-84470543D01*
X58940366Y-84488566D01*
X58946118Y-84489477D01*
X58951870Y-84488566D01*
X59065667Y-84470543D01*
X59065670Y-84470542D01*
X59071422Y-84469631D01*
X59076613Y-84466986D01*
X59076616Y-84466985D01*
X59179268Y-84414681D01*
X59179270Y-84414679D01*
X59184460Y-84412035D01*
X59274168Y-84322327D01*
X59276812Y-84317137D01*
X59276814Y-84317135D01*
X59329118Y-84214483D01*
X59329119Y-84214480D01*
X59331764Y-84209289D01*
X59332675Y-84203537D01*
X59332676Y-84203534D01*
X59333077Y-84201000D01*
X65761508Y-84201000D01*
X65762419Y-84206752D01*
X65780442Y-84320549D01*
X65780443Y-84320552D01*
X65781354Y-84326304D01*
X65783999Y-84331495D01*
X65784000Y-84331498D01*
X65836304Y-84434150D01*
X65836306Y-84434152D01*
X65838950Y-84439342D01*
X65928658Y-84529050D01*
X65933848Y-84531694D01*
X65933850Y-84531696D01*
X66036502Y-84584000D01*
X66036505Y-84584001D01*
X66041696Y-84586646D01*
X66047448Y-84587557D01*
X66047451Y-84587558D01*
X66161248Y-84605581D01*
X66167000Y-84606492D01*
X66172752Y-84605581D01*
X66286549Y-84587558D01*
X66286552Y-84587557D01*
X66292304Y-84586646D01*
X66297495Y-84584001D01*
X66297498Y-84584000D01*
X66400150Y-84531696D01*
X66400152Y-84531694D01*
X66405342Y-84529050D01*
X66495050Y-84439342D01*
X66497694Y-84434152D01*
X66497696Y-84434150D01*
X66550000Y-84331498D01*
X66550001Y-84331495D01*
X66552646Y-84326304D01*
X66553557Y-84320552D01*
X66553558Y-84320549D01*
X66571581Y-84206752D01*
X66572492Y-84201000D01*
X66553959Y-84083985D01*
X66553558Y-84081451D01*
X66553557Y-84081448D01*
X66552646Y-84075696D01*
X66550000Y-84070502D01*
X66497696Y-83967850D01*
X66497694Y-83967848D01*
X66495050Y-83962658D01*
X66405342Y-83872950D01*
X66400152Y-83870306D01*
X66400150Y-83870304D01*
X66297498Y-83818000D01*
X66297495Y-83817999D01*
X66292304Y-83815354D01*
X66286552Y-83814443D01*
X66286549Y-83814442D01*
X66172752Y-83796419D01*
X66167000Y-83795508D01*
X66161248Y-83796419D01*
X66047451Y-83814442D01*
X66047448Y-83814443D01*
X66041696Y-83815354D01*
X66036505Y-83817999D01*
X66036502Y-83818000D01*
X65933850Y-83870304D01*
X65933848Y-83870306D01*
X65928658Y-83872950D01*
X65838950Y-83962658D01*
X65836306Y-83967848D01*
X65836304Y-83967850D01*
X65784000Y-84070502D01*
X65781354Y-84075696D01*
X65780443Y-84081448D01*
X65780442Y-84081451D01*
X65780041Y-84083985D01*
X65761508Y-84201000D01*
X59333077Y-84201000D01*
X59350699Y-84089737D01*
X59351610Y-84083985D01*
X59343572Y-84033236D01*
X59353230Y-83983549D01*
X59392569Y-83951693D01*
X59437028Y-83951306D01*
X59437696Y-83951646D01*
X59563000Y-83971492D01*
X59568752Y-83970581D01*
X59682549Y-83952558D01*
X59682552Y-83952557D01*
X59688304Y-83951646D01*
X59693495Y-83949001D01*
X59693498Y-83949000D01*
X59796150Y-83896696D01*
X59796152Y-83896694D01*
X59801342Y-83894050D01*
X59891050Y-83804342D01*
X59893694Y-83799152D01*
X59893696Y-83799150D01*
X59946000Y-83696498D01*
X59946001Y-83696495D01*
X59948646Y-83691304D01*
X59949557Y-83685552D01*
X59949558Y-83685549D01*
X59967581Y-83571752D01*
X59967581Y-83571751D01*
X59968492Y-83566000D01*
X59959642Y-83510120D01*
X59949558Y-83446451D01*
X59949557Y-83446448D01*
X59948646Y-83440696D01*
X59946000Y-83435502D01*
X59893696Y-83332850D01*
X59893694Y-83332848D01*
X59891050Y-83327658D01*
X59801342Y-83237950D01*
X59796152Y-83235306D01*
X59796150Y-83235304D01*
X59693498Y-83183000D01*
X59693495Y-83182999D01*
X59688304Y-83180354D01*
X59682552Y-83179443D01*
X59682549Y-83179442D01*
X59568752Y-83161419D01*
X59563000Y-83160508D01*
X59557248Y-83161419D01*
X59443451Y-83179442D01*
X59443448Y-83179443D01*
X59437696Y-83180354D01*
X59432505Y-83182999D01*
X59432502Y-83183000D01*
X59329850Y-83235304D01*
X59329848Y-83235306D01*
X59324658Y-83237950D01*
X59234950Y-83327658D01*
X59232306Y-83332848D01*
X59232304Y-83332850D01*
X59180000Y-83435502D01*
X59177354Y-83440696D01*
X59176443Y-83446448D01*
X59176442Y-83446451D01*
X59166358Y-83510120D01*
X59157508Y-83566000D01*
X59165546Y-83616749D01*
X59155888Y-83666436D01*
X59116549Y-83698292D01*
X59072090Y-83698679D01*
X59071422Y-83698339D01*
X58946118Y-83678493D01*
X58940366Y-83679404D01*
X58826569Y-83697427D01*
X58826566Y-83697428D01*
X58820814Y-83698339D01*
X58815623Y-83700984D01*
X58815620Y-83700985D01*
X58712968Y-83753289D01*
X58712966Y-83753291D01*
X58707776Y-83755935D01*
X58618068Y-83845643D01*
X58615424Y-83850833D01*
X58615422Y-83850835D01*
X58563118Y-83953487D01*
X58560472Y-83958681D01*
X58559561Y-83964433D01*
X58559560Y-83964436D01*
X58548663Y-84033238D01*
X58540626Y-84083985D01*
X46070500Y-84083985D01*
X46070500Y-83493440D01*
X52951901Y-83493440D01*
X52952584Y-83498663D01*
X52952584Y-83498666D01*
X52962283Y-83572831D01*
X52968633Y-83621394D01*
X52970756Y-83626219D01*
X53000692Y-83694253D01*
X53020605Y-83739510D01*
X53103639Y-83838291D01*
X53211060Y-83909796D01*
X53216092Y-83911368D01*
X53216094Y-83911369D01*
X53251714Y-83922497D01*
X53334233Y-83948278D01*
X53339501Y-83948375D01*
X53339504Y-83948375D01*
X53393552Y-83949365D01*
X53463255Y-83950643D01*
X53468338Y-83949257D01*
X53468340Y-83949257D01*
X53582671Y-83918086D01*
X53587755Y-83916700D01*
X53697724Y-83849179D01*
X53784322Y-83753507D01*
X53840588Y-83637375D01*
X53861997Y-83510120D01*
X53862133Y-83499000D01*
X53860849Y-83490035D01*
X53844586Y-83376472D01*
X53844585Y-83376469D01*
X53843839Y-83371259D01*
X53832656Y-83346663D01*
X53792610Y-83258586D01*
X53792608Y-83258583D01*
X53790428Y-83253788D01*
X53783003Y-83245170D01*
X53709633Y-83160020D01*
X53709632Y-83160019D01*
X53706193Y-83156028D01*
X53701774Y-83153164D01*
X53701772Y-83153162D01*
X53602329Y-83088708D01*
X53602330Y-83088708D01*
X53597906Y-83085841D01*
X53592857Y-83084331D01*
X53592855Y-83084330D01*
X53479326Y-83050377D01*
X53479325Y-83050377D01*
X53474273Y-83048866D01*
X53408771Y-83048466D01*
X53350501Y-83048110D01*
X53350500Y-83048110D01*
X53345231Y-83048078D01*
X53221155Y-83083539D01*
X53216701Y-83086349D01*
X53216695Y-83086352D01*
X53153733Y-83126079D01*
X53147791Y-83127369D01*
X53135315Y-83137699D01*
X53116481Y-83149583D01*
X53116478Y-83149586D01*
X53112019Y-83152399D01*
X53108531Y-83156348D01*
X53108529Y-83156350D01*
X53086316Y-83181502D01*
X53026596Y-83249122D01*
X53024357Y-83253891D01*
X53024355Y-83253894D01*
X52987286Y-83332850D01*
X52971754Y-83365932D01*
X52951901Y-83493440D01*
X46070500Y-83493440D01*
X46070500Y-82677000D01*
X52426508Y-82677000D01*
X52427419Y-82682752D01*
X52445442Y-82796549D01*
X52445443Y-82796552D01*
X52446354Y-82802304D01*
X52448999Y-82807495D01*
X52449000Y-82807498D01*
X52501304Y-82910150D01*
X52501306Y-82910152D01*
X52503950Y-82915342D01*
X52593658Y-83005050D01*
X52598848Y-83007694D01*
X52598850Y-83007696D01*
X52701502Y-83060000D01*
X52701505Y-83060001D01*
X52706696Y-83062646D01*
X52712448Y-83063557D01*
X52712451Y-83063558D01*
X52826248Y-83081581D01*
X52832000Y-83082492D01*
X52837752Y-83081581D01*
X52951549Y-83063558D01*
X52951552Y-83063557D01*
X52957304Y-83062646D01*
X53062233Y-83009182D01*
X53065428Y-83008789D01*
X53068111Y-83006187D01*
X53070342Y-83005050D01*
X53160050Y-82915342D01*
X53162694Y-82910152D01*
X53162696Y-82910150D01*
X53215000Y-82807498D01*
X53215001Y-82807495D01*
X53217646Y-82802304D01*
X53218557Y-82796552D01*
X53218558Y-82796549D01*
X53225129Y-82755059D01*
X53869314Y-82755059D01*
X53869997Y-82760282D01*
X53869997Y-82760285D01*
X53884012Y-82867455D01*
X53886046Y-82883013D01*
X53888169Y-82887838D01*
X53934681Y-82993544D01*
X53938018Y-83001129D01*
X54021052Y-83099910D01*
X54128473Y-83171415D01*
X54133505Y-83172987D01*
X54133507Y-83172988D01*
X54157085Y-83180354D01*
X54251646Y-83209897D01*
X54256914Y-83209994D01*
X54256917Y-83209994D01*
X54310965Y-83210984D01*
X54380668Y-83212262D01*
X54385751Y-83210876D01*
X54385753Y-83210876D01*
X54493493Y-83181502D01*
X54505168Y-83178319D01*
X54615137Y-83110798D01*
X54701735Y-83015126D01*
X54758001Y-82898994D01*
X54779410Y-82771739D01*
X54779546Y-82760619D01*
X54775283Y-82730852D01*
X54767571Y-82677000D01*
X55220508Y-82677000D01*
X55221419Y-82682752D01*
X55239442Y-82796549D01*
X55239443Y-82796552D01*
X55240354Y-82802304D01*
X55242999Y-82807495D01*
X55243000Y-82807498D01*
X55295304Y-82910150D01*
X55295306Y-82910152D01*
X55297950Y-82915342D01*
X55387658Y-83005050D01*
X55392848Y-83007694D01*
X55392850Y-83007696D01*
X55495502Y-83060000D01*
X55495505Y-83060001D01*
X55500696Y-83062646D01*
X55506448Y-83063557D01*
X55506451Y-83063558D01*
X55620248Y-83081581D01*
X55626000Y-83082492D01*
X55631752Y-83081581D01*
X55745549Y-83063558D01*
X55745552Y-83063557D01*
X55751304Y-83062646D01*
X55756495Y-83060001D01*
X55756498Y-83060000D01*
X55859150Y-83007696D01*
X55859152Y-83007694D01*
X55864342Y-83005050D01*
X55954050Y-82915342D01*
X55956694Y-82910152D01*
X55956696Y-82910150D01*
X56009000Y-82807498D01*
X56009001Y-82807495D01*
X56011646Y-82802304D01*
X56012557Y-82796552D01*
X56012558Y-82796549D01*
X56030581Y-82682752D01*
X56031492Y-82677000D01*
X56026884Y-82647907D01*
X56014544Y-82569990D01*
X56186901Y-82569990D01*
X56187584Y-82575213D01*
X56187584Y-82575216D01*
X56202942Y-82692658D01*
X56203633Y-82697944D01*
X56205756Y-82702769D01*
X56240753Y-82782305D01*
X56255605Y-82816060D01*
X56338639Y-82914841D01*
X56446060Y-82986346D01*
X56451092Y-82987918D01*
X56451094Y-82987919D01*
X56477927Y-82996302D01*
X56569233Y-83024828D01*
X56574501Y-83024925D01*
X56574504Y-83024925D01*
X56628552Y-83025915D01*
X56698255Y-83027193D01*
X56703338Y-83025807D01*
X56703340Y-83025807D01*
X56802556Y-82998757D01*
X56822755Y-82993250D01*
X56932724Y-82925729D01*
X57019322Y-82830057D01*
X57075588Y-82713925D01*
X57096997Y-82586670D01*
X57097036Y-82583500D01*
X57508244Y-82583500D01*
X57509155Y-82589252D01*
X57527178Y-82703049D01*
X57527179Y-82703052D01*
X57528090Y-82708804D01*
X57530735Y-82713995D01*
X57530736Y-82713998D01*
X57583040Y-82816650D01*
X57583042Y-82816652D01*
X57585686Y-82821842D01*
X57675394Y-82911550D01*
X57680584Y-82914194D01*
X57680586Y-82914196D01*
X57783238Y-82966500D01*
X57783241Y-82966501D01*
X57788432Y-82969146D01*
X57794184Y-82970057D01*
X57794187Y-82970058D01*
X57907984Y-82988081D01*
X57913736Y-82988992D01*
X57919488Y-82988081D01*
X58033285Y-82970058D01*
X58033288Y-82970057D01*
X58039040Y-82969146D01*
X58044231Y-82966501D01*
X58044234Y-82966500D01*
X58113906Y-82931000D01*
X60300508Y-82931000D01*
X60301419Y-82936752D01*
X60319442Y-83050549D01*
X60319443Y-83050552D01*
X60320354Y-83056304D01*
X60322999Y-83061495D01*
X60323000Y-83061498D01*
X60375304Y-83164150D01*
X60375306Y-83164152D01*
X60377950Y-83169342D01*
X60467658Y-83259050D01*
X60472848Y-83261694D01*
X60472850Y-83261696D01*
X60575502Y-83314000D01*
X60575505Y-83314001D01*
X60580696Y-83316646D01*
X60586448Y-83317557D01*
X60586451Y-83317558D01*
X60700248Y-83335581D01*
X60706000Y-83336492D01*
X60711752Y-83335581D01*
X60825549Y-83317558D01*
X60825552Y-83317557D01*
X60831304Y-83316646D01*
X60836495Y-83314001D01*
X60836498Y-83314000D01*
X60939150Y-83261696D01*
X60939152Y-83261694D01*
X60944342Y-83259050D01*
X60992878Y-83210514D01*
X61038754Y-83189122D01*
X61087649Y-83202223D01*
X61101850Y-83215224D01*
X61110239Y-83225204D01*
X61148139Y-83270291D01*
X61255560Y-83341796D01*
X61260592Y-83343368D01*
X61260594Y-83343369D01*
X61296214Y-83354497D01*
X61378733Y-83380278D01*
X61384001Y-83380375D01*
X61384004Y-83380375D01*
X61438052Y-83381365D01*
X61507755Y-83382643D01*
X61512838Y-83381257D01*
X61512840Y-83381257D01*
X61627171Y-83350086D01*
X61632255Y-83348700D01*
X61742224Y-83281179D01*
X61828822Y-83185507D01*
X61862631Y-83115725D01*
X62706942Y-83115725D01*
X62707625Y-83120948D01*
X62707625Y-83120951D01*
X62722925Y-83237950D01*
X62723674Y-83243679D01*
X62775646Y-83361795D01*
X62858680Y-83460576D01*
X62966101Y-83532081D01*
X62971133Y-83533653D01*
X62971135Y-83533654D01*
X63006755Y-83544782D01*
X63089274Y-83570563D01*
X63094542Y-83570660D01*
X63094545Y-83570660D01*
X63148593Y-83571650D01*
X63218296Y-83572928D01*
X63223379Y-83571542D01*
X63223381Y-83571542D01*
X63301228Y-83550318D01*
X66590779Y-83550318D01*
X66591462Y-83555541D01*
X66591462Y-83555544D01*
X66602859Y-83642696D01*
X66607511Y-83678272D01*
X66659483Y-83796388D01*
X66742517Y-83895169D01*
X66849938Y-83966674D01*
X66854970Y-83968246D01*
X66854972Y-83968247D01*
X66890592Y-83979375D01*
X66973111Y-84005156D01*
X66978379Y-84005253D01*
X66978382Y-84005253D01*
X67032430Y-84006243D01*
X67102133Y-84007521D01*
X67107216Y-84006135D01*
X67107218Y-84006135D01*
X67221549Y-83974964D01*
X67226633Y-83973578D01*
X67336602Y-83906057D01*
X67423200Y-83810385D01*
X67479466Y-83694253D01*
X67500875Y-83566998D01*
X67500887Y-83566000D01*
X67793508Y-83566000D01*
X67794419Y-83571751D01*
X67794419Y-83571752D01*
X67812442Y-83685549D01*
X67812443Y-83685552D01*
X67813354Y-83691304D01*
X67815999Y-83696495D01*
X67816000Y-83696498D01*
X67868304Y-83799150D01*
X67868306Y-83799152D01*
X67870950Y-83804342D01*
X67960658Y-83894050D01*
X67965848Y-83896694D01*
X67965850Y-83896696D01*
X68068502Y-83949000D01*
X68068505Y-83949001D01*
X68073696Y-83951646D01*
X68079448Y-83952557D01*
X68079451Y-83952558D01*
X68193248Y-83970581D01*
X68199000Y-83971492D01*
X68204752Y-83970581D01*
X68318549Y-83952558D01*
X68318552Y-83952557D01*
X68324304Y-83951646D01*
X68329495Y-83949001D01*
X68329498Y-83949000D01*
X68432150Y-83896696D01*
X68432152Y-83896694D01*
X68437342Y-83894050D01*
X68527050Y-83804342D01*
X68529694Y-83799152D01*
X68529696Y-83799150D01*
X68582000Y-83696498D01*
X68582001Y-83696495D01*
X68584646Y-83691304D01*
X68585557Y-83685552D01*
X68585558Y-83685549D01*
X68603581Y-83571752D01*
X68603581Y-83571751D01*
X68604492Y-83566000D01*
X68595642Y-83510120D01*
X68585558Y-83446451D01*
X68585557Y-83446448D01*
X68584646Y-83440696D01*
X68582000Y-83435502D01*
X68529696Y-83332850D01*
X68529694Y-83332848D01*
X68527050Y-83327658D01*
X68511392Y-83312000D01*
X78080508Y-83312000D01*
X78081419Y-83317752D01*
X78099442Y-83431549D01*
X78099443Y-83431552D01*
X78100354Y-83437304D01*
X78102999Y-83442495D01*
X78103000Y-83442498D01*
X78155304Y-83545150D01*
X78155306Y-83545152D01*
X78157950Y-83550342D01*
X78247658Y-83640050D01*
X78252848Y-83642694D01*
X78252850Y-83642696D01*
X78355502Y-83695000D01*
X78355505Y-83695001D01*
X78360696Y-83697646D01*
X78366448Y-83698557D01*
X78366451Y-83698558D01*
X78480248Y-83716581D01*
X78486000Y-83717492D01*
X78491752Y-83716581D01*
X78605549Y-83698558D01*
X78605552Y-83698557D01*
X78611304Y-83697646D01*
X78616495Y-83695001D01*
X78616498Y-83695000D01*
X78719150Y-83642696D01*
X78719152Y-83642694D01*
X78724342Y-83640050D01*
X78814050Y-83550342D01*
X78816694Y-83545152D01*
X78816696Y-83545150D01*
X78869000Y-83442498D01*
X78869001Y-83442495D01*
X78871646Y-83437304D01*
X78872557Y-83431552D01*
X78872558Y-83431549D01*
X78890581Y-83317752D01*
X78891492Y-83312000D01*
X80366508Y-83312000D01*
X80367419Y-83317752D01*
X80385442Y-83431549D01*
X80385443Y-83431552D01*
X80386354Y-83437304D01*
X80388999Y-83442495D01*
X80389000Y-83442498D01*
X80441304Y-83545150D01*
X80441306Y-83545152D01*
X80443950Y-83550342D01*
X80533658Y-83640050D01*
X80538848Y-83642694D01*
X80538850Y-83642696D01*
X80641502Y-83695000D01*
X80641505Y-83695001D01*
X80646696Y-83697646D01*
X80652448Y-83698557D01*
X80652451Y-83698558D01*
X80766248Y-83716581D01*
X80772000Y-83717492D01*
X80777752Y-83716581D01*
X80891549Y-83698558D01*
X80891552Y-83698557D01*
X80897304Y-83697646D01*
X80902495Y-83695001D01*
X80902498Y-83695000D01*
X81005150Y-83642696D01*
X81005152Y-83642694D01*
X81010342Y-83640050D01*
X81100050Y-83550342D01*
X81102694Y-83545152D01*
X81102696Y-83545150D01*
X81155000Y-83442498D01*
X81155001Y-83442495D01*
X81157646Y-83437304D01*
X81158557Y-83431552D01*
X81158558Y-83431549D01*
X81176581Y-83317752D01*
X81177492Y-83312000D01*
X81173047Y-83283937D01*
X81158558Y-83192451D01*
X81158557Y-83192448D01*
X81157646Y-83186696D01*
X81151973Y-83175562D01*
X81102696Y-83078850D01*
X81102694Y-83078848D01*
X81100050Y-83073658D01*
X81010342Y-82983950D01*
X81005152Y-82981306D01*
X81005150Y-82981304D01*
X80902498Y-82929000D01*
X80902495Y-82928999D01*
X80897304Y-82926354D01*
X80891552Y-82925443D01*
X80891549Y-82925442D01*
X80777752Y-82907419D01*
X80772000Y-82906508D01*
X80766248Y-82907419D01*
X80652451Y-82925442D01*
X80652448Y-82925443D01*
X80646696Y-82926354D01*
X80641505Y-82928999D01*
X80641502Y-82929000D01*
X80538850Y-82981304D01*
X80538848Y-82981306D01*
X80533658Y-82983950D01*
X80443950Y-83073658D01*
X80441306Y-83078848D01*
X80441304Y-83078850D01*
X80392027Y-83175562D01*
X80386354Y-83186696D01*
X80385443Y-83192448D01*
X80385442Y-83192451D01*
X80370953Y-83283937D01*
X80366508Y-83312000D01*
X78891492Y-83312000D01*
X78887047Y-83283937D01*
X78872558Y-83192451D01*
X78872557Y-83192448D01*
X78871646Y-83186696D01*
X78865973Y-83175562D01*
X78816696Y-83078850D01*
X78816694Y-83078848D01*
X78814050Y-83073658D01*
X78724342Y-82983950D01*
X78719152Y-82981306D01*
X78719150Y-82981304D01*
X78616498Y-82929000D01*
X78616495Y-82928999D01*
X78611304Y-82926354D01*
X78605552Y-82925443D01*
X78605549Y-82925442D01*
X78491752Y-82907419D01*
X78486000Y-82906508D01*
X78480248Y-82907419D01*
X78366451Y-82925442D01*
X78366448Y-82925443D01*
X78360696Y-82926354D01*
X78355505Y-82928999D01*
X78355502Y-82929000D01*
X78252850Y-82981304D01*
X78252848Y-82981306D01*
X78247658Y-82983950D01*
X78157950Y-83073658D01*
X78155306Y-83078848D01*
X78155304Y-83078850D01*
X78106027Y-83175562D01*
X78100354Y-83186696D01*
X78099443Y-83192448D01*
X78099442Y-83192451D01*
X78084953Y-83283937D01*
X78080508Y-83312000D01*
X68511392Y-83312000D01*
X68437342Y-83237950D01*
X68432152Y-83235306D01*
X68432150Y-83235304D01*
X68329498Y-83183000D01*
X68329495Y-83182999D01*
X68324304Y-83180354D01*
X68318552Y-83179443D01*
X68318549Y-83179442D01*
X68204752Y-83161419D01*
X68199000Y-83160508D01*
X68193248Y-83161419D01*
X68079451Y-83179442D01*
X68079448Y-83179443D01*
X68073696Y-83180354D01*
X68068505Y-83182999D01*
X68068502Y-83183000D01*
X67965850Y-83235304D01*
X67965848Y-83235306D01*
X67960658Y-83237950D01*
X67870950Y-83327658D01*
X67868306Y-83332848D01*
X67868304Y-83332850D01*
X67816000Y-83435502D01*
X67813354Y-83440696D01*
X67812443Y-83446448D01*
X67812442Y-83446451D01*
X67802358Y-83510120D01*
X67793508Y-83566000D01*
X67500887Y-83566000D01*
X67501011Y-83555878D01*
X67493781Y-83505392D01*
X67483464Y-83433350D01*
X67483463Y-83433347D01*
X67482717Y-83428137D01*
X67461402Y-83381257D01*
X67431488Y-83315464D01*
X67431486Y-83315461D01*
X67429306Y-83310666D01*
X67425500Y-83306248D01*
X67348511Y-83216898D01*
X67348510Y-83216897D01*
X67345071Y-83212906D01*
X67340652Y-83210042D01*
X67340650Y-83210040D01*
X67265635Y-83161419D01*
X67236784Y-83142719D01*
X67231735Y-83141209D01*
X67231733Y-83141208D01*
X67118204Y-83107255D01*
X67118203Y-83107255D01*
X67113151Y-83105744D01*
X67047649Y-83105344D01*
X66989379Y-83104988D01*
X66989378Y-83104988D01*
X66984109Y-83104956D01*
X66860033Y-83140417D01*
X66750897Y-83209277D01*
X66747409Y-83213226D01*
X66747407Y-83213228D01*
X66711723Y-83253633D01*
X66665474Y-83306000D01*
X66663235Y-83310769D01*
X66663233Y-83310772D01*
X66630601Y-83380278D01*
X66610632Y-83422810D01*
X66590779Y-83550318D01*
X63301228Y-83550318D01*
X63337712Y-83540371D01*
X63342796Y-83538985D01*
X63452765Y-83471464D01*
X63539363Y-83375792D01*
X63595629Y-83259660D01*
X63610824Y-83169342D01*
X63616563Y-83135229D01*
X63616563Y-83135228D01*
X63617038Y-83132405D01*
X63617174Y-83121285D01*
X63614840Y-83104988D01*
X63614111Y-83099900D01*
X64156192Y-83099900D01*
X64157103Y-83105652D01*
X64175126Y-83219449D01*
X64175127Y-83219452D01*
X64176038Y-83225204D01*
X64178683Y-83230395D01*
X64178684Y-83230398D01*
X64230988Y-83333050D01*
X64230990Y-83333052D01*
X64233634Y-83338242D01*
X64323342Y-83427950D01*
X64328532Y-83430594D01*
X64328534Y-83430596D01*
X64431186Y-83482900D01*
X64431189Y-83482901D01*
X64436380Y-83485546D01*
X64442132Y-83486457D01*
X64442135Y-83486458D01*
X64555932Y-83504481D01*
X64561684Y-83505392D01*
X64567436Y-83504481D01*
X64681233Y-83486458D01*
X64681236Y-83486457D01*
X64686988Y-83485546D01*
X64692179Y-83482901D01*
X64692182Y-83482900D01*
X64794834Y-83430596D01*
X64794836Y-83430594D01*
X64800026Y-83427950D01*
X64825704Y-83402272D01*
X64871580Y-83380880D01*
X64920475Y-83393981D01*
X64930356Y-83402272D01*
X64972632Y-83444548D01*
X64977822Y-83447192D01*
X64977824Y-83447194D01*
X65080476Y-83499498D01*
X65080479Y-83499499D01*
X65085670Y-83502144D01*
X65091422Y-83503055D01*
X65091425Y-83503056D01*
X65205222Y-83521079D01*
X65210974Y-83521990D01*
X65216726Y-83521079D01*
X65330523Y-83503056D01*
X65330526Y-83503055D01*
X65336278Y-83502144D01*
X65341469Y-83499499D01*
X65341472Y-83499498D01*
X65444124Y-83447194D01*
X65444126Y-83447192D01*
X65449316Y-83444548D01*
X65538910Y-83354954D01*
X65584786Y-83333562D01*
X65633681Y-83346663D01*
X65643562Y-83354954D01*
X65720135Y-83431527D01*
X65725325Y-83434171D01*
X65725327Y-83434173D01*
X65827979Y-83486477D01*
X65827982Y-83486478D01*
X65833173Y-83489123D01*
X65838925Y-83490034D01*
X65838928Y-83490035D01*
X65952725Y-83508058D01*
X65958477Y-83508969D01*
X65964229Y-83508058D01*
X66078026Y-83490035D01*
X66078029Y-83490034D01*
X66083781Y-83489123D01*
X66088972Y-83486478D01*
X66088975Y-83486477D01*
X66191627Y-83434173D01*
X66191629Y-83434171D01*
X66196819Y-83431527D01*
X66286527Y-83341819D01*
X66289171Y-83336629D01*
X66289173Y-83336627D01*
X66341477Y-83233975D01*
X66341478Y-83233972D01*
X66344123Y-83228781D01*
X66345034Y-83223029D01*
X66345035Y-83223026D01*
X66363058Y-83109229D01*
X66363969Y-83103477D01*
X66361176Y-83085841D01*
X66345035Y-82983928D01*
X66345034Y-82983925D01*
X66344123Y-82978173D01*
X66341477Y-82972979D01*
X66289173Y-82870327D01*
X66289171Y-82870325D01*
X66286527Y-82865135D01*
X66196819Y-82775427D01*
X66191629Y-82772783D01*
X66191627Y-82772781D01*
X66088975Y-82720477D01*
X66088972Y-82720476D01*
X66083781Y-82717831D01*
X66078029Y-82716920D01*
X66078026Y-82716919D01*
X65964229Y-82698896D01*
X65958477Y-82697985D01*
X65952725Y-82698896D01*
X65838928Y-82716919D01*
X65838925Y-82716920D01*
X65833173Y-82717831D01*
X65827982Y-82720476D01*
X65827979Y-82720477D01*
X65725327Y-82772781D01*
X65725325Y-82772783D01*
X65720135Y-82775427D01*
X65630541Y-82865021D01*
X65584665Y-82886413D01*
X65535770Y-82873312D01*
X65525889Y-82865021D01*
X65449316Y-82788448D01*
X65444126Y-82785804D01*
X65444124Y-82785802D01*
X65341472Y-82733498D01*
X65341469Y-82733497D01*
X65336278Y-82730852D01*
X65330526Y-82729941D01*
X65330523Y-82729940D01*
X65216726Y-82711917D01*
X65210974Y-82711006D01*
X65205222Y-82711917D01*
X65091425Y-82729940D01*
X65091422Y-82729941D01*
X65085670Y-82730852D01*
X65080479Y-82733497D01*
X65080476Y-82733498D01*
X64977824Y-82785802D01*
X64977822Y-82785804D01*
X64972632Y-82788448D01*
X64946954Y-82814126D01*
X64901078Y-82835518D01*
X64852183Y-82822417D01*
X64842302Y-82814126D01*
X64800026Y-82771850D01*
X64794836Y-82769206D01*
X64794834Y-82769204D01*
X64692182Y-82716900D01*
X64692179Y-82716899D01*
X64686988Y-82714254D01*
X64681236Y-82713343D01*
X64681233Y-82713342D01*
X64567436Y-82695319D01*
X64561684Y-82694408D01*
X64555932Y-82695319D01*
X64442135Y-82713342D01*
X64442132Y-82713343D01*
X64436380Y-82714254D01*
X64431189Y-82716899D01*
X64431186Y-82716900D01*
X64328534Y-82769204D01*
X64328532Y-82769206D01*
X64323342Y-82771850D01*
X64233634Y-82861558D01*
X64230990Y-82866748D01*
X64230988Y-82866750D01*
X64178684Y-82969402D01*
X64176038Y-82974596D01*
X64175127Y-82980348D01*
X64175126Y-82980351D01*
X64161027Y-83069375D01*
X64156192Y-83099900D01*
X63614111Y-83099900D01*
X63599627Y-82998757D01*
X63599626Y-82998754D01*
X63598880Y-82993544D01*
X63596391Y-82988069D01*
X63547651Y-82880871D01*
X63547649Y-82880868D01*
X63545469Y-82876073D01*
X63538550Y-82868042D01*
X63464674Y-82782305D01*
X63464673Y-82782304D01*
X63461234Y-82778313D01*
X63456815Y-82775449D01*
X63456813Y-82775447D01*
X63378928Y-82724966D01*
X63352947Y-82708126D01*
X63347898Y-82706616D01*
X63347896Y-82706615D01*
X63234367Y-82672662D01*
X63234366Y-82672662D01*
X63229314Y-82671151D01*
X63163812Y-82670751D01*
X63105542Y-82670395D01*
X63105541Y-82670395D01*
X63100272Y-82670363D01*
X62976196Y-82705824D01*
X62867060Y-82774684D01*
X62863572Y-82778633D01*
X62863570Y-82778635D01*
X62837219Y-82808472D01*
X62781637Y-82871407D01*
X62779398Y-82876176D01*
X62779396Y-82876179D01*
X62739414Y-82961339D01*
X62726795Y-82988217D01*
X62706942Y-83115725D01*
X61862631Y-83115725D01*
X61885088Y-83069375D01*
X61906497Y-82942120D01*
X61906633Y-82931000D01*
X61905318Y-82921819D01*
X61889086Y-82808472D01*
X61889085Y-82808469D01*
X61888339Y-82803259D01*
X61878812Y-82782305D01*
X61837110Y-82690586D01*
X61837108Y-82690583D01*
X61834928Y-82685788D01*
X61822289Y-82671119D01*
X61754133Y-82592020D01*
X61754132Y-82592019D01*
X61750693Y-82588028D01*
X61746274Y-82585164D01*
X61746272Y-82585162D01*
X61646829Y-82520708D01*
X61646830Y-82520708D01*
X61642406Y-82517841D01*
X61637357Y-82516331D01*
X61637355Y-82516330D01*
X61523826Y-82482377D01*
X61523825Y-82482377D01*
X61518773Y-82480866D01*
X61453271Y-82480466D01*
X61395001Y-82480110D01*
X61395000Y-82480110D01*
X61389731Y-82480078D01*
X61265655Y-82515539D01*
X61156519Y-82584399D01*
X61153031Y-82588348D01*
X61153029Y-82588350D01*
X61100430Y-82647907D01*
X61055966Y-82672099D01*
X61006355Y-82662050D01*
X60992639Y-82651247D01*
X60944342Y-82602950D01*
X60939152Y-82600306D01*
X60939150Y-82600304D01*
X60836498Y-82548000D01*
X60836495Y-82547999D01*
X60831304Y-82545354D01*
X60825552Y-82544443D01*
X60825549Y-82544442D01*
X60711752Y-82526419D01*
X60706000Y-82525508D01*
X60700248Y-82526419D01*
X60586451Y-82544442D01*
X60586448Y-82544443D01*
X60580696Y-82545354D01*
X60575505Y-82547999D01*
X60575502Y-82548000D01*
X60472850Y-82600304D01*
X60472848Y-82600306D01*
X60467658Y-82602950D01*
X60377950Y-82692658D01*
X60375306Y-82697848D01*
X60375304Y-82697850D01*
X60323000Y-82800502D01*
X60320354Y-82805696D01*
X60319443Y-82811448D01*
X60319442Y-82811451D01*
X60303169Y-82914196D01*
X60300508Y-82931000D01*
X58113906Y-82931000D01*
X58146886Y-82914196D01*
X58146888Y-82914194D01*
X58152078Y-82911550D01*
X58241786Y-82821842D01*
X58244430Y-82816652D01*
X58244432Y-82816650D01*
X58296736Y-82713998D01*
X58296737Y-82713995D01*
X58299382Y-82708804D01*
X58300293Y-82703052D01*
X58300294Y-82703049D01*
X58318317Y-82589252D01*
X58319228Y-82583500D01*
X58314191Y-82551696D01*
X58300294Y-82463951D01*
X58300293Y-82463948D01*
X58299382Y-82458196D01*
X58294030Y-82447692D01*
X58244432Y-82350350D01*
X58244430Y-82350348D01*
X58241786Y-82345158D01*
X58152078Y-82255450D01*
X58146888Y-82252806D01*
X58146886Y-82252804D01*
X58044234Y-82200500D01*
X58044231Y-82200499D01*
X58039040Y-82197854D01*
X58033288Y-82196943D01*
X58033285Y-82196942D01*
X57919488Y-82178919D01*
X57913736Y-82178008D01*
X57907984Y-82178919D01*
X57794187Y-82196942D01*
X57794184Y-82196943D01*
X57788432Y-82197854D01*
X57783241Y-82200499D01*
X57783238Y-82200500D01*
X57680586Y-82252804D01*
X57680584Y-82252806D01*
X57675394Y-82255450D01*
X57585686Y-82345158D01*
X57583042Y-82350348D01*
X57583040Y-82350350D01*
X57533442Y-82447692D01*
X57528090Y-82458196D01*
X57527179Y-82463948D01*
X57527178Y-82463951D01*
X57513281Y-82551696D01*
X57508244Y-82583500D01*
X57097036Y-82583500D01*
X57097133Y-82575550D01*
X57090097Y-82526419D01*
X57079586Y-82453022D01*
X57079585Y-82453019D01*
X57078839Y-82447809D01*
X57074247Y-82437709D01*
X57027610Y-82335136D01*
X57027608Y-82335133D01*
X57025428Y-82330338D01*
X57021147Y-82325369D01*
X56944633Y-82236570D01*
X56944632Y-82236569D01*
X56941193Y-82232578D01*
X56936774Y-82229714D01*
X56936772Y-82229712D01*
X56837329Y-82165258D01*
X56837330Y-82165258D01*
X56832906Y-82162391D01*
X56827857Y-82160881D01*
X56827855Y-82160880D01*
X56714326Y-82126927D01*
X56714325Y-82126927D01*
X56709273Y-82125416D01*
X56643771Y-82125016D01*
X56585501Y-82124660D01*
X56585500Y-82124660D01*
X56580231Y-82124628D01*
X56456155Y-82160089D01*
X56347019Y-82228949D01*
X56343531Y-82232898D01*
X56343529Y-82232900D01*
X56326404Y-82252291D01*
X56261596Y-82325672D01*
X56259357Y-82330441D01*
X56259355Y-82330444D01*
X56218414Y-82417647D01*
X56206754Y-82442482D01*
X56186901Y-82569990D01*
X56014544Y-82569990D01*
X56012558Y-82557451D01*
X56012557Y-82557448D01*
X56011646Y-82551696D01*
X55998767Y-82526419D01*
X55956696Y-82443850D01*
X55956694Y-82443848D01*
X55954050Y-82438658D01*
X55864342Y-82348950D01*
X55859152Y-82346306D01*
X55859150Y-82346304D01*
X55756498Y-82294000D01*
X55756495Y-82293999D01*
X55751304Y-82291354D01*
X55745552Y-82290443D01*
X55745549Y-82290442D01*
X55631752Y-82272419D01*
X55626000Y-82271508D01*
X55620248Y-82272419D01*
X55506451Y-82290442D01*
X55506448Y-82290443D01*
X55500696Y-82291354D01*
X55495505Y-82293999D01*
X55495502Y-82294000D01*
X55392850Y-82346304D01*
X55392848Y-82346306D01*
X55387658Y-82348950D01*
X55297950Y-82438658D01*
X55295306Y-82443848D01*
X55295304Y-82443850D01*
X55253233Y-82526419D01*
X55240354Y-82551696D01*
X55239443Y-82557448D01*
X55239442Y-82557451D01*
X55225116Y-82647907D01*
X55220508Y-82677000D01*
X54767571Y-82677000D01*
X54761999Y-82638091D01*
X54761998Y-82638088D01*
X54761252Y-82632878D01*
X54756660Y-82622778D01*
X54710023Y-82520205D01*
X54710021Y-82520202D01*
X54707841Y-82515407D01*
X54700416Y-82506789D01*
X54627046Y-82421639D01*
X54627045Y-82421638D01*
X54623606Y-82417647D01*
X54619187Y-82414783D01*
X54619185Y-82414781D01*
X54548344Y-82368866D01*
X54515319Y-82347460D01*
X54510270Y-82345950D01*
X54510268Y-82345949D01*
X54396739Y-82311996D01*
X54396738Y-82311996D01*
X54391686Y-82310485D01*
X54326184Y-82310085D01*
X54267914Y-82309729D01*
X54267913Y-82309729D01*
X54262644Y-82309697D01*
X54138568Y-82345158D01*
X54029432Y-82414018D01*
X54025944Y-82417967D01*
X54025942Y-82417969D01*
X54003085Y-82443850D01*
X53944009Y-82510741D01*
X53941770Y-82515510D01*
X53941768Y-82515513D01*
X53907723Y-82588028D01*
X53889167Y-82627551D01*
X53869314Y-82755059D01*
X53225129Y-82755059D01*
X53236581Y-82682752D01*
X53237492Y-82677000D01*
X53232884Y-82647907D01*
X53218558Y-82557451D01*
X53218557Y-82557448D01*
X53217646Y-82551696D01*
X53204767Y-82526419D01*
X53162696Y-82443850D01*
X53162694Y-82443848D01*
X53160050Y-82438658D01*
X53070342Y-82348950D01*
X53065152Y-82346306D01*
X53065150Y-82346304D01*
X52962498Y-82294000D01*
X52962495Y-82293999D01*
X52957304Y-82291354D01*
X52951552Y-82290443D01*
X52951549Y-82290442D01*
X52837752Y-82272419D01*
X52832000Y-82271508D01*
X52826248Y-82272419D01*
X52712451Y-82290442D01*
X52712448Y-82290443D01*
X52706696Y-82291354D01*
X52701505Y-82293999D01*
X52701502Y-82294000D01*
X52598850Y-82346304D01*
X52598848Y-82346306D01*
X52593658Y-82348950D01*
X52503950Y-82438658D01*
X52501306Y-82443848D01*
X52501304Y-82443850D01*
X52459233Y-82526419D01*
X52446354Y-82551696D01*
X52445443Y-82557448D01*
X52445442Y-82557451D01*
X52431116Y-82647907D01*
X52426508Y-82677000D01*
X46070500Y-82677000D01*
X46070500Y-81907440D01*
X68757901Y-81907440D01*
X68758584Y-81912663D01*
X68758584Y-81912666D01*
X68771467Y-82011179D01*
X68774633Y-82035394D01*
X68776756Y-82040219D01*
X68808581Y-82112546D01*
X68826605Y-82153510D01*
X68909639Y-82252291D01*
X69017060Y-82323796D01*
X69022092Y-82325368D01*
X69022094Y-82325369D01*
X69053357Y-82335136D01*
X69140233Y-82362278D01*
X69145501Y-82362375D01*
X69145504Y-82362375D01*
X69199552Y-82363365D01*
X69269255Y-82364643D01*
X69274338Y-82363257D01*
X69274340Y-82363257D01*
X69388671Y-82332086D01*
X69393755Y-82330700D01*
X69503724Y-82263179D01*
X69590322Y-82167507D01*
X69646588Y-82051375D01*
X69667997Y-81924120D01*
X69668133Y-81913000D01*
X69666591Y-81902234D01*
X69650586Y-81790472D01*
X69650585Y-81790469D01*
X69649839Y-81785259D01*
X69647417Y-81779932D01*
X69598610Y-81672586D01*
X69598608Y-81672583D01*
X69596428Y-81667788D01*
X69590580Y-81661000D01*
X69585789Y-81655440D01*
X82856901Y-81655440D01*
X82857584Y-81660663D01*
X82857584Y-81660666D01*
X82858708Y-81669257D01*
X82873633Y-81783394D01*
X82925605Y-81901510D01*
X83008639Y-82000291D01*
X83116060Y-82071796D01*
X83121092Y-82073368D01*
X83121094Y-82073369D01*
X83156714Y-82084497D01*
X83239233Y-82110278D01*
X83244501Y-82110375D01*
X83244504Y-82110375D01*
X83298552Y-82111365D01*
X83368255Y-82112643D01*
X83373338Y-82111257D01*
X83373340Y-82111257D01*
X83487671Y-82080086D01*
X83492755Y-82078700D01*
X83602724Y-82011179D01*
X83689322Y-81915507D01*
X83745588Y-81799375D01*
X83766997Y-81672120D01*
X83767133Y-81661000D01*
X83765591Y-81650234D01*
X83749586Y-81538472D01*
X83749585Y-81538469D01*
X83748839Y-81533259D01*
X83716819Y-81462834D01*
X83697610Y-81420586D01*
X83697608Y-81420583D01*
X83695428Y-81415788D01*
X83688003Y-81407170D01*
X83614633Y-81322020D01*
X83614632Y-81322019D01*
X83611193Y-81318028D01*
X83606774Y-81315164D01*
X83606772Y-81315162D01*
X83507329Y-81250708D01*
X83507330Y-81250708D01*
X83502906Y-81247841D01*
X83497857Y-81246331D01*
X83497855Y-81246330D01*
X83384326Y-81212377D01*
X83384325Y-81212377D01*
X83379273Y-81210866D01*
X83313771Y-81210466D01*
X83255501Y-81210110D01*
X83255500Y-81210110D01*
X83250231Y-81210078D01*
X83126155Y-81245539D01*
X83017019Y-81314399D01*
X83013531Y-81318348D01*
X83013529Y-81318350D01*
X83010288Y-81322020D01*
X82931596Y-81411122D01*
X82929357Y-81415891D01*
X82929355Y-81415894D01*
X82907672Y-81462078D01*
X82876754Y-81527932D01*
X82856901Y-81655440D01*
X69585789Y-81655440D01*
X69515633Y-81574020D01*
X69515632Y-81574019D01*
X69512193Y-81570028D01*
X69507774Y-81567164D01*
X69507772Y-81567162D01*
X69408329Y-81502708D01*
X69408330Y-81502708D01*
X69403906Y-81499841D01*
X69398857Y-81498331D01*
X69398855Y-81498330D01*
X69285326Y-81464377D01*
X69285325Y-81464377D01*
X69280273Y-81462866D01*
X69214771Y-81462466D01*
X69156501Y-81462110D01*
X69156500Y-81462110D01*
X69151231Y-81462078D01*
X69027155Y-81497539D01*
X68918019Y-81566399D01*
X68914531Y-81570348D01*
X68914529Y-81570350D01*
X68911288Y-81574020D01*
X68832596Y-81663122D01*
X68830357Y-81667891D01*
X68830355Y-81667894D01*
X68786892Y-81760469D01*
X68777754Y-81779932D01*
X68757901Y-81907440D01*
X46070500Y-81907440D01*
X46070500Y-79198513D01*
X46087813Y-79150947D01*
X46131650Y-79125637D01*
X46181500Y-79134427D01*
X46210317Y-79164688D01*
X46270288Y-79281380D01*
X46270291Y-79281385D01*
X46271944Y-79284601D01*
X46393818Y-79438369D01*
X46543238Y-79565535D01*
X46546400Y-79567302D01*
X46711354Y-79659492D01*
X46711358Y-79659494D01*
X46714513Y-79661257D01*
X46717949Y-79662374D01*
X46717955Y-79662376D01*
X46836467Y-79700882D01*
X46901118Y-79721889D01*
X46961541Y-79729094D01*
X47092346Y-79744692D01*
X47092349Y-79744692D01*
X47095946Y-79745121D01*
X47160365Y-79740164D01*
X47287965Y-79730346D01*
X47287966Y-79730346D01*
X47291576Y-79730068D01*
X47480556Y-79677303D01*
X47483783Y-79675673D01*
X47652455Y-79590471D01*
X47652458Y-79590469D01*
X47655689Y-79588837D01*
X47810303Y-79468040D01*
X47938509Y-79319511D01*
X47940292Y-79316372D01*
X47940295Y-79316368D01*
X48026461Y-79164688D01*
X48035425Y-79148909D01*
X48047269Y-79113307D01*
X48096215Y-78966168D01*
X48097358Y-78962732D01*
X48102130Y-78924962D01*
X48121691Y-78770115D01*
X48121691Y-78770111D01*
X48121949Y-78768071D01*
X48122341Y-78740000D01*
X48122082Y-78737352D01*
X48103547Y-78548331D01*
X48103194Y-78544728D01*
X48046484Y-78356894D01*
X47954370Y-78183653D01*
X47857682Y-78065101D01*
X47832648Y-78034406D01*
X47832647Y-78034405D01*
X47830361Y-78031602D01*
X47733555Y-77951517D01*
X47707940Y-77907859D01*
X47716381Y-77857949D01*
X47754929Y-77825141D01*
X47780724Y-77820500D01*
X48993722Y-77820500D01*
X49041288Y-77837813D01*
G37*
%TD.AperFunction*%
%TD*%
M02*
