%TF.GenerationSoftware,KiCad,Pcbnew,6.0.11+dfsg-1~bpo11+1*%
%TF.CreationDate,2023-10-01T20:30:49+02:00*%
%TF.ProjectId,ICE40UP-Development-Board,49434534-3055-4502-9d44-6576656c6f70,v0.1*%
%TF.SameCoordinates,Original*%
%TF.FileFunction,Legend,Top*%
%TF.FilePolarity,Positive*%
%FSLAX46Y46*%
G04 Gerber Fmt 4.6, Leading zero omitted, Abs format (unit mm)*
G04 Created by KiCad (PCBNEW 6.0.11+dfsg-1~bpo11+1) date 2023-10-01 20:30:49*
%MOMM*%
%LPD*%
G01*
G04 APERTURE LIST*
%ADD10C,0.150000*%
%ADD11C,0.120000*%
G04 APERTURE END LIST*
D10*
X74066523Y-79825904D02*
X74523666Y-79825904D01*
X74295095Y-80625904D02*
X74295095Y-79825904D01*
X74714142Y-79825904D02*
X75209380Y-79825904D01*
X74942714Y-80130666D01*
X75057000Y-80130666D01*
X75133190Y-80168761D01*
X75171285Y-80206857D01*
X75209380Y-80283047D01*
X75209380Y-80473523D01*
X75171285Y-80549714D01*
X75133190Y-80587809D01*
X75057000Y-80625904D01*
X74828428Y-80625904D01*
X74752238Y-80587809D01*
X74714142Y-80549714D01*
X75476047Y-79825904D02*
X76009380Y-79825904D01*
X75666523Y-80625904D01*
X49161761Y-80625904D02*
X48704619Y-80625904D01*
X48933190Y-80625904D02*
X48933190Y-79825904D01*
X48857000Y-79940190D01*
X48780809Y-80016380D01*
X48704619Y-80054476D01*
X49390333Y-79825904D02*
X49657000Y-80625904D01*
X49923666Y-79825904D01*
X50152238Y-79902095D02*
X50190333Y-79864000D01*
X50266523Y-79825904D01*
X50457000Y-79825904D01*
X50533190Y-79864000D01*
X50571285Y-79902095D01*
X50609380Y-79978285D01*
X50609380Y-80054476D01*
X50571285Y-80168761D01*
X50114142Y-80625904D01*
X50609380Y-80625904D01*
X81877000Y-80625904D02*
X81877000Y-79825904D01*
X82410333Y-79825904D02*
X82562714Y-79825904D01*
X82638904Y-79864000D01*
X82715095Y-79940190D01*
X82753190Y-80092571D01*
X82753190Y-80359238D01*
X82715095Y-80511619D01*
X82638904Y-80587809D01*
X82562714Y-80625904D01*
X82410333Y-80625904D01*
X82334142Y-80587809D01*
X82257952Y-80511619D01*
X82219857Y-80359238D01*
X82219857Y-80092571D01*
X82257952Y-79940190D01*
X82334142Y-79864000D01*
X82410333Y-79825904D01*
X83019857Y-79825904D02*
X83515095Y-79825904D01*
X83248428Y-80130666D01*
X83362714Y-80130666D01*
X83438904Y-80168761D01*
X83477000Y-80206857D01*
X83515095Y-80283047D01*
X83515095Y-80473523D01*
X83477000Y-80549714D01*
X83438904Y-80587809D01*
X83362714Y-80625904D01*
X83134142Y-80625904D01*
X83057952Y-80587809D01*
X83019857Y-80549714D01*
X69272238Y-95040457D02*
X69386523Y-95078552D01*
X69424619Y-95116647D01*
X69462714Y-95192838D01*
X69462714Y-95307123D01*
X69424619Y-95383314D01*
X69386523Y-95421409D01*
X69310333Y-95459504D01*
X69005571Y-95459504D01*
X69005571Y-94659504D01*
X69272238Y-94659504D01*
X69348428Y-94697600D01*
X69386523Y-94735695D01*
X69424619Y-94811885D01*
X69424619Y-94888076D01*
X69386523Y-94964266D01*
X69348428Y-95002361D01*
X69272238Y-95040457D01*
X69005571Y-95040457D01*
X70224619Y-95459504D02*
X69767476Y-95459504D01*
X69996047Y-95459504D02*
X69996047Y-94659504D01*
X69919857Y-94773790D01*
X69843666Y-94849980D01*
X69767476Y-94888076D01*
X70681761Y-95002361D02*
X70605571Y-94964266D01*
X70567476Y-94926171D01*
X70529380Y-94849980D01*
X70529380Y-94811885D01*
X70567476Y-94735695D01*
X70605571Y-94697600D01*
X70681761Y-94659504D01*
X70834142Y-94659504D01*
X70910333Y-94697600D01*
X70948428Y-94735695D01*
X70986523Y-94811885D01*
X70986523Y-94849980D01*
X70948428Y-94926171D01*
X70910333Y-94964266D01*
X70834142Y-95002361D01*
X70681761Y-95002361D01*
X70605571Y-95040457D01*
X70567476Y-95078552D01*
X70529380Y-95154742D01*
X70529380Y-95307123D01*
X70567476Y-95383314D01*
X70605571Y-95421409D01*
X70681761Y-95459504D01*
X70834142Y-95459504D01*
X70910333Y-95421409D01*
X70948428Y-95383314D01*
X70986523Y-95307123D01*
X70986523Y-95154742D01*
X70948428Y-95078552D01*
X70910333Y-95040457D01*
X70834142Y-95002361D01*
X79190904Y-85070904D02*
X78924238Y-84689952D01*
X78733761Y-85070904D02*
X78733761Y-84270904D01*
X79038523Y-84270904D01*
X79114714Y-84309000D01*
X79152809Y-84347095D01*
X79190904Y-84423285D01*
X79190904Y-84537571D01*
X79152809Y-84613761D01*
X79114714Y-84651857D01*
X79038523Y-84689952D01*
X78733761Y-84689952D01*
X79495666Y-85032809D02*
X79609952Y-85070904D01*
X79800428Y-85070904D01*
X79876619Y-85032809D01*
X79914714Y-84994714D01*
X79952809Y-84918523D01*
X79952809Y-84842333D01*
X79914714Y-84766142D01*
X79876619Y-84728047D01*
X79800428Y-84689952D01*
X79648047Y-84651857D01*
X79571857Y-84613761D01*
X79533761Y-84575666D01*
X79495666Y-84499476D01*
X79495666Y-84423285D01*
X79533761Y-84347095D01*
X79571857Y-84309000D01*
X79648047Y-84270904D01*
X79838523Y-84270904D01*
X79952809Y-84309000D01*
X80181380Y-84270904D02*
X80638523Y-84270904D01*
X80409952Y-85070904D02*
X80409952Y-84270904D01*
X76892238Y-95040457D02*
X77006523Y-95078552D01*
X77044619Y-95116647D01*
X77082714Y-95192838D01*
X77082714Y-95307123D01*
X77044619Y-95383314D01*
X77006523Y-95421409D01*
X76930333Y-95459504D01*
X76625571Y-95459504D01*
X76625571Y-94659504D01*
X76892238Y-94659504D01*
X76968428Y-94697600D01*
X77006523Y-94735695D01*
X77044619Y-94811885D01*
X77044619Y-94888076D01*
X77006523Y-94964266D01*
X76968428Y-95002361D01*
X76892238Y-95040457D01*
X76625571Y-95040457D01*
X77387476Y-94735695D02*
X77425571Y-94697600D01*
X77501761Y-94659504D01*
X77692238Y-94659504D01*
X77768428Y-94697600D01*
X77806523Y-94735695D01*
X77844619Y-94811885D01*
X77844619Y-94888076D01*
X77806523Y-95002361D01*
X77349380Y-95459504D01*
X77844619Y-95459504D01*
X78530333Y-94926171D02*
X78530333Y-95459504D01*
X78339857Y-94621409D02*
X78149380Y-95192838D01*
X78644619Y-95192838D01*
X61366523Y-79825904D02*
X61823666Y-79825904D01*
X61595095Y-80625904D02*
X61595095Y-79825904D01*
X62433190Y-80092571D02*
X62433190Y-80625904D01*
X62242714Y-79787809D02*
X62052238Y-80359238D01*
X62547476Y-80359238D01*
X62776047Y-79825904D02*
X63271285Y-79825904D01*
X63004619Y-80130666D01*
X63118904Y-80130666D01*
X63195095Y-80168761D01*
X63233190Y-80206857D01*
X63271285Y-80283047D01*
X63271285Y-80473523D01*
X63233190Y-80549714D01*
X63195095Y-80587809D01*
X63118904Y-80625904D01*
X62890333Y-80625904D01*
X62814142Y-80587809D01*
X62776047Y-80549714D01*
X64192238Y-95040457D02*
X64306523Y-95078552D01*
X64344619Y-95116647D01*
X64382714Y-95192838D01*
X64382714Y-95307123D01*
X64344619Y-95383314D01*
X64306523Y-95421409D01*
X64230333Y-95459504D01*
X63925571Y-95459504D01*
X63925571Y-94659504D01*
X64192238Y-94659504D01*
X64268428Y-94697600D01*
X64306523Y-94735695D01*
X64344619Y-94811885D01*
X64344619Y-94888076D01*
X64306523Y-94964266D01*
X64268428Y-95002361D01*
X64192238Y-95040457D01*
X63925571Y-95040457D01*
X65144619Y-95459504D02*
X64687476Y-95459504D01*
X64916047Y-95459504D02*
X64916047Y-94659504D01*
X64839857Y-94773790D01*
X64763666Y-94849980D01*
X64687476Y-94888076D01*
X65411285Y-94659504D02*
X65906523Y-94659504D01*
X65639857Y-94964266D01*
X65754142Y-94964266D01*
X65830333Y-95002361D01*
X65868428Y-95040457D01*
X65906523Y-95116647D01*
X65906523Y-95307123D01*
X65868428Y-95383314D01*
X65830333Y-95421409D01*
X65754142Y-95459504D01*
X65525571Y-95459504D01*
X65449380Y-95421409D01*
X65411285Y-95383314D01*
X59493190Y-95040457D02*
X59607476Y-95078552D01*
X59645571Y-95116647D01*
X59683666Y-95192838D01*
X59683666Y-95307123D01*
X59645571Y-95383314D01*
X59607476Y-95421409D01*
X59531285Y-95459504D01*
X59226523Y-95459504D01*
X59226523Y-94659504D01*
X59493190Y-94659504D01*
X59569380Y-94697600D01*
X59607476Y-94735695D01*
X59645571Y-94811885D01*
X59645571Y-94888076D01*
X59607476Y-94964266D01*
X59569380Y-95002361D01*
X59493190Y-95040457D01*
X59226523Y-95040457D01*
X60369380Y-94659504D02*
X60217000Y-94659504D01*
X60140809Y-94697600D01*
X60102714Y-94735695D01*
X60026523Y-94849980D01*
X59988428Y-95002361D01*
X59988428Y-95307123D01*
X60026523Y-95383314D01*
X60064619Y-95421409D01*
X60140809Y-95459504D01*
X60293190Y-95459504D01*
X60369380Y-95421409D01*
X60407476Y-95383314D01*
X60445571Y-95307123D01*
X60445571Y-95116647D01*
X60407476Y-95040457D01*
X60369380Y-95002361D01*
X60293190Y-94964266D01*
X60140809Y-94964266D01*
X60064619Y-95002361D01*
X60026523Y-95040457D01*
X59988428Y-95116647D01*
X84417000Y-95459504D02*
X84417000Y-94659504D01*
X84950333Y-94659504D02*
X85102714Y-94659504D01*
X85178904Y-94697600D01*
X85255095Y-94773790D01*
X85293190Y-94926171D01*
X85293190Y-95192838D01*
X85255095Y-95345219D01*
X85178904Y-95421409D01*
X85102714Y-95459504D01*
X84950333Y-95459504D01*
X84874142Y-95421409D01*
X84797952Y-95345219D01*
X84759857Y-95192838D01*
X84759857Y-94926171D01*
X84797952Y-94773790D01*
X84874142Y-94697600D01*
X84950333Y-94659504D01*
X85559857Y-94659504D02*
X86055095Y-94659504D01*
X85788428Y-94964266D01*
X85902714Y-94964266D01*
X85978904Y-95002361D01*
X86017000Y-95040457D01*
X86055095Y-95116647D01*
X86055095Y-95307123D01*
X86017000Y-95383314D01*
X85978904Y-95421409D01*
X85902714Y-95459504D01*
X85674142Y-95459504D01*
X85597952Y-95421409D01*
X85559857Y-95383314D01*
X51206523Y-79825904D02*
X51663666Y-79825904D01*
X51435095Y-80625904D02*
X51435095Y-79825904D01*
X52273190Y-80092571D02*
X52273190Y-80625904D01*
X52082714Y-79787809D02*
X51892238Y-80359238D01*
X52387476Y-80359238D01*
X52806523Y-80168761D02*
X52730333Y-80130666D01*
X52692238Y-80092571D01*
X52654142Y-80016380D01*
X52654142Y-79978285D01*
X52692238Y-79902095D01*
X52730333Y-79864000D01*
X52806523Y-79825904D01*
X52958904Y-79825904D01*
X53035095Y-79864000D01*
X53073190Y-79902095D01*
X53111285Y-79978285D01*
X53111285Y-80016380D01*
X53073190Y-80092571D01*
X53035095Y-80130666D01*
X52958904Y-80168761D01*
X52806523Y-80168761D01*
X52730333Y-80206857D01*
X52692238Y-80244952D01*
X52654142Y-80321142D01*
X52654142Y-80473523D01*
X52692238Y-80549714D01*
X52730333Y-80587809D01*
X52806523Y-80625904D01*
X52958904Y-80625904D01*
X53035095Y-80587809D01*
X53073190Y-80549714D01*
X53111285Y-80473523D01*
X53111285Y-80321142D01*
X53073190Y-80244952D01*
X53035095Y-80206857D01*
X52958904Y-80168761D01*
X79337000Y-95459504D02*
X79337000Y-94659504D01*
X79870333Y-94659504D02*
X80022714Y-94659504D01*
X80098904Y-94697600D01*
X80175095Y-94773790D01*
X80213190Y-94926171D01*
X80213190Y-95192838D01*
X80175095Y-95345219D01*
X80098904Y-95421409D01*
X80022714Y-95459504D01*
X79870333Y-95459504D01*
X79794142Y-95421409D01*
X79717952Y-95345219D01*
X79679857Y-95192838D01*
X79679857Y-94926171D01*
X79717952Y-94773790D01*
X79794142Y-94697600D01*
X79870333Y-94659504D01*
X80708428Y-94659504D02*
X80784619Y-94659504D01*
X80860809Y-94697600D01*
X80898904Y-94735695D01*
X80937000Y-94811885D01*
X80975095Y-94964266D01*
X80975095Y-95154742D01*
X80937000Y-95307123D01*
X80898904Y-95383314D01*
X80860809Y-95421409D01*
X80784619Y-95459504D01*
X80708428Y-95459504D01*
X80632238Y-95421409D01*
X80594142Y-95383314D01*
X80556047Y-95307123D01*
X80517952Y-95154742D01*
X80517952Y-94964266D01*
X80556047Y-94811885D01*
X80594142Y-94735695D01*
X80632238Y-94697600D01*
X80708428Y-94659504D01*
X46126523Y-79825904D02*
X46621761Y-79825904D01*
X46355095Y-80130666D01*
X46469380Y-80130666D01*
X46545571Y-80168761D01*
X46583666Y-80206857D01*
X46621761Y-80283047D01*
X46621761Y-80473523D01*
X46583666Y-80549714D01*
X46545571Y-80587809D01*
X46469380Y-80625904D01*
X46240809Y-80625904D01*
X46164619Y-80587809D01*
X46126523Y-80549714D01*
X46850333Y-79825904D02*
X47117000Y-80625904D01*
X47383666Y-79825904D01*
X47574142Y-79825904D02*
X48069380Y-79825904D01*
X47802714Y-80130666D01*
X47917000Y-80130666D01*
X47993190Y-80168761D01*
X48031285Y-80206857D01*
X48069380Y-80283047D01*
X48069380Y-80473523D01*
X48031285Y-80549714D01*
X47993190Y-80587809D01*
X47917000Y-80625904D01*
X47688428Y-80625904D01*
X47612238Y-80587809D01*
X47574142Y-80549714D01*
X56953190Y-95040457D02*
X57067476Y-95078552D01*
X57105571Y-95116647D01*
X57143666Y-95192838D01*
X57143666Y-95307123D01*
X57105571Y-95383314D01*
X57067476Y-95421409D01*
X56991285Y-95459504D01*
X56686523Y-95459504D01*
X56686523Y-94659504D01*
X56953190Y-94659504D01*
X57029380Y-94697600D01*
X57067476Y-94735695D01*
X57105571Y-94811885D01*
X57105571Y-94888076D01*
X57067476Y-94964266D01*
X57029380Y-95002361D01*
X56953190Y-95040457D01*
X56686523Y-95040457D01*
X57829380Y-94926171D02*
X57829380Y-95459504D01*
X57638904Y-94621409D02*
X57448428Y-95192838D01*
X57943666Y-95192838D01*
X51521666Y-93976000D02*
X51488333Y-94009333D01*
X51388333Y-94042666D01*
X51321666Y-94042666D01*
X51221666Y-94009333D01*
X51155000Y-93942666D01*
X51121666Y-93876000D01*
X51088333Y-93742666D01*
X51088333Y-93642666D01*
X51121666Y-93509333D01*
X51155000Y-93442666D01*
X51221666Y-93376000D01*
X51321666Y-93342666D01*
X51388333Y-93342666D01*
X51488333Y-93376000D01*
X51521666Y-93409333D01*
X51821666Y-94042666D02*
X51821666Y-93342666D01*
X51988333Y-93342666D01*
X52088333Y-93376000D01*
X52155000Y-93442666D01*
X52188333Y-93509333D01*
X52221666Y-93642666D01*
X52221666Y-93742666D01*
X52188333Y-93876000D01*
X52155000Y-93942666D01*
X52088333Y-94009333D01*
X51988333Y-94042666D01*
X51821666Y-94042666D01*
X52655000Y-93342666D02*
X52788333Y-93342666D01*
X52855000Y-93376000D01*
X52921666Y-93442666D01*
X52955000Y-93576000D01*
X52955000Y-93809333D01*
X52921666Y-93942666D01*
X52855000Y-94009333D01*
X52788333Y-94042666D01*
X52655000Y-94042666D01*
X52588333Y-94009333D01*
X52521666Y-93942666D01*
X52488333Y-93809333D01*
X52488333Y-93576000D01*
X52521666Y-93442666D01*
X52588333Y-93376000D01*
X52655000Y-93342666D01*
X53255000Y-94042666D02*
X53255000Y-93342666D01*
X53655000Y-94042666D01*
X53655000Y-93342666D01*
X53988333Y-93676000D02*
X54221666Y-93676000D01*
X54321666Y-94042666D02*
X53988333Y-94042666D01*
X53988333Y-93342666D01*
X54321666Y-93342666D01*
X72739380Y-84651857D02*
X72853666Y-84689952D01*
X72891761Y-84728047D01*
X72929857Y-84804238D01*
X72929857Y-84918523D01*
X72891761Y-84994714D01*
X72853666Y-85032809D01*
X72777476Y-85070904D01*
X72472714Y-85070904D01*
X72472714Y-84270904D01*
X72739380Y-84270904D01*
X72815571Y-84309000D01*
X72853666Y-84347095D01*
X72891761Y-84423285D01*
X72891761Y-84499476D01*
X72853666Y-84575666D01*
X72815571Y-84613761D01*
X72739380Y-84651857D01*
X72472714Y-84651857D01*
X73158428Y-84270904D02*
X73615571Y-84270904D01*
X73387000Y-85070904D02*
X73387000Y-84270904D01*
X73882238Y-85070904D02*
X73882238Y-84270904D01*
X74339380Y-85070904D01*
X74339380Y-84270904D01*
X74872714Y-84270904D02*
X74948904Y-84270904D01*
X75025095Y-84309000D01*
X75063190Y-84347095D01*
X75101285Y-84423285D01*
X75139380Y-84575666D01*
X75139380Y-84766142D01*
X75101285Y-84918523D01*
X75063190Y-84994714D01*
X75025095Y-85032809D01*
X74948904Y-85070904D01*
X74872714Y-85070904D01*
X74796523Y-85032809D01*
X74758428Y-84994714D01*
X74720333Y-84918523D01*
X74682238Y-84766142D01*
X74682238Y-84575666D01*
X74720333Y-84423285D01*
X74758428Y-84347095D01*
X74796523Y-84309000D01*
X74872714Y-84270904D01*
X68050666Y-86930666D02*
X67717333Y-86930666D01*
X67717333Y-86230666D01*
X68284000Y-86564000D02*
X68517333Y-86564000D01*
X68617333Y-86930666D02*
X68284000Y-86930666D01*
X68284000Y-86230666D01*
X68617333Y-86230666D01*
X68917333Y-86930666D02*
X68917333Y-86230666D01*
X69084000Y-86230666D01*
X69184000Y-86264000D01*
X69250666Y-86330666D01*
X69284000Y-86397333D01*
X69317333Y-86530666D01*
X69317333Y-86630666D01*
X69284000Y-86764000D01*
X69250666Y-86830666D01*
X69184000Y-86897333D01*
X69084000Y-86930666D01*
X68917333Y-86930666D01*
X69750666Y-86230666D02*
X69817333Y-86230666D01*
X69884000Y-86264000D01*
X69917333Y-86297333D01*
X69950666Y-86364000D01*
X69984000Y-86497333D01*
X69984000Y-86664000D01*
X69950666Y-86797333D01*
X69917333Y-86864000D01*
X69884000Y-86897333D01*
X69817333Y-86930666D01*
X69750666Y-86930666D01*
X69684000Y-86897333D01*
X69650666Y-86864000D01*
X69617333Y-86797333D01*
X69584000Y-86664000D01*
X69584000Y-86497333D01*
X69617333Y-86364000D01*
X69650666Y-86297333D01*
X69684000Y-86264000D01*
X69750666Y-86230666D01*
X58826523Y-79825904D02*
X59283666Y-79825904D01*
X59055095Y-80625904D02*
X59055095Y-79825904D01*
X59893190Y-80092571D02*
X59893190Y-80625904D01*
X59702714Y-79787809D02*
X59512238Y-80359238D01*
X60007476Y-80359238D01*
X60655095Y-80092571D02*
X60655095Y-80625904D01*
X60464619Y-79787809D02*
X60274142Y-80359238D01*
X60769380Y-80359238D01*
X51136666Y-81850666D02*
X51136666Y-81150666D01*
X51403333Y-81150666D01*
X51470000Y-81184000D01*
X51503333Y-81217333D01*
X51536666Y-81284000D01*
X51536666Y-81384000D01*
X51503333Y-81450666D01*
X51470000Y-81484000D01*
X51403333Y-81517333D01*
X51136666Y-81517333D01*
X51770000Y-81150666D02*
X51936666Y-81850666D01*
X52070000Y-81350666D01*
X52203333Y-81850666D01*
X52370000Y-81150666D01*
X53036666Y-81850666D02*
X52803333Y-81517333D01*
X52636666Y-81850666D02*
X52636666Y-81150666D01*
X52903333Y-81150666D01*
X52970000Y-81184000D01*
X53003333Y-81217333D01*
X53036666Y-81284000D01*
X53036666Y-81384000D01*
X53003333Y-81450666D01*
X52970000Y-81484000D01*
X52903333Y-81517333D01*
X52636666Y-81517333D01*
X66732238Y-95040457D02*
X66846523Y-95078552D01*
X66884619Y-95116647D01*
X66922714Y-95192838D01*
X66922714Y-95307123D01*
X66884619Y-95383314D01*
X66846523Y-95421409D01*
X66770333Y-95459504D01*
X66465571Y-95459504D01*
X66465571Y-94659504D01*
X66732238Y-94659504D01*
X66808428Y-94697600D01*
X66846523Y-94735695D01*
X66884619Y-94811885D01*
X66884619Y-94888076D01*
X66846523Y-94964266D01*
X66808428Y-95002361D01*
X66732238Y-95040457D01*
X66465571Y-95040457D01*
X67684619Y-95459504D02*
X67227476Y-95459504D01*
X67456047Y-95459504D02*
X67456047Y-94659504D01*
X67379857Y-94773790D01*
X67303666Y-94849980D01*
X67227476Y-94888076D01*
X68370333Y-94659504D02*
X68217952Y-94659504D01*
X68141761Y-94697600D01*
X68103666Y-94735695D01*
X68027476Y-94849980D01*
X67989380Y-95002361D01*
X67989380Y-95307123D01*
X68027476Y-95383314D01*
X68065571Y-95421409D01*
X68141761Y-95459504D01*
X68294142Y-95459504D01*
X68370333Y-95421409D01*
X68408428Y-95383314D01*
X68446523Y-95307123D01*
X68446523Y-95116647D01*
X68408428Y-95040457D01*
X68370333Y-95002361D01*
X68294142Y-94964266D01*
X68141761Y-94964266D01*
X68065571Y-95002361D01*
X68027476Y-95040457D01*
X67989380Y-95116647D01*
X49333190Y-95040457D02*
X49447476Y-95078552D01*
X49485571Y-95116647D01*
X49523666Y-95192838D01*
X49523666Y-95307123D01*
X49485571Y-95383314D01*
X49447476Y-95421409D01*
X49371285Y-95459504D01*
X49066523Y-95459504D01*
X49066523Y-94659504D01*
X49333190Y-94659504D01*
X49409380Y-94697600D01*
X49447476Y-94735695D01*
X49485571Y-94811885D01*
X49485571Y-94888076D01*
X49447476Y-94964266D01*
X49409380Y-95002361D01*
X49333190Y-95040457D01*
X49066523Y-95040457D01*
X50018904Y-94659504D02*
X50095095Y-94659504D01*
X50171285Y-94697600D01*
X50209380Y-94735695D01*
X50247476Y-94811885D01*
X50285571Y-94964266D01*
X50285571Y-95154742D01*
X50247476Y-95307123D01*
X50209380Y-95383314D01*
X50171285Y-95421409D01*
X50095095Y-95459504D01*
X50018904Y-95459504D01*
X49942714Y-95421409D01*
X49904619Y-95383314D01*
X49866523Y-95307123D01*
X49828428Y-95154742D01*
X49828428Y-94964266D01*
X49866523Y-94811885D01*
X49904619Y-94735695D01*
X49942714Y-94697600D01*
X50018904Y-94659504D01*
X54413190Y-95040457D02*
X54527476Y-95078552D01*
X54565571Y-95116647D01*
X54603666Y-95192838D01*
X54603666Y-95307123D01*
X54565571Y-95383314D01*
X54527476Y-95421409D01*
X54451285Y-95459504D01*
X54146523Y-95459504D01*
X54146523Y-94659504D01*
X54413190Y-94659504D01*
X54489380Y-94697600D01*
X54527476Y-94735695D01*
X54565571Y-94811885D01*
X54565571Y-94888076D01*
X54527476Y-94964266D01*
X54489380Y-95002361D01*
X54413190Y-95040457D01*
X54146523Y-95040457D01*
X54870333Y-94659504D02*
X55365571Y-94659504D01*
X55098904Y-94964266D01*
X55213190Y-94964266D01*
X55289380Y-95002361D01*
X55327476Y-95040457D01*
X55365571Y-95116647D01*
X55365571Y-95307123D01*
X55327476Y-95383314D01*
X55289380Y-95421409D01*
X55213190Y-95459504D01*
X54984619Y-95459504D01*
X54908428Y-95421409D01*
X54870333Y-95383314D01*
X79337000Y-80625904D02*
X79337000Y-79825904D01*
X79870333Y-79825904D02*
X80022714Y-79825904D01*
X80098904Y-79864000D01*
X80175095Y-79940190D01*
X80213190Y-80092571D01*
X80213190Y-80359238D01*
X80175095Y-80511619D01*
X80098904Y-80587809D01*
X80022714Y-80625904D01*
X79870333Y-80625904D01*
X79794142Y-80587809D01*
X79717952Y-80511619D01*
X79679857Y-80359238D01*
X79679857Y-80092571D01*
X79717952Y-79940190D01*
X79794142Y-79864000D01*
X79870333Y-79825904D01*
X80517952Y-79902095D02*
X80556047Y-79864000D01*
X80632238Y-79825904D01*
X80822714Y-79825904D01*
X80898904Y-79864000D01*
X80937000Y-79902095D01*
X80975095Y-79978285D01*
X80975095Y-80054476D01*
X80937000Y-80168761D01*
X80479857Y-80625904D01*
X80975095Y-80625904D01*
X63906523Y-79825904D02*
X64363666Y-79825904D01*
X64135095Y-80625904D02*
X64135095Y-79825904D01*
X64973190Y-80092571D02*
X64973190Y-80625904D01*
X64782714Y-79787809D02*
X64592238Y-80359238D01*
X65087476Y-80359238D01*
X65354142Y-79902095D02*
X65392238Y-79864000D01*
X65468428Y-79825904D01*
X65658904Y-79825904D01*
X65735095Y-79864000D01*
X65773190Y-79902095D01*
X65811285Y-79978285D01*
X65811285Y-80054476D01*
X65773190Y-80168761D01*
X65316047Y-80625904D01*
X65811285Y-80625904D01*
X76606523Y-79825904D02*
X77063666Y-79825904D01*
X76835095Y-80625904D02*
X76835095Y-79825904D01*
X77254142Y-79825904D02*
X77749380Y-79825904D01*
X77482714Y-80130666D01*
X77597000Y-80130666D01*
X77673190Y-80168761D01*
X77711285Y-80206857D01*
X77749380Y-80283047D01*
X77749380Y-80473523D01*
X77711285Y-80549714D01*
X77673190Y-80587809D01*
X77597000Y-80625904D01*
X77368428Y-80625904D01*
X77292238Y-80587809D01*
X77254142Y-80549714D01*
X78435095Y-79825904D02*
X78282714Y-79825904D01*
X78206523Y-79864000D01*
X78168428Y-79902095D01*
X78092238Y-80016380D01*
X78054142Y-80168761D01*
X78054142Y-80473523D01*
X78092238Y-80549714D01*
X78130333Y-80587809D01*
X78206523Y-80625904D01*
X78358904Y-80625904D01*
X78435095Y-80587809D01*
X78473190Y-80549714D01*
X78511285Y-80473523D01*
X78511285Y-80283047D01*
X78473190Y-80206857D01*
X78435095Y-80168761D01*
X78358904Y-80130666D01*
X78206523Y-80130666D01*
X78130333Y-80168761D01*
X78092238Y-80206857D01*
X78054142Y-80283047D01*
X85426523Y-79864000D02*
X85350333Y-79825904D01*
X85236047Y-79825904D01*
X85121761Y-79864000D01*
X85045571Y-79940190D01*
X85007476Y-80016380D01*
X84969380Y-80168761D01*
X84969380Y-80283047D01*
X85007476Y-80435428D01*
X85045571Y-80511619D01*
X85121761Y-80587809D01*
X85236047Y-80625904D01*
X85312238Y-80625904D01*
X85426523Y-80587809D01*
X85464619Y-80549714D01*
X85464619Y-80283047D01*
X85312238Y-80283047D01*
X66446523Y-79825904D02*
X66903666Y-79825904D01*
X66675095Y-80625904D02*
X66675095Y-79825904D01*
X67513190Y-80092571D02*
X67513190Y-80625904D01*
X67322714Y-79787809D02*
X67132238Y-80359238D01*
X67627476Y-80359238D01*
X68351285Y-80625904D02*
X67894142Y-80625904D01*
X68122714Y-80625904D02*
X68122714Y-79825904D01*
X68046523Y-79940190D01*
X67970333Y-80016380D01*
X67894142Y-80054476D01*
X71812238Y-95040457D02*
X71926523Y-95078552D01*
X71964619Y-95116647D01*
X72002714Y-95192838D01*
X72002714Y-95307123D01*
X71964619Y-95383314D01*
X71926523Y-95421409D01*
X71850333Y-95459504D01*
X71545571Y-95459504D01*
X71545571Y-94659504D01*
X71812238Y-94659504D01*
X71888428Y-94697600D01*
X71926523Y-94735695D01*
X71964619Y-94811885D01*
X71964619Y-94888076D01*
X71926523Y-94964266D01*
X71888428Y-95002361D01*
X71812238Y-95040457D01*
X71545571Y-95040457D01*
X72307476Y-94735695D02*
X72345571Y-94697600D01*
X72421761Y-94659504D01*
X72612238Y-94659504D01*
X72688428Y-94697600D01*
X72726523Y-94735695D01*
X72764619Y-94811885D01*
X72764619Y-94888076D01*
X72726523Y-95002361D01*
X72269380Y-95459504D01*
X72764619Y-95459504D01*
X73259857Y-94659504D02*
X73336047Y-94659504D01*
X73412238Y-94697600D01*
X73450333Y-94735695D01*
X73488428Y-94811885D01*
X73526523Y-94964266D01*
X73526523Y-95154742D01*
X73488428Y-95307123D01*
X73450333Y-95383314D01*
X73412238Y-95421409D01*
X73336047Y-95459504D01*
X73259857Y-95459504D01*
X73183666Y-95421409D01*
X73145571Y-95383314D01*
X73107476Y-95307123D01*
X73069380Y-95154742D01*
X73069380Y-94964266D01*
X73107476Y-94811885D01*
X73145571Y-94735695D01*
X73183666Y-94697600D01*
X73259857Y-94659504D01*
X51873190Y-95040457D02*
X51987476Y-95078552D01*
X52025571Y-95116647D01*
X52063666Y-95192838D01*
X52063666Y-95307123D01*
X52025571Y-95383314D01*
X51987476Y-95421409D01*
X51911285Y-95459504D01*
X51606523Y-95459504D01*
X51606523Y-94659504D01*
X51873190Y-94659504D01*
X51949380Y-94697600D01*
X51987476Y-94735695D01*
X52025571Y-94811885D01*
X52025571Y-94888076D01*
X51987476Y-94964266D01*
X51949380Y-95002361D01*
X51873190Y-95040457D01*
X51606523Y-95040457D01*
X52368428Y-94735695D02*
X52406523Y-94697600D01*
X52482714Y-94659504D01*
X52673190Y-94659504D01*
X52749380Y-94697600D01*
X52787476Y-94735695D01*
X52825571Y-94811885D01*
X52825571Y-94888076D01*
X52787476Y-95002361D01*
X52330333Y-95459504D01*
X52825571Y-95459504D01*
X68986523Y-79825904D02*
X69443666Y-79825904D01*
X69215095Y-80625904D02*
X69215095Y-79825904D01*
X69634142Y-79825904D02*
X70129380Y-79825904D01*
X69862714Y-80130666D01*
X69977000Y-80130666D01*
X70053190Y-80168761D01*
X70091285Y-80206857D01*
X70129380Y-80283047D01*
X70129380Y-80473523D01*
X70091285Y-80549714D01*
X70053190Y-80587809D01*
X69977000Y-80625904D01*
X69748428Y-80625904D01*
X69672238Y-80587809D01*
X69634142Y-80549714D01*
X70510333Y-80625904D02*
X70662714Y-80625904D01*
X70738904Y-80587809D01*
X70777000Y-80549714D01*
X70853190Y-80435428D01*
X70891285Y-80283047D01*
X70891285Y-79978285D01*
X70853190Y-79902095D01*
X70815095Y-79864000D01*
X70738904Y-79825904D01*
X70586523Y-79825904D01*
X70510333Y-79864000D01*
X70472238Y-79902095D01*
X70434142Y-79978285D01*
X70434142Y-80168761D01*
X70472238Y-80244952D01*
X70510333Y-80283047D01*
X70586523Y-80321142D01*
X70738904Y-80321142D01*
X70815095Y-80283047D01*
X70853190Y-80244952D01*
X70891285Y-80168761D01*
X56286523Y-79825904D02*
X56743666Y-79825904D01*
X56515095Y-80625904D02*
X56515095Y-79825904D01*
X57353190Y-80092571D02*
X57353190Y-80625904D01*
X57162714Y-79787809D02*
X56972238Y-80359238D01*
X57467476Y-80359238D01*
X58153190Y-79825904D02*
X57772238Y-79825904D01*
X57734142Y-80206857D01*
X57772238Y-80168761D01*
X57848428Y-80130666D01*
X58038904Y-80130666D01*
X58115095Y-80168761D01*
X58153190Y-80206857D01*
X58191285Y-80283047D01*
X58191285Y-80473523D01*
X58153190Y-80549714D01*
X58115095Y-80587809D01*
X58038904Y-80625904D01*
X57848428Y-80625904D01*
X57772238Y-80587809D01*
X57734142Y-80549714D01*
X74352238Y-95040457D02*
X74466523Y-95078552D01*
X74504619Y-95116647D01*
X74542714Y-95192838D01*
X74542714Y-95307123D01*
X74504619Y-95383314D01*
X74466523Y-95421409D01*
X74390333Y-95459504D01*
X74085571Y-95459504D01*
X74085571Y-94659504D01*
X74352238Y-94659504D01*
X74428428Y-94697600D01*
X74466523Y-94735695D01*
X74504619Y-94811885D01*
X74504619Y-94888076D01*
X74466523Y-94964266D01*
X74428428Y-95002361D01*
X74352238Y-95040457D01*
X74085571Y-95040457D01*
X74847476Y-94735695D02*
X74885571Y-94697600D01*
X74961761Y-94659504D01*
X75152238Y-94659504D01*
X75228428Y-94697600D01*
X75266523Y-94735695D01*
X75304619Y-94811885D01*
X75304619Y-94888076D01*
X75266523Y-95002361D01*
X74809380Y-95459504D01*
X75304619Y-95459504D01*
X75571285Y-94659504D02*
X76066523Y-94659504D01*
X75799857Y-94964266D01*
X75914142Y-94964266D01*
X75990333Y-95002361D01*
X76028428Y-95040457D01*
X76066523Y-95116647D01*
X76066523Y-95307123D01*
X76028428Y-95383314D01*
X75990333Y-95421409D01*
X75914142Y-95459504D01*
X75685571Y-95459504D01*
X75609380Y-95421409D01*
X75571285Y-95383314D01*
X46964619Y-94659504D02*
X46583666Y-94659504D01*
X46545571Y-95040457D01*
X46583666Y-95002361D01*
X46659857Y-94964266D01*
X46850333Y-94964266D01*
X46926523Y-95002361D01*
X46964619Y-95040457D01*
X47002714Y-95116647D01*
X47002714Y-95307123D01*
X46964619Y-95383314D01*
X46926523Y-95421409D01*
X46850333Y-95459504D01*
X46659857Y-95459504D01*
X46583666Y-95421409D01*
X46545571Y-95383314D01*
X47231285Y-94659504D02*
X47497952Y-95459504D01*
X47764619Y-94659504D01*
X81648428Y-95421409D02*
X81762714Y-95459504D01*
X81953190Y-95459504D01*
X82029380Y-95421409D01*
X82067476Y-95383314D01*
X82105571Y-95307123D01*
X82105571Y-95230933D01*
X82067476Y-95154742D01*
X82029380Y-95116647D01*
X81953190Y-95078552D01*
X81800809Y-95040457D01*
X81724619Y-95002361D01*
X81686523Y-94964266D01*
X81648428Y-94888076D01*
X81648428Y-94811885D01*
X81686523Y-94735695D01*
X81724619Y-94697600D01*
X81800809Y-94659504D01*
X81991285Y-94659504D01*
X82105571Y-94697600D01*
X82905571Y-95383314D02*
X82867476Y-95421409D01*
X82753190Y-95459504D01*
X82677000Y-95459504D01*
X82562714Y-95421409D01*
X82486523Y-95345219D01*
X82448428Y-95269028D01*
X82410333Y-95116647D01*
X82410333Y-95002361D01*
X82448428Y-94849980D01*
X82486523Y-94773790D01*
X82562714Y-94697600D01*
X82677000Y-94659504D01*
X82753190Y-94659504D01*
X82867476Y-94697600D01*
X82905571Y-94735695D01*
X83248428Y-95459504D02*
X83248428Y-94659504D01*
X83705571Y-95459504D02*
X83362714Y-95002361D01*
X83705571Y-94659504D02*
X83248428Y-95116647D01*
X62033190Y-95040457D02*
X62147476Y-95078552D01*
X62185571Y-95116647D01*
X62223666Y-95192838D01*
X62223666Y-95307123D01*
X62185571Y-95383314D01*
X62147476Y-95421409D01*
X62071285Y-95459504D01*
X61766523Y-95459504D01*
X61766523Y-94659504D01*
X62033190Y-94659504D01*
X62109380Y-94697600D01*
X62147476Y-94735695D01*
X62185571Y-94811885D01*
X62185571Y-94888076D01*
X62147476Y-94964266D01*
X62109380Y-95002361D01*
X62033190Y-95040457D01*
X61766523Y-95040457D01*
X62680809Y-95002361D02*
X62604619Y-94964266D01*
X62566523Y-94926171D01*
X62528428Y-94849980D01*
X62528428Y-94811885D01*
X62566523Y-94735695D01*
X62604619Y-94697600D01*
X62680809Y-94659504D01*
X62833190Y-94659504D01*
X62909380Y-94697600D01*
X62947476Y-94735695D01*
X62985571Y-94811885D01*
X62985571Y-94849980D01*
X62947476Y-94926171D01*
X62909380Y-94964266D01*
X62833190Y-95002361D01*
X62680809Y-95002361D01*
X62604619Y-95040457D01*
X62566523Y-95078552D01*
X62528428Y-95154742D01*
X62528428Y-95307123D01*
X62566523Y-95383314D01*
X62604619Y-95421409D01*
X62680809Y-95459504D01*
X62833190Y-95459504D01*
X62909380Y-95421409D01*
X62947476Y-95383314D01*
X62985571Y-95307123D01*
X62985571Y-95154742D01*
X62947476Y-95078552D01*
X62909380Y-95040457D01*
X62833190Y-95002361D01*
X71526523Y-79825904D02*
X71983666Y-79825904D01*
X71755095Y-80625904D02*
X71755095Y-79825904D01*
X72174142Y-79825904D02*
X72669380Y-79825904D01*
X72402714Y-80130666D01*
X72517000Y-80130666D01*
X72593190Y-80168761D01*
X72631285Y-80206857D01*
X72669380Y-80283047D01*
X72669380Y-80473523D01*
X72631285Y-80549714D01*
X72593190Y-80587809D01*
X72517000Y-80625904D01*
X72288428Y-80625904D01*
X72212238Y-80587809D01*
X72174142Y-80549714D01*
X73126523Y-80168761D02*
X73050333Y-80130666D01*
X73012238Y-80092571D01*
X72974142Y-80016380D01*
X72974142Y-79978285D01*
X73012238Y-79902095D01*
X73050333Y-79864000D01*
X73126523Y-79825904D01*
X73278904Y-79825904D01*
X73355095Y-79864000D01*
X73393190Y-79902095D01*
X73431285Y-79978285D01*
X73431285Y-80016380D01*
X73393190Y-80092571D01*
X73355095Y-80130666D01*
X73278904Y-80168761D01*
X73126523Y-80168761D01*
X73050333Y-80206857D01*
X73012238Y-80244952D01*
X72974142Y-80321142D01*
X72974142Y-80473523D01*
X73012238Y-80549714D01*
X73050333Y-80587809D01*
X73126523Y-80625904D01*
X73278904Y-80625904D01*
X73355095Y-80587809D01*
X73393190Y-80549714D01*
X73431285Y-80473523D01*
X73431285Y-80321142D01*
X73393190Y-80244952D01*
X73355095Y-80206857D01*
X73278904Y-80168761D01*
X53746523Y-79825904D02*
X54203666Y-79825904D01*
X53975095Y-80625904D02*
X53975095Y-79825904D01*
X54813190Y-80092571D02*
X54813190Y-80625904D01*
X54622714Y-79787809D02*
X54432238Y-80359238D01*
X54927476Y-80359238D01*
X55575095Y-79825904D02*
X55422714Y-79825904D01*
X55346523Y-79864000D01*
X55308428Y-79902095D01*
X55232238Y-80016380D01*
X55194142Y-80168761D01*
X55194142Y-80473523D01*
X55232238Y-80549714D01*
X55270333Y-80587809D01*
X55346523Y-80625904D01*
X55498904Y-80625904D01*
X55575095Y-80587809D01*
X55613190Y-80549714D01*
X55651285Y-80473523D01*
X55651285Y-80283047D01*
X55613190Y-80206857D01*
X55575095Y-80168761D01*
X55498904Y-80130666D01*
X55346523Y-80130666D01*
X55270333Y-80168761D01*
X55232238Y-80206857D01*
X55194142Y-80283047D01*
D11*
%TO.C,R10*%
X58673000Y-84354641D02*
X58673000Y-84047359D01*
X57913000Y-84354641D02*
X57913000Y-84047359D01*
%TO.C,C2*%
X61828000Y-81835164D02*
X61828000Y-82050836D01*
X61108000Y-81835164D02*
X61108000Y-82050836D01*
%TO.C,V8*%
X79342000Y-89535000D02*
X79342000Y-91035000D01*
X77122000Y-88035000D02*
X77122000Y-91035000D01*
%TO.C,C4*%
X56407164Y-90657000D02*
X56622836Y-90657000D01*
X56407164Y-89937000D02*
X56622836Y-89937000D01*
%TO.C,R7*%
X63245000Y-81786759D02*
X63245000Y-82094041D01*
X62485000Y-81786759D02*
X62485000Y-82094041D01*
%TO.C,R12*%
X56641000Y-84354641D02*
X56641000Y-84047359D01*
X55881000Y-84354641D02*
X55881000Y-84047359D01*
%TO.C,R4*%
X57532000Y-81814641D02*
X57532000Y-81507359D01*
X58292000Y-81814641D02*
X58292000Y-81507359D01*
%TO.C,V5*%
X71062000Y-92387000D02*
X71322000Y-92387000D01*
X76512000Y-92387000D02*
X76252000Y-92387000D01*
X76512000Y-89662000D02*
X76512000Y-92387000D01*
X76252000Y-86937000D02*
X76252000Y-85262000D01*
X71062000Y-89662000D02*
X71062000Y-86937000D01*
X71062000Y-89662000D02*
X71062000Y-92387000D01*
X76512000Y-86937000D02*
X76252000Y-86937000D01*
X71062000Y-86937000D02*
X71322000Y-86937000D01*
X76512000Y-89662000D02*
X76512000Y-86937000D01*
%TO.C,C13*%
X53954000Y-81768836D02*
X53954000Y-81553164D01*
X53234000Y-81768836D02*
X53234000Y-81553164D01*
%TO.C,C17*%
X63521000Y-82048236D02*
X63521000Y-81832564D01*
X64241000Y-82048236D02*
X64241000Y-81832564D01*
%TO.C,C20*%
X77872000Y-93579836D02*
X77872000Y-93364164D01*
X78592000Y-93579836D02*
X78592000Y-93364164D01*
%TO.C,C1*%
X60050000Y-93452836D02*
X60050000Y-93237164D01*
X59330000Y-93452836D02*
X59330000Y-93237164D01*
%TO.C,C18*%
X68305000Y-85109164D02*
X68305000Y-85324836D01*
X67585000Y-85109164D02*
X67585000Y-85324836D01*
%TO.C,R3*%
X56006000Y-81814641D02*
X56006000Y-81507359D01*
X55246000Y-81814641D02*
X55246000Y-81507359D01*
%TO.C,F1*%
X54939000Y-90800422D02*
X54939000Y-91317578D01*
X53519000Y-90800422D02*
X53519000Y-91317578D01*
%TO.C,C10*%
X66273000Y-81832564D02*
X66273000Y-82048236D01*
X65553000Y-81832564D02*
X65553000Y-82048236D01*
%TO.C,R13*%
X69876641Y-82043000D02*
X69569359Y-82043000D01*
X69876641Y-82803000D02*
X69569359Y-82803000D01*
%TO.C,C11*%
X56241836Y-86339000D02*
X56026164Y-86339000D01*
X56241836Y-85619000D02*
X56026164Y-85619000D01*
%TO.C,V2*%
X54064000Y-88530000D02*
X55964000Y-88530000D01*
X55664000Y-86730000D02*
X54064000Y-86730000D01*
%TO.C,S2*%
X81489000Y-80940000D02*
X77769000Y-80940000D01*
X81489000Y-84160000D02*
X81489000Y-83910000D01*
X81489000Y-81190000D02*
X81489000Y-80940000D01*
X77769000Y-84160000D02*
X77769000Y-83910000D01*
X77769000Y-81190000D02*
X77769000Y-80940000D01*
%TO.C,S1*%
X71927000Y-84160000D02*
X71927000Y-83910000D01*
X71927000Y-81190000D02*
X71927000Y-80940000D01*
X75647000Y-84160000D02*
X75647000Y-83910000D01*
X75647000Y-81190000D02*
X75647000Y-80940000D01*
X75647000Y-80940000D02*
X71927000Y-80940000D01*
%TO.C,R15*%
X78639641Y-92201000D02*
X78332359Y-92201000D01*
X78639641Y-91441000D02*
X78332359Y-91441000D01*
%TO.C,C19*%
X77576000Y-93579836D02*
X77576000Y-93364164D01*
X76856000Y-93579836D02*
X76856000Y-93364164D01*
%TO.C,C22*%
X80793000Y-91420836D02*
X80793000Y-91205164D01*
X81513000Y-91420836D02*
X81513000Y-91205164D01*
%TO.C,C5*%
X63606000Y-93452836D02*
X63606000Y-93237164D01*
X62886000Y-93452836D02*
X62886000Y-93237164D01*
%TO.C,C15*%
X67047265Y-93110164D02*
X67047265Y-93325836D01*
X66327265Y-93110164D02*
X66327265Y-93325836D01*
%TO.C,FB1*%
X55497000Y-92420221D02*
X55497000Y-92745779D01*
X56517000Y-92420221D02*
X56517000Y-92745779D01*
%TO.C,C7*%
X61870000Y-93452836D02*
X61870000Y-93237164D01*
X62590000Y-93452836D02*
X62590000Y-93237164D01*
%TO.C,V1*%
X59574000Y-90765000D02*
X59574000Y-91240000D01*
X66794000Y-84020000D02*
X66319000Y-84020000D01*
X66794000Y-90765000D02*
X66794000Y-91240000D01*
X66794000Y-91240000D02*
X66319000Y-91240000D01*
X59574000Y-84020000D02*
X60049000Y-84020000D01*
X66794000Y-84495000D02*
X66794000Y-84020000D01*
X59574000Y-84495000D02*
X59574000Y-84020000D01*
%TO.C,R16*%
X80517000Y-88672641D02*
X80517000Y-88365359D01*
X79757000Y-88672641D02*
X79757000Y-88365359D01*
%TO.C,R6*%
X56262000Y-81507359D02*
X56262000Y-81814641D01*
X57022000Y-81507359D02*
X57022000Y-81814641D01*
%TO.C,C12*%
X53994164Y-86339000D02*
X54209836Y-86339000D01*
X53994164Y-85619000D02*
X54209836Y-85619000D01*
%TO.C,C14*%
X54970000Y-81768836D02*
X54970000Y-81553164D01*
X54250000Y-81768836D02*
X54250000Y-81553164D01*
%TO.C,C6*%
X60854000Y-93452836D02*
X60854000Y-93237164D01*
X61574000Y-93452836D02*
X61574000Y-93237164D01*
%TO.C,C21*%
X80497000Y-91420836D02*
X80497000Y-91205164D01*
X79777000Y-91420836D02*
X79777000Y-91205164D01*
%TO.C,V4*%
X49784000Y-81788000D02*
X49784000Y-81280000D01*
X49784000Y-81534000D02*
X49530000Y-81788000D01*
X49530000Y-81280000D02*
X49784000Y-81534000D01*
X49530000Y-81788000D02*
X49530000Y-81280000D01*
%TO.C,R11*%
X56897000Y-84354641D02*
X56897000Y-84047359D01*
X57657000Y-84354641D02*
X57657000Y-84047359D01*
%TO.C,C3*%
X58647000Y-92321748D02*
X58647000Y-92844252D01*
X57177000Y-92321748D02*
X57177000Y-92844252D01*
%TO.C,R17*%
X47270641Y-94106000D02*
X46963359Y-94106000D01*
X47270641Y-93346000D02*
X46963359Y-93346000D01*
%TO.C,R5*%
X57377359Y-86742000D02*
X57684641Y-86742000D01*
X57377359Y-87502000D02*
X57684641Y-87502000D01*
%TO.C,R18*%
X83692000Y-82650359D02*
X83692000Y-82957641D01*
X82932000Y-82650359D02*
X82932000Y-82957641D01*
%TO.C,C9*%
X67390600Y-81832564D02*
X67390600Y-82048236D01*
X66670600Y-81832564D02*
X66670600Y-82048236D01*
%TO.C,X4*%
X82624000Y-84201000D02*
X85524000Y-84201000D01*
X86124000Y-84801000D02*
X86124000Y-92381000D01*
X82024000Y-84801000D02*
X82624000Y-84201000D01*
X86124000Y-84801000D02*
X85524000Y-84201000D01*
X84724000Y-94361000D02*
X83424000Y-94361000D01*
X85344000Y-92456000D02*
X84709000Y-92456000D01*
X86124000Y-92381000D02*
X84724000Y-94361000D01*
X85344000Y-91821000D02*
X85344000Y-92456000D01*
X83424000Y-94361000D02*
X82024000Y-92381000D01*
X82024000Y-92381000D02*
X82024000Y-84801000D01*
%TO.C,R9*%
X76963000Y-86132641D02*
X76963000Y-85825359D01*
X77723000Y-86132641D02*
X77723000Y-85825359D01*
%TO.C,V9*%
X49758500Y-93980000D02*
X49758500Y-93472000D01*
X49758500Y-93726000D02*
X49504500Y-93980000D01*
X49504500Y-93472000D02*
X49758500Y-93726000D01*
X49504500Y-93980000D02*
X49504500Y-93472000D01*
%TO.C,C8*%
X67686600Y-81832564D02*
X67686600Y-82048236D01*
X68406600Y-81832564D02*
X68406600Y-82048236D01*
%TO.C,V3*%
X53379000Y-85019000D02*
X53379000Y-83319000D01*
X55079000Y-84869000D02*
X55079000Y-83319000D01*
%TO.C,C16*%
X64537000Y-82048236D02*
X64537000Y-81832564D01*
X65257000Y-82048236D02*
X65257000Y-81832564D01*
%TO.C,X1*%
X50110000Y-83050000D02*
X48190000Y-83050000D01*
X48190000Y-92210000D02*
X50110000Y-92210000D01*
%TO.C,Y1*%
X70700665Y-94229000D02*
X70700665Y-90429000D01*
X67550665Y-94229000D02*
X70700665Y-94229000D01*
%TO.C,V7*%
X69215000Y-84556600D02*
X69723000Y-84556600D01*
X69723000Y-84556600D02*
X69469000Y-84810600D01*
X69469000Y-84810600D02*
X69215000Y-84556600D01*
X69215000Y-84810600D02*
X69723000Y-84810600D01*
%TO.C,R1*%
X57377359Y-88774000D02*
X57684641Y-88774000D01*
X57377359Y-89534000D02*
X57684641Y-89534000D01*
%TO.C,R2*%
X57377359Y-88518000D02*
X57684641Y-88518000D01*
X57377359Y-87758000D02*
X57684641Y-87758000D01*
%TO.C,R8*%
X47270641Y-81154000D02*
X46963359Y-81154000D01*
X47270641Y-81914000D02*
X46963359Y-81914000D01*
%TO.C,R14*%
X69569359Y-81787000D02*
X69876641Y-81787000D01*
X69569359Y-81027000D02*
X69876641Y-81027000D01*
%TD*%
M02*
