%TF.GenerationSoftware,KiCad,Pcbnew,6.0.11+dfsg-1~bpo11+1*%
%TF.CreationDate,2023-10-01T20:30:49+02:00*%
%TF.ProjectId,ICE40UP-Development-Board,49434534-3055-4502-9d44-6576656c6f70,v0.1*%
%TF.SameCoordinates,Original*%
%TF.FileFunction,Soldermask,Top*%
%TF.FilePolarity,Negative*%
%FSLAX46Y46*%
G04 Gerber Fmt 4.6, Leading zero omitted, Abs format (unit mm)*
G04 Created by KiCad (PCBNEW 6.0.11+dfsg-1~bpo11+1) date 2023-10-01 20:30:49*
%MOMM*%
%LPD*%
G01*
G04 APERTURE LIST*
G04 Aperture macros list*
%AMRoundRect*
0 Rectangle with rounded corners*
0 $1 Rounding radius*
0 $2 $3 $4 $5 $6 $7 $8 $9 X,Y pos of 4 corners*
0 Add a 4 corners polygon primitive as box body*
4,1,4,$2,$3,$4,$5,$6,$7,$8,$9,$2,$3,0*
0 Add four circle primitives for the rounded corners*
1,1,$1+$1,$2,$3*
1,1,$1+$1,$4,$5*
1,1,$1+$1,$6,$7*
1,1,$1+$1,$8,$9*
0 Add four rect primitives between the rounded corners*
20,1,$1+$1,$2,$3,$4,$5,0*
20,1,$1+$1,$4,$5,$6,$7,0*
20,1,$1+$1,$6,$7,$8,$9,0*
20,1,$1+$1,$8,$9,$2,$3,0*%
%AMOutline5P*
0 Free polygon, 5 corners , with rotation*
0 The origin of the aperture is its center*
0 number of corners: always 5*
0 $1 to $10 corner X, Y*
0 $11 Rotation angle, in degrees counterclockwise*
0 create outline with 5 corners*
4,1,5,$1,$2,$3,$4,$5,$6,$7,$8,$9,$10,$1,$2,$11*%
%AMOutline6P*
0 Free polygon, 6 corners , with rotation*
0 The origin of the aperture is its center*
0 number of corners: always 6*
0 $1 to $12 corner X, Y*
0 $13 Rotation angle, in degrees counterclockwise*
0 create outline with 6 corners*
4,1,6,$1,$2,$3,$4,$5,$6,$7,$8,$9,$10,$11,$12,$1,$2,$13*%
%AMOutline7P*
0 Free polygon, 7 corners , with rotation*
0 The origin of the aperture is its center*
0 number of corners: always 7*
0 $1 to $14 corner X, Y*
0 $15 Rotation angle, in degrees counterclockwise*
0 create outline with 7 corners*
4,1,7,$1,$2,$3,$4,$5,$6,$7,$8,$9,$10,$11,$12,$13,$14,$1,$2,$15*%
%AMOutline8P*
0 Free polygon, 8 corners , with rotation*
0 The origin of the aperture is its center*
0 number of corners: always 8*
0 $1 to $16 corner X, Y*
0 $17 Rotation angle, in degrees counterclockwise*
0 create outline with 8 corners*
4,1,8,$1,$2,$3,$4,$5,$6,$7,$8,$9,$10,$11,$12,$13,$14,$15,$16,$1,$2,$17*%
G04 Aperture macros list end*
%ADD10Outline5P,-0.210000X0.105000X-0.105000X0.210000X0.210000X0.210000X0.210000X-0.210000X-0.210000X-0.210000X0.000000*%
%ADD11R,0.420000X0.420000*%
%ADD12RoundRect,0.135000X0.185000X-0.135000X0.185000X0.135000X-0.185000X0.135000X-0.185000X-0.135000X0*%
%ADD13RoundRect,0.140000X-0.170000X0.140000X-0.170000X-0.140000X0.170000X-0.140000X0.170000X0.140000X0*%
%ADD14RoundRect,0.087500X-0.087500X0.175000X-0.087500X-0.175000X0.087500X-0.175000X0.087500X0.175000X0*%
%ADD15R,1.600000X0.150000*%
%ADD16RoundRect,0.140000X-0.140000X-0.170000X0.140000X-0.170000X0.140000X0.170000X-0.140000X0.170000X0*%
%ADD17RoundRect,0.135000X-0.185000X0.135000X-0.185000X-0.135000X0.185000X-0.135000X0.185000X0.135000X0*%
%ADD18RoundRect,0.150000X-0.150000X0.650000X-0.150000X-0.650000X0.150000X-0.650000X0.150000X0.650000X0*%
%ADD19RoundRect,0.140000X0.170000X-0.140000X0.170000X0.140000X-0.170000X0.140000X-0.170000X-0.140000X0*%
%ADD20RoundRect,0.243750X-0.456250X0.243750X-0.456250X-0.243750X0.456250X-0.243750X0.456250X0.243750X0*%
%ADD21RoundRect,0.135000X0.135000X0.185000X-0.135000X0.185000X-0.135000X-0.185000X0.135000X-0.185000X0*%
%ADD22RoundRect,0.140000X0.140000X0.170000X-0.140000X0.170000X-0.140000X-0.170000X0.140000X-0.170000X0*%
%ADD23R,0.500000X0.375000*%
%ADD24R,0.650000X0.300000*%
%ADD25R,1.200000X0.900000*%
%ADD26RoundRect,0.218750X-0.256250X0.218750X-0.256250X-0.218750X0.256250X-0.218750X0.256250X0.218750X0*%
%ADD27RoundRect,0.062500X0.062500X-0.375000X0.062500X0.375000X-0.062500X0.375000X-0.062500X-0.375000X0*%
%ADD28RoundRect,0.062500X0.375000X-0.062500X0.375000X0.062500X-0.375000X0.062500X-0.375000X-0.062500X0*%
%ADD29R,5.600000X5.600000*%
%ADD30RoundRect,0.218750X0.218750X0.256250X-0.218750X0.256250X-0.218750X-0.256250X0.218750X-0.256250X0*%
%ADD31RoundRect,0.250000X-0.475000X0.250000X-0.475000X-0.250000X0.475000X-0.250000X0.475000X0.250000X0*%
%ADD32RoundRect,0.135000X-0.135000X-0.185000X0.135000X-0.185000X0.135000X0.185000X-0.135000X0.185000X0*%
%ADD33C,0.990600*%
%ADD34C,0.787400*%
%ADD35R,0.280000X0.850000*%
%ADD36R,0.280000X0.750000*%
%ADD37C,0.650000*%
%ADD38R,1.240000X0.600000*%
%ADD39R,1.240000X0.300000*%
%ADD40O,1.800000X1.000000*%
%ADD41O,2.100000X1.000000*%
%ADD42R,1.100000X1.300000*%
%ADD43RoundRect,0.218750X0.256250X-0.218750X0.256250X0.218750X-0.256250X0.218750X-0.256250X-0.218750X0*%
%ADD44C,1.700000*%
%ADD45O,1.700000X1.700000*%
G04 APERTURE END LIST*
D10*
%TO.C,V6*%
X59310000Y-81281000D03*
D11*
X59310000Y-82041000D03*
X60070000Y-82041000D03*
X60070000Y-81281000D03*
%TD*%
D12*
%TO.C,R10*%
X58293000Y-84711000D03*
X58293000Y-83691000D03*
%TD*%
D13*
%TO.C,C2*%
X61468000Y-81463000D03*
X61468000Y-82423000D03*
%TD*%
D14*
%TO.C,V8*%
X78982000Y-88247500D03*
X78482000Y-88247500D03*
X77982000Y-88247500D03*
X77482000Y-88247500D03*
X77482000Y-90822500D03*
X77982000Y-90822500D03*
X78482000Y-90822500D03*
X78982000Y-90822500D03*
D15*
X78232000Y-89535000D03*
%TD*%
D16*
%TO.C,C4*%
X56035000Y-90297000D03*
X56995000Y-90297000D03*
%TD*%
D17*
%TO.C,R7*%
X62865000Y-81430400D03*
X62865000Y-82450400D03*
%TD*%
D12*
%TO.C,R12*%
X56261000Y-84711000D03*
X56261000Y-83691000D03*
%TD*%
%TO.C,R4*%
X57912000Y-82171000D03*
X57912000Y-81151000D03*
%TD*%
D18*
%TO.C,V5*%
X75692000Y-86062000D03*
X74422000Y-86062000D03*
X73152000Y-86062000D03*
X71882000Y-86062000D03*
X71882000Y-93262000D03*
X73152000Y-93262000D03*
X74422000Y-93262000D03*
X75692000Y-93262000D03*
%TD*%
D19*
%TO.C,C13*%
X53594000Y-82141000D03*
X53594000Y-81181000D03*
%TD*%
%TO.C,C17*%
X63881000Y-82420400D03*
X63881000Y-81460400D03*
%TD*%
%TO.C,C20*%
X78232000Y-93952000D03*
X78232000Y-92992000D03*
%TD*%
%TO.C,C1*%
X59690000Y-93825000D03*
X59690000Y-92865000D03*
%TD*%
D13*
%TO.C,C18*%
X67945000Y-84737000D03*
X67945000Y-85697000D03*
%TD*%
D12*
%TO.C,R3*%
X55626000Y-82171000D03*
X55626000Y-81151000D03*
%TD*%
D20*
%TO.C,F1*%
X54229000Y-90121500D03*
X54229000Y-91996500D03*
%TD*%
D13*
%TO.C,C10*%
X65913000Y-81460400D03*
X65913000Y-82420400D03*
%TD*%
D21*
%TO.C,R13*%
X70233000Y-82423000D03*
X69213000Y-82423000D03*
%TD*%
D22*
%TO.C,C11*%
X56614000Y-85979000D03*
X55654000Y-85979000D03*
%TD*%
D23*
%TO.C,V2*%
X55714000Y-88167500D03*
D24*
X55789000Y-87630000D03*
D23*
X55714000Y-87092500D03*
X54014000Y-87092500D03*
D24*
X53939000Y-87630000D03*
D23*
X54014000Y-88167500D03*
%TD*%
D25*
%TO.C,S2*%
X81629000Y-83300000D03*
X77629000Y-83300000D03*
X77629000Y-81800000D03*
X81629000Y-81800000D03*
%TD*%
%TO.C,S1*%
X71787000Y-83300000D03*
X75787000Y-83300000D03*
X75787000Y-81800000D03*
X71787000Y-81800000D03*
%TD*%
D21*
%TO.C,R15*%
X78996000Y-91821000D03*
X77976000Y-91821000D03*
%TD*%
D19*
%TO.C,C19*%
X77216000Y-93952000D03*
X77216000Y-92992000D03*
%TD*%
%TO.C,C22*%
X81153000Y-91793000D03*
X81153000Y-90833000D03*
%TD*%
%TO.C,C5*%
X63246000Y-93825000D03*
X63246000Y-92865000D03*
%TD*%
D13*
%TO.C,C15*%
X66687265Y-92738000D03*
X66687265Y-93698000D03*
%TD*%
D26*
%TO.C,FB1*%
X56007000Y-91795500D03*
X56007000Y-93370500D03*
%TD*%
D19*
%TO.C,C7*%
X62230000Y-93825000D03*
X62230000Y-92865000D03*
%TD*%
D27*
%TO.C,V1*%
X60434000Y-91067500D03*
X60934000Y-91067500D03*
X61434000Y-91067500D03*
X61934000Y-91067500D03*
X62434000Y-91067500D03*
X62934000Y-91067500D03*
X63434000Y-91067500D03*
X63934000Y-91067500D03*
X64434000Y-91067500D03*
X64934000Y-91067500D03*
X65434000Y-91067500D03*
X65934000Y-91067500D03*
D28*
X66621500Y-90380000D03*
X66621500Y-89880000D03*
X66621500Y-89380000D03*
X66621500Y-88880000D03*
X66621500Y-88380000D03*
X66621500Y-87880000D03*
X66621500Y-87380000D03*
X66621500Y-86880000D03*
X66621500Y-86380000D03*
X66621500Y-85880000D03*
X66621500Y-85380000D03*
X66621500Y-84880000D03*
D27*
X65934000Y-84192500D03*
X65434000Y-84192500D03*
X64934000Y-84192500D03*
X64434000Y-84192500D03*
X63934000Y-84192500D03*
X63434000Y-84192500D03*
X62934000Y-84192500D03*
X62434000Y-84192500D03*
X61934000Y-84192500D03*
X61434000Y-84192500D03*
X60934000Y-84192500D03*
X60434000Y-84192500D03*
D28*
X59746500Y-84880000D03*
X59746500Y-85380000D03*
X59746500Y-85880000D03*
X59746500Y-86380000D03*
X59746500Y-86880000D03*
X59746500Y-87380000D03*
X59746500Y-87880000D03*
X59746500Y-88380000D03*
X59746500Y-88880000D03*
X59746500Y-89380000D03*
X59746500Y-89880000D03*
X59746500Y-90380000D03*
D29*
X63184000Y-87630000D03*
%TD*%
D12*
%TO.C,R16*%
X80137000Y-89029000D03*
X80137000Y-88009000D03*
%TD*%
D17*
%TO.C,R6*%
X56642000Y-81151000D03*
X56642000Y-82171000D03*
%TD*%
D16*
%TO.C,C12*%
X53622000Y-85979000D03*
X54582000Y-85979000D03*
%TD*%
D19*
%TO.C,C14*%
X54610000Y-82141000D03*
X54610000Y-81181000D03*
%TD*%
%TO.C,C6*%
X61214000Y-93825000D03*
X61214000Y-92865000D03*
%TD*%
%TO.C,C21*%
X80137000Y-91793000D03*
X80137000Y-90833000D03*
%TD*%
D30*
%TO.C,V4*%
X50444500Y-81534000D03*
X48869500Y-81534000D03*
%TD*%
D12*
%TO.C,R11*%
X57277000Y-84711000D03*
X57277000Y-83691000D03*
%TD*%
D31*
%TO.C,C3*%
X57912000Y-91633000D03*
X57912000Y-93533000D03*
%TD*%
D21*
%TO.C,R17*%
X47627000Y-93726000D03*
X46607000Y-93726000D03*
%TD*%
D32*
%TO.C,R5*%
X57021000Y-87122000D03*
X58041000Y-87122000D03*
%TD*%
D17*
%TO.C,R18*%
X83312000Y-82294000D03*
X83312000Y-83314000D03*
%TD*%
D13*
%TO.C,C9*%
X67030600Y-81460400D03*
X67030600Y-82420400D03*
%TD*%
D33*
%TO.C,X4*%
X85090000Y-85471000D03*
X84074000Y-93091000D03*
X83058000Y-85471000D03*
D34*
X84709000Y-91821000D03*
X84709000Y-90551000D03*
X84709000Y-89281000D03*
X84709000Y-88011000D03*
X84709000Y-86741000D03*
X83439000Y-86741000D03*
X83439000Y-88011000D03*
X83439000Y-89281000D03*
X83439000Y-90551000D03*
X83439000Y-91821000D03*
%TD*%
D12*
%TO.C,R9*%
X77343000Y-86489000D03*
X77343000Y-85469000D03*
%TD*%
D30*
%TO.C,V9*%
X50419000Y-93726000D03*
X48844000Y-93726000D03*
%TD*%
D13*
%TO.C,C8*%
X68046600Y-81460400D03*
X68046600Y-82420400D03*
%TD*%
D35*
%TO.C,V3*%
X53729000Y-84599000D03*
D36*
X54229000Y-84649000D03*
X54729000Y-84649000D03*
X54729000Y-83499000D03*
X54229000Y-83499000D03*
X53729000Y-83499000D03*
%TD*%
D19*
%TO.C,C16*%
X64897000Y-82420400D03*
X64897000Y-81460400D03*
%TD*%
D37*
%TO.C,X1*%
X50865000Y-84740000D03*
X50865000Y-90520000D03*
D38*
X51985000Y-84430000D03*
X51985000Y-85230000D03*
D39*
X51985000Y-86380000D03*
X51985000Y-87380000D03*
X51985000Y-87880000D03*
X51985000Y-88880000D03*
D38*
X51985000Y-90030000D03*
X51985000Y-90830000D03*
X51985000Y-90830000D03*
X51985000Y-90030000D03*
D39*
X51985000Y-89380000D03*
X51985000Y-88380000D03*
X51985000Y-86880000D03*
X51985000Y-85880000D03*
D38*
X51985000Y-85230000D03*
X51985000Y-84430000D03*
D40*
X47185000Y-83310000D03*
X47185000Y-91950000D03*
D41*
X51385000Y-83310000D03*
X51385000Y-91950000D03*
%TD*%
D42*
%TO.C,Y1*%
X69950665Y-93379000D03*
X69950665Y-91279000D03*
X68300665Y-91279000D03*
X68300665Y-93379000D03*
%TD*%
D43*
%TO.C,V7*%
X69469000Y-85471100D03*
X69469000Y-83896100D03*
%TD*%
D32*
%TO.C,R1*%
X57021000Y-89154000D03*
X58041000Y-89154000D03*
%TD*%
%TO.C,R2*%
X57021000Y-88138000D03*
X58041000Y-88138000D03*
%TD*%
D21*
%TO.C,R8*%
X47627000Y-81534000D03*
X46607000Y-81534000D03*
%TD*%
D32*
%TO.C,R14*%
X69213000Y-81407000D03*
X70233000Y-81407000D03*
%TD*%
D44*
%TO.C,X3*%
X47117000Y-96520000D03*
D45*
X49657000Y-96520000D03*
X52197000Y-96520000D03*
X54737000Y-96520000D03*
X57277000Y-96520000D03*
X59817000Y-96520000D03*
X62357000Y-96520000D03*
X64897000Y-96520000D03*
X67437000Y-96520000D03*
X69977000Y-96520000D03*
X72517000Y-96520000D03*
X75057000Y-96520000D03*
X77597000Y-96520000D03*
X80137000Y-96520000D03*
X82677000Y-96520000D03*
X85217000Y-96520000D03*
%TD*%
D44*
%TO.C,X2*%
X47117000Y-78740000D03*
D45*
X49657000Y-78740000D03*
X52197000Y-78740000D03*
X54737000Y-78740000D03*
X57277000Y-78740000D03*
X59817000Y-78740000D03*
X62357000Y-78740000D03*
X64897000Y-78740000D03*
X67437000Y-78740000D03*
X69977000Y-78740000D03*
X72517000Y-78740000D03*
X75057000Y-78740000D03*
X77597000Y-78740000D03*
X80137000Y-78740000D03*
X82677000Y-78740000D03*
X85217000Y-78740000D03*
%TD*%
M02*
